%TF.GenerationSoftware,KiCad,Pcbnew,10.0.3*%
%TF.CreationDate,2026-05-22T04:08:24-07:00*%
%TF.ProjectId,PCBProject,50434250-726f-46a6-9563-742e6b696361,rev?*%
%TF.SameCoordinates,Original*%
%TF.FileFunction,Copper,L1,Top*%
%TF.FilePolarity,Positive*%
%FSLAX46Y46*%
G04 Gerber Fmt 4.6, Leading zero omitted, Abs format (unit mm)*
G04 Created by KiCad (PCBNEW 10.0.3) date 2026-05-22 04:08:24*
%MOMM*%
%LPD*%
G01*
G04 APERTURE LIST*
G04 Aperture macros list*
%AMRoundRect*
0 Rectangle with rounded corners*
0 $1 Rounding radius*
0 $2 $3 $4 $5 $6 $7 $8 $9 X,Y pos of 4 corners*
0 Add a 4 corners polygon primitive as box body*
4,1,4,$2,$3,$4,$5,$6,$7,$8,$9,$2,$3,0*
0 Add four circle primitives for the rounded corners*
1,1,$1+$1,$2,$3*
1,1,$1+$1,$4,$5*
1,1,$1+$1,$6,$7*
1,1,$1+$1,$8,$9*
0 Add four rect primitives between the rounded corners*
20,1,$1+$1,$2,$3,$4,$5,0*
20,1,$1+$1,$4,$5,$6,$7,0*
20,1,$1+$1,$6,$7,$8,$9,0*
20,1,$1+$1,$8,$9,$2,$3,0*%
G04 Aperture macros list end*
%TA.AperFunction,ComponentPad*%
%ADD10RoundRect,0.250000X-0.750000X0.750000X-0.750000X-0.750000X0.750000X-0.750000X0.750000X0.750000X0*%
%TD*%
%TA.AperFunction,ComponentPad*%
%ADD11C,2.000000*%
%TD*%
%TA.AperFunction,ComponentPad*%
%ADD12RoundRect,0.249999X0.850001X0.850001X-0.850001X0.850001X-0.850001X-0.850001X0.850001X-0.850001X0*%
%TD*%
%TA.AperFunction,ComponentPad*%
%ADD13C,2.200000*%
%TD*%
%TA.AperFunction,ComponentPad*%
%ADD14RoundRect,0.250000X-0.750000X-0.750000X0.750000X-0.750000X0.750000X0.750000X-0.750000X0.750000X0*%
%TD*%
%TA.AperFunction,ComponentPad*%
%ADD15C,1.800000*%
%TD*%
%TA.AperFunction,ComponentPad*%
%ADD16R,1.800000X1.800000*%
%TD*%
%TA.AperFunction,ComponentPad*%
%ADD17C,1.440000*%
%TD*%
%TA.AperFunction,ComponentPad*%
%ADD18RoundRect,0.250000X0.750000X0.750000X-0.750000X0.750000X-0.750000X-0.750000X0.750000X-0.750000X0*%
%TD*%
%TA.AperFunction,ComponentPad*%
%ADD19RoundRect,0.250000X-0.550000X0.550000X-0.550000X-0.550000X0.550000X-0.550000X0.550000X0.550000X0*%
%TD*%
%TA.AperFunction,ComponentPad*%
%ADD20C,1.600000*%
%TD*%
%TA.AperFunction,ComponentPad*%
%ADD21RoundRect,0.250000X-0.550000X-0.550000X0.550000X-0.550000X0.550000X0.550000X-0.550000X0.550000X0*%
%TD*%
%TA.AperFunction,ComponentPad*%
%ADD22C,1.400000*%
%TD*%
%TA.AperFunction,ComponentPad*%
%ADD23O,2.000000X1.905000*%
%TD*%
%TA.AperFunction,ComponentPad*%
%ADD24R,2.000000X1.905000*%
%TD*%
%TA.AperFunction,Conductor*%
%ADD25C,0.300000*%
%TD*%
%TA.AperFunction,Conductor*%
%ADD26C,1.500000*%
%TD*%
%TA.AperFunction,Conductor*%
%ADD27C,0.250000*%
%TD*%
G04 APERTURE END LIST*
D10*
%TO.P,D4,1,K_1*%
%TO.N,Net-(D4-K)*%
X97000000Y-121460000D03*
D11*
%TO.P,D4,2,A_2*%
%TO.N,Net-(D4-A)*%
X97000000Y-124000000D03*
%TD*%
D12*
%TO.P,D2,1,K_1*%
%TO.N,Input*%
X82080000Y-89500000D03*
D13*
%TO.P,D2,2,A_2*%
%TO.N,Net-(BT2-+)*%
X71920000Y-89500000D03*
%TD*%
D14*
%TO.P,T1,1,AA_1*%
%TO.N,Net-(D4-K)*%
X76880000Y-127500000D03*
D11*
%TO.P,T1,2,AB_2*%
%TO.N,Net-(D4-A)*%
X79420000Y-127500000D03*
%TO.P,T1,3,SA_3*%
%TO.N,Output 1*%
X81960000Y-127500000D03*
%TO.P,T1,4,SC_4*%
%TO.N,Input*%
X84500000Y-127500000D03*
%TO.P,T1,5,SB_5*%
%TO.N,Output 3*%
X87040000Y-127500000D03*
%TD*%
D15*
%TO.P,D3,2,A_2*%
%TO.N,Net-(D3-A)*%
X75500000Y-81460000D03*
D16*
%TO.P,D3,1,K_1*%
%TO.N,GND*%
X75500000Y-84000000D03*
%TD*%
D17*
%TO.P,RV1,1,1_1*%
%TO.N,Net-(U1-CT)*%
X97000000Y-92500000D03*
%TO.P,RV1,2,2_2*%
%TO.N,Net-(R2-Pad1)*%
X97000000Y-95040000D03*
%TO.P,RV1,3,3_3*%
X97000000Y-97580000D03*
%TD*%
D11*
%TO.P,BT2,2,-_2*%
%TO.N,GND*%
X95500000Y-84000000D03*
D18*
%TO.P,BT2,1,+_1*%
%TO.N,Net-(BT2-+)*%
X98040000Y-84000000D03*
%TD*%
D19*
%TO.P,C2,1*%
%TO.N,Net-(BT2-+)*%
X84500000Y-83000000D03*
D20*
%TO.P,C2,2*%
%TO.N,GND*%
X84500000Y-85500000D03*
%TD*%
D21*
%TO.P,C4,1*%
%TO.N,Input*%
X82500000Y-97000000D03*
D20*
%TO.P,C4,2*%
%TO.N,GND*%
X85000000Y-97000000D03*
%TD*%
%TO.P,U1,8,VB_8*%
%TO.N,Input*%
X98810000Y-109810000D03*
%TO.P,U1,7,HO_7*%
%TO.N,Net-(U1-HO)*%
X96270000Y-109810000D03*
%TO.P,U1,6,VS_6*%
%TO.N,GND*%
X93730000Y-109810000D03*
%TO.P,U1,5,LO_5*%
%TO.N,Net-(U1-LO)*%
X91190000Y-109810000D03*
%TO.P,U1,4,COM_4*%
%TO.N,Net-(U1-COM)*%
X91190000Y-102190000D03*
%TO.P,U1,3,CT_3*%
%TO.N,Net-(U1-CT)*%
X93730000Y-102190000D03*
%TO.P,U1,2,RT_2*%
%TO.N,Net-(U1-RT)*%
X96270000Y-102190000D03*
D19*
%TO.P,U1,1,VCC_1*%
%TO.N,Input*%
X98810000Y-102190000D03*
%TD*%
D22*
%TO.P,R6,2*%
%TO.N,Net-(Q2-G)*%
X90000000Y-112500000D03*
%TO.P,R6,1*%
%TO.N,Net-(U1-LO)*%
X90000000Y-117580000D03*
%TD*%
%TO.P,R5,2*%
%TO.N,Net-(Q1-G)*%
X99500000Y-114000000D03*
%TO.P,R5,1*%
%TO.N,Net-(U1-HO)*%
X94420000Y-114000000D03*
%TD*%
%TO.P,R4,2*%
%TO.N,Net-(R3-Pad2)*%
X87000000Y-120000000D03*
%TO.P,R4,1*%
%TO.N,Net-(Q2-G)*%
X81920000Y-120000000D03*
%TD*%
%TO.P,R3,2*%
%TO.N,Net-(R3-Pad2)*%
X84500000Y-110500000D03*
%TO.P,R3,1*%
%TO.N,Net-(Q1-G)*%
X84500000Y-115580000D03*
%TD*%
%TO.P,R2,2*%
%TO.N,Net-(U1-RT)*%
X84500000Y-108040000D03*
%TO.P,R2,1*%
%TO.N,Net-(R2-Pad1)*%
X84500000Y-102960000D03*
%TD*%
%TO.P,R1,2*%
%TO.N,Input*%
X77040000Y-95000000D03*
%TO.P,R1,1*%
%TO.N,Net-(D3-A)*%
X71960000Y-95000000D03*
%TD*%
D23*
%TO.P,Q2,3,S_3*%
%TO.N,Net-(Q1-S)*%
X75500000Y-114500000D03*
%TO.P,Q2,2,D_2*%
%TO.N,Output 3*%
X75500000Y-117040000D03*
D24*
%TO.P,Q2,1,G_1*%
%TO.N,Net-(Q2-G)*%
X75500000Y-119580000D03*
%TD*%
D23*
%TO.P,Q1,3,S_3*%
%TO.N,Net-(Q1-S)*%
X75500000Y-100960000D03*
%TO.P,Q1,2,D_2*%
%TO.N,Output 1*%
X75500000Y-103500000D03*
D24*
%TO.P,Q1,1,G_1*%
%TO.N,Net-(Q1-G)*%
X75500000Y-106040000D03*
%TD*%
D20*
%TO.P,C3,2*%
%TO.N,Net-(U1-COM)*%
X90500000Y-98500000D03*
%TO.P,C3,1*%
%TO.N,Net-(U1-CT)*%
X90500000Y-96000000D03*
%TD*%
%TO.P,C1,2*%
%TO.N,GND*%
X89500000Y-91000000D03*
%TO.P,C1,1*%
%TO.N,Net-(BT2-+)*%
X87000000Y-91000000D03*
%TD*%
%TO.N,Input*%
D25*
X74507538Y-108992462D02*
X74150000Y-108634925D01*
%TO.N,Net-(BT2-+)*%
D26*
X74775127Y-79710000D02*
X93119189Y-79710000D01*
%TO.N,Net-(U1-CT)*%
D25*
X93500000Y-96000000D02*
X97000000Y-92500000D01*
X90500000Y-96000000D02*
X93500000Y-96000000D01*
%TO.N,Net-(D4-K)*%
X98350000Y-122810000D02*
X97000000Y-121460000D01*
X79230000Y-129850000D02*
X93059189Y-129850000D01*
X98350000Y-124559189D02*
X98350000Y-122810000D01*
X76880000Y-127500000D02*
X79230000Y-129850000D01*
X93059189Y-129850000D02*
X98350000Y-124559189D01*
%TO.N,Net-(D4-A)*%
X91650000Y-129350000D02*
X97000000Y-124000000D01*
X81270000Y-129350000D02*
X91650000Y-129350000D01*
X79420000Y-127500000D02*
X81270000Y-129350000D01*
%TO.N,Input*%
X97660000Y-108660000D02*
X98810000Y-109810000D01*
X95793654Y-108660000D02*
X97660000Y-108660000D01*
X86791154Y-99657500D02*
X95793654Y-108660000D01*
X74912987Y-99657500D02*
X86791154Y-99657500D01*
X74150000Y-100420487D02*
X74912987Y-99657500D01*
X74150000Y-108634925D02*
X74150000Y-100420487D01*
X88464264Y-122949189D02*
X74507538Y-108992462D01*
X88464264Y-127984925D02*
X88464264Y-122949189D01*
X87599189Y-128850000D02*
X88464264Y-127984925D01*
X85850000Y-128850000D02*
X87599189Y-128850000D01*
X84500000Y-127500000D02*
X85850000Y-128850000D01*
%TO.N,Output 3*%
X76580000Y-117040000D02*
X75500000Y-117040000D01*
X87040000Y-127500000D02*
X76580000Y-117040000D01*
%TO.N,Net-(U1-LO)*%
X91190000Y-116390000D02*
X91190000Y-109810000D01*
X90000000Y-117580000D02*
X91190000Y-116390000D01*
%TO.N,Net-(R2-Pad1)*%
X93513654Y-111460000D02*
X92340000Y-110286346D01*
X99493452Y-111460000D02*
X93513654Y-111460000D01*
X100460000Y-110493452D02*
X99493452Y-111460000D01*
X85966346Y-102960000D02*
X84500000Y-102960000D01*
X100460000Y-101040000D02*
X100460000Y-110493452D01*
X92340000Y-110286346D02*
X92340000Y-109333654D01*
X97000000Y-97580000D02*
X100460000Y-101040000D01*
X92340000Y-109333654D02*
X85966346Y-102960000D01*
%TO.N,Net-(BT2-+)*%
D26*
X91909189Y-89500000D02*
X88500000Y-89500000D01*
X96850000Y-84559189D02*
X91909189Y-89500000D01*
X96850000Y-83440811D02*
X96850000Y-84559189D01*
X93119189Y-79710000D02*
X96850000Y-83440811D01*
X73750000Y-80735126D02*
X74775127Y-79710000D01*
X73750000Y-84750000D02*
X73750000Y-80735126D01*
X80330000Y-85250000D02*
X74250000Y-85250000D01*
X74250000Y-85250000D02*
X73750000Y-84750000D01*
D25*
X84500000Y-83000000D02*
X82580000Y-83000000D01*
D26*
X88500000Y-89500000D02*
X92650000Y-85350000D01*
D25*
X82580000Y-83000000D02*
X80330000Y-85250000D01*
%TO.N,GND*%
X99286346Y-110960000D02*
X94880000Y-110960000D01*
X99960000Y-110286346D02*
X99286346Y-110960000D01*
X99960000Y-101384544D02*
X99960000Y-110286346D01*
X99115456Y-100540000D02*
X99960000Y-101384544D01*
X88540000Y-100540000D02*
X99115456Y-100540000D01*
X94880000Y-110960000D02*
X93730000Y-109810000D01*
X85000000Y-97000000D02*
X88540000Y-100540000D01*
X89500000Y-92500000D02*
X85000000Y-97000000D01*
X89500000Y-91000000D02*
X89500000Y-92500000D01*
X92373654Y-84000000D02*
X95500000Y-84000000D01*
X85850000Y-90523654D02*
X92373654Y-84000000D01*
X85850000Y-91476346D02*
X85850000Y-90523654D01*
X88350000Y-92150000D02*
X86523654Y-92150000D01*
X89500000Y-91000000D02*
X88350000Y-92150000D01*
X86523654Y-92150000D02*
X85850000Y-91476346D01*
X84500000Y-90126346D02*
X86523654Y-92150000D01*
X84500000Y-85500000D02*
X84500000Y-90126346D01*
X84372562Y-80210000D02*
X86150000Y-81987438D01*
X86150000Y-81987438D02*
X86150000Y-84981370D01*
X74982233Y-80210000D02*
X84372562Y-80210000D01*
X74250000Y-80942233D02*
X74982233Y-80210000D01*
X86150000Y-84981370D02*
X85631370Y-85500000D01*
X74250000Y-82750000D02*
X74250000Y-80942233D01*
X75500000Y-84000000D02*
X74250000Y-82750000D01*
X85631370Y-85500000D02*
X84500000Y-85500000D01*
%TO.N,Net-(Q1-G)*%
X84500000Y-115040000D02*
X75500000Y-106040000D01*
X84500000Y-115580000D02*
X84500000Y-115040000D01*
X87870000Y-118950000D02*
X84500000Y-115580000D01*
X94550000Y-118950000D02*
X87870000Y-118950000D01*
X99500000Y-114000000D02*
X94550000Y-118950000D01*
%TO.N,Input*%
X98810000Y-109810000D02*
X98810000Y-102190000D01*
X97660000Y-101040000D02*
X98810000Y-102190000D01*
X86540000Y-101040000D02*
X97660000Y-101040000D01*
X82500000Y-97000000D02*
X86540000Y-101040000D01*
X79040000Y-97000000D02*
X77040000Y-95000000D01*
X82500000Y-97000000D02*
X79040000Y-97000000D01*
%TO.N,Net-(D3-A)*%
X84915456Y-81460000D02*
X75500000Y-81460000D01*
X85650000Y-83805456D02*
X85650000Y-82194544D01*
X85650000Y-82194544D02*
X84915456Y-81460000D01*
X85305456Y-84150000D02*
X85650000Y-83805456D01*
X82810000Y-84150000D02*
X85305456Y-84150000D01*
X71960000Y-95000000D02*
X82810000Y-84150000D01*
%TO.N,Net-(BT2-+)*%
X96690000Y-85350000D02*
X98040000Y-84000000D01*
D26*
X92650000Y-85350000D02*
X96690000Y-85350000D01*
X87000000Y-91000000D02*
X88500000Y-89500000D01*
D25*
X82500000Y-83000000D02*
X84500000Y-83000000D01*
D26*
X76000000Y-89500000D02*
X82500000Y-83000000D01*
X71920000Y-89500000D02*
X76000000Y-89500000D01*
%TO.N,Input*%
D27*
X83660000Y-90000000D02*
X82040000Y-90000000D01*
X82040000Y-90000000D02*
X77040000Y-95000000D01*
%TD*%
%TA.AperFunction,Conductor*%
%TO.N,GND*%
G36*
X84903731Y-100327685D02*
G01*
X84924373Y-100344319D01*
X86125325Y-101545272D01*
X86125328Y-101545275D01*
X86125331Y-101545277D01*
X86192253Y-101589992D01*
X86231873Y-101616465D01*
X86350256Y-101665501D01*
X86350260Y-101665501D01*
X86350261Y-101665502D01*
X86475928Y-101690500D01*
X86475931Y-101690500D01*
X87852846Y-101690500D01*
X87919885Y-101710185D01*
X87940527Y-101726819D01*
X95160416Y-108946708D01*
X95173333Y-108970364D01*
X95189296Y-108992087D01*
X95189827Y-109000570D01*
X95193901Y-109008031D01*
X95191978Y-109034917D01*
X95193663Y-109061820D01*
X95189378Y-109071269D01*
X95188917Y-109077723D01*
X95181036Y-109094779D01*
X95177416Y-109101269D01*
X95157713Y-109128390D01*
X95109165Y-109223669D01*
X95108020Y-109225724D01*
X95084680Y-109248653D01*
X95062228Y-109272426D01*
X95059894Y-109273003D01*
X95058179Y-109274689D01*
X95026152Y-109281359D01*
X94994407Y-109289220D01*
X94992131Y-109288444D01*
X94989777Y-109288935D01*
X94959235Y-109277234D01*
X94928272Y-109266682D01*
X94926571Y-109264719D01*
X94924531Y-109263938D01*
X94916919Y-109253580D01*
X94889234Y-109221628D01*
X94841861Y-109128652D01*
X94809474Y-109084077D01*
X94809474Y-109084076D01*
X94130000Y-109763551D01*
X94130000Y-109757339D01*
X94102741Y-109655606D01*
X94050080Y-109564394D01*
X93975606Y-109489920D01*
X93884394Y-109437259D01*
X93782661Y-109410000D01*
X93776446Y-109410000D01*
X94455922Y-108730524D01*
X94455921Y-108730523D01*
X94411359Y-108698147D01*
X94411350Y-108698141D01*
X94229031Y-108605244D01*
X94034417Y-108542009D01*
X93832317Y-108510000D01*
X93627683Y-108510000D01*
X93425582Y-108542009D01*
X93230968Y-108605244D01*
X93048650Y-108698140D01*
X92888627Y-108814405D01*
X92822820Y-108837885D01*
X92754766Y-108822060D01*
X92728060Y-108801768D01*
X86381020Y-102454727D01*
X86381019Y-102454726D01*
X86381015Y-102454723D01*
X86274473Y-102383535D01*
X86156090Y-102334499D01*
X86137499Y-102330801D01*
X86135071Y-102330318D01*
X86030417Y-102309500D01*
X86030415Y-102309500D01*
X85574465Y-102309500D01*
X85507426Y-102289815D01*
X85474147Y-102258386D01*
X85433701Y-102202717D01*
X85415690Y-102177927D01*
X85282073Y-102044310D01*
X85129199Y-101933240D01*
X84960836Y-101847454D01*
X84781118Y-101789059D01*
X84594486Y-101759500D01*
X84594481Y-101759500D01*
X84405519Y-101759500D01*
X84405514Y-101759500D01*
X84218881Y-101789059D01*
X84039163Y-101847454D01*
X83870800Y-101933240D01*
X83783579Y-101996610D01*
X83717927Y-102044310D01*
X83717925Y-102044312D01*
X83717924Y-102044312D01*
X83584312Y-102177924D01*
X83584312Y-102177925D01*
X83584310Y-102177927D01*
X83566299Y-102202717D01*
X83473240Y-102330800D01*
X83387454Y-102499163D01*
X83329059Y-102678881D01*
X83299500Y-102865513D01*
X83299500Y-103054486D01*
X83329059Y-103241118D01*
X83387454Y-103420836D01*
X83443864Y-103531546D01*
X83473240Y-103589199D01*
X83584310Y-103742073D01*
X83717927Y-103875690D01*
X83870801Y-103986760D01*
X83950347Y-104027290D01*
X84039163Y-104072545D01*
X84039165Y-104072545D01*
X84039168Y-104072547D01*
X84135497Y-104103846D01*
X84218881Y-104130940D01*
X84405514Y-104160500D01*
X84405519Y-104160500D01*
X84594486Y-104160500D01*
X84781118Y-104130940D01*
X84960832Y-104072547D01*
X85129199Y-103986760D01*
X85282073Y-103875690D01*
X85415690Y-103742073D01*
X85474147Y-103661613D01*
X85478479Y-103658273D01*
X85480752Y-103653297D01*
X85505854Y-103637164D01*
X85529478Y-103618949D01*
X85536148Y-103617696D01*
X85539530Y-103615523D01*
X85574465Y-103610500D01*
X85645538Y-103610500D01*
X85712577Y-103630185D01*
X85733219Y-103646819D01*
X90570362Y-108483962D01*
X90603847Y-108545285D01*
X90598863Y-108614977D01*
X90556991Y-108670910D01*
X90538978Y-108682127D01*
X90508386Y-108697714D01*
X90342786Y-108818028D01*
X90198028Y-108962786D01*
X90077715Y-109128386D01*
X89984781Y-109310776D01*
X89921522Y-109505465D01*
X89897113Y-109659581D01*
X89889500Y-109707648D01*
X89889500Y-109912352D01*
X89892704Y-109932580D01*
X89921522Y-110114534D01*
X89984781Y-110309223D01*
X90077715Y-110491613D01*
X90198028Y-110657213D01*
X90342784Y-110801969D01*
X90401594Y-110844696D01*
X90488385Y-110907753D01*
X90491725Y-110912083D01*
X90496703Y-110914357D01*
X90512833Y-110939456D01*
X90531051Y-110963081D01*
X90532304Y-110969754D01*
X90534477Y-110973135D01*
X90539500Y-111008070D01*
X90539500Y-111242342D01*
X90519815Y-111309381D01*
X90467011Y-111355136D01*
X90397853Y-111365080D01*
X90377181Y-111360273D01*
X90281118Y-111329059D01*
X90094486Y-111299500D01*
X90094481Y-111299500D01*
X89905519Y-111299500D01*
X89905514Y-111299500D01*
X89718881Y-111329059D01*
X89539163Y-111387454D01*
X89370800Y-111473240D01*
X89297139Y-111526759D01*
X89217927Y-111584310D01*
X89217925Y-111584312D01*
X89217924Y-111584312D01*
X89084312Y-111717924D01*
X89084312Y-111717925D01*
X89084310Y-111717927D01*
X89036610Y-111783579D01*
X88973240Y-111870800D01*
X88887454Y-112039163D01*
X88829059Y-112218881D01*
X88799500Y-112405513D01*
X88799500Y-112594486D01*
X88829059Y-112781118D01*
X88887454Y-112960836D01*
X88949587Y-113082778D01*
X88973240Y-113129199D01*
X89084310Y-113282073D01*
X89217927Y-113415690D01*
X89370801Y-113526760D01*
X89423146Y-113553431D01*
X89539163Y-113612545D01*
X89539165Y-113612545D01*
X89539168Y-113612547D01*
X89616673Y-113637730D01*
X89718881Y-113670940D01*
X89905514Y-113700500D01*
X89905519Y-113700500D01*
X90094486Y-113700500D01*
X90184963Y-113686169D01*
X90281118Y-113670940D01*
X90281123Y-113670938D01*
X90281125Y-113670938D01*
X90322669Y-113657438D01*
X90377181Y-113639726D01*
X90447021Y-113637730D01*
X90506855Y-113673810D01*
X90537684Y-113736511D01*
X90539500Y-113757657D01*
X90539500Y-116069192D01*
X90519815Y-116136231D01*
X90503181Y-116156873D01*
X90299788Y-116360265D01*
X90238465Y-116393750D01*
X90192709Y-116395057D01*
X90094486Y-116379500D01*
X90094481Y-116379500D01*
X89905519Y-116379500D01*
X89905514Y-116379500D01*
X89718881Y-116409059D01*
X89539163Y-116467454D01*
X89370800Y-116553240D01*
X89297139Y-116606759D01*
X89217927Y-116664310D01*
X89217925Y-116664312D01*
X89217924Y-116664312D01*
X89084312Y-116797924D01*
X89084312Y-116797925D01*
X89084310Y-116797927D01*
X89079412Y-116804669D01*
X88973240Y-116950800D01*
X88887454Y-117119163D01*
X88829059Y-117298881D01*
X88799500Y-117485513D01*
X88799500Y-117674486D01*
X88829059Y-117861118D01*
X88887454Y-118040836D01*
X88927386Y-118119205D01*
X88940282Y-118187874D01*
X88914006Y-118252615D01*
X88856899Y-118292872D01*
X88816901Y-118299500D01*
X88190808Y-118299500D01*
X88123769Y-118279815D01*
X88103127Y-118263181D01*
X85719733Y-115879787D01*
X85686248Y-115818464D01*
X85684941Y-115772713D01*
X85700500Y-115674481D01*
X85700500Y-115485519D01*
X85700500Y-115485513D01*
X85670940Y-115298881D01*
X85643846Y-115215497D01*
X85612547Y-115119168D01*
X85612545Y-115119165D01*
X85612545Y-115119163D01*
X85526759Y-114950800D01*
X85501250Y-114915690D01*
X85415690Y-114797927D01*
X85282073Y-114664310D01*
X85129199Y-114553240D01*
X84960836Y-114467454D01*
X84821113Y-114422055D01*
X84771751Y-114391805D01*
X78325459Y-107945513D01*
X83299500Y-107945513D01*
X83299500Y-108134486D01*
X83329059Y-108321118D01*
X83387454Y-108500836D01*
X83466982Y-108656917D01*
X83473240Y-108669199D01*
X83584310Y-108822073D01*
X83717927Y-108955690D01*
X83870801Y-109066760D01*
X83904786Y-109084076D01*
X84039169Y-109152548D01*
X84043661Y-109154408D01*
X84043100Y-109155760D01*
X84095379Y-109191514D01*
X84122572Y-109255875D01*
X84110652Y-109324720D01*
X84063404Y-109376192D01*
X84043527Y-109385269D01*
X84043661Y-109385592D01*
X84039169Y-109387451D01*
X83870800Y-109473240D01*
X83813212Y-109515081D01*
X83717927Y-109584310D01*
X83717925Y-109584312D01*
X83717924Y-109584312D01*
X83584312Y-109717924D01*
X83584312Y-109717925D01*
X83584310Y-109717927D01*
X83536610Y-109783579D01*
X83473240Y-109870800D01*
X83387454Y-110039163D01*
X83329059Y-110218881D01*
X83299500Y-110405513D01*
X83299500Y-110594486D01*
X83329059Y-110781118D01*
X83387454Y-110960836D01*
X83411522Y-111008071D01*
X83473240Y-111129199D01*
X83584310Y-111282073D01*
X83717927Y-111415690D01*
X83870801Y-111526760D01*
X83950347Y-111567290D01*
X84039163Y-111612545D01*
X84039165Y-111612545D01*
X84039168Y-111612547D01*
X84135497Y-111643846D01*
X84218881Y-111670940D01*
X84405514Y-111700500D01*
X84405519Y-111700500D01*
X84594486Y-111700500D01*
X84781118Y-111670940D01*
X84960832Y-111612547D01*
X85129199Y-111526760D01*
X85282073Y-111415690D01*
X85415690Y-111282073D01*
X85526760Y-111129199D01*
X85612547Y-110960832D01*
X85670940Y-110781118D01*
X85677926Y-110737011D01*
X85700500Y-110594486D01*
X85700500Y-110405513D01*
X85670940Y-110218881D01*
X85637035Y-110114534D01*
X85612547Y-110039168D01*
X85612545Y-110039165D01*
X85612545Y-110039163D01*
X85547931Y-109912352D01*
X85526760Y-109870801D01*
X85415690Y-109717927D01*
X85282073Y-109584310D01*
X85129199Y-109473240D01*
X85127272Y-109472258D01*
X84960830Y-109387451D01*
X84956339Y-109385592D01*
X84956899Y-109384237D01*
X84904627Y-109348495D01*
X84877428Y-109284137D01*
X84889342Y-109215290D01*
X84936585Y-109163814D01*
X84956472Y-109154730D01*
X84956339Y-109154408D01*
X84960830Y-109152548D01*
X84977783Y-109143910D01*
X85129199Y-109066760D01*
X85282073Y-108955690D01*
X85415690Y-108822073D01*
X85526760Y-108669199D01*
X85612547Y-108500832D01*
X85670940Y-108321118D01*
X85672049Y-108314116D01*
X85700500Y-108134486D01*
X85700500Y-107945513D01*
X85670940Y-107758881D01*
X85612545Y-107579163D01*
X85526759Y-107410800D01*
X85415690Y-107257927D01*
X85282073Y-107124310D01*
X85129199Y-107013240D01*
X84960836Y-106927454D01*
X84781118Y-106869059D01*
X84594486Y-106839500D01*
X84594481Y-106839500D01*
X84405519Y-106839500D01*
X84405514Y-106839500D01*
X84218881Y-106869059D01*
X84039163Y-106927454D01*
X83870800Y-107013240D01*
X83783579Y-107076610D01*
X83717927Y-107124310D01*
X83717925Y-107124312D01*
X83717924Y-107124312D01*
X83584312Y-107257924D01*
X83584312Y-107257925D01*
X83584310Y-107257927D01*
X83536610Y-107323579D01*
X83473240Y-107410800D01*
X83387454Y-107579163D01*
X83329059Y-107758881D01*
X83299500Y-107945513D01*
X78325459Y-107945513D01*
X77036818Y-106656872D01*
X77003333Y-106595549D01*
X77000499Y-106569191D01*
X77000499Y-105039629D01*
X77000498Y-105039623D01*
X76994091Y-104980016D01*
X76943797Y-104845171D01*
X76943793Y-104845164D01*
X76857547Y-104729955D01*
X76857544Y-104729952D01*
X76742335Y-104643706D01*
X76742328Y-104643702D01*
X76714459Y-104633308D01*
X76658525Y-104591437D01*
X76634108Y-104525973D01*
X76648960Y-104457700D01*
X76657460Y-104444260D01*
X76790217Y-104261538D01*
X76894048Y-104057758D01*
X76917117Y-103986759D01*
X76964721Y-103840249D01*
X76964721Y-103840248D01*
X76964722Y-103840245D01*
X77000500Y-103614354D01*
X77000500Y-103385646D01*
X76964722Y-103159755D01*
X76964721Y-103159751D01*
X76964721Y-103159750D01*
X76894049Y-102942244D01*
X76869927Y-102894902D01*
X76790217Y-102738462D01*
X76655786Y-102553434D01*
X76494066Y-102391714D01*
X76409559Y-102330316D01*
X76366896Y-102274988D01*
X76360917Y-102205375D01*
X76393523Y-102143580D01*
X76409556Y-102129685D01*
X76494066Y-102068286D01*
X76655786Y-101906566D01*
X76790217Y-101721538D01*
X76894048Y-101517758D01*
X76964722Y-101300245D01*
X77000500Y-101074354D01*
X77000500Y-100845646D01*
X76964722Y-100619755D01*
X76916166Y-100470317D01*
X76914172Y-100400477D01*
X76950252Y-100340644D01*
X77012953Y-100309816D01*
X77034098Y-100308000D01*
X84836692Y-100308000D01*
X84903731Y-100327685D01*
G37*
%TD.AperFunction*%
%TA.AperFunction,Conductor*%
G36*
X95016946Y-110334840D02*
G01*
X95029525Y-110334301D01*
X95049389Y-110345896D01*
X95071164Y-110353316D01*
X95080438Y-110364018D01*
X95089868Y-110369523D01*
X95110203Y-110398369D01*
X95157713Y-110491611D01*
X95245627Y-110612615D01*
X95269107Y-110678421D01*
X95253281Y-110746475D01*
X95203175Y-110795170D01*
X95145309Y-110809500D01*
X94854073Y-110809500D01*
X94787034Y-110789815D01*
X94741279Y-110737011D01*
X94731335Y-110667853D01*
X94753755Y-110612614D01*
X94841861Y-110491347D01*
X94889234Y-110398371D01*
X94897879Y-110389217D01*
X94902614Y-110377551D01*
X94921414Y-110364297D01*
X94937208Y-110347575D01*
X94949429Y-110344548D01*
X94959720Y-110337294D01*
X94982699Y-110336308D01*
X95005028Y-110330779D01*
X95016946Y-110334840D01*
G37*
%TD.AperFunction*%
%TA.AperFunction,Conductor*%
G36*
X101442539Y-78520185D02*
G01*
X101488294Y-78572989D01*
X101499500Y-78624500D01*
X101499500Y-132875500D01*
X101479815Y-132942539D01*
X101427011Y-132988294D01*
X101375500Y-132999500D01*
X70624500Y-132999500D01*
X70557461Y-132979815D01*
X70511706Y-132927011D01*
X70500500Y-132875500D01*
X70500500Y-108698996D01*
X73499499Y-108698996D01*
X73520131Y-108802715D01*
X73520132Y-108802715D01*
X73524500Y-108824673D01*
X73573531Y-108943046D01*
X73573538Y-108943059D01*
X73644723Y-109049594D01*
X73644726Y-109049598D01*
X74002260Y-109407130D01*
X87777445Y-123182315D01*
X87810930Y-123243638D01*
X87813764Y-123269996D01*
X87813764Y-126007851D01*
X87794079Y-126074890D01*
X87741275Y-126120645D01*
X87672117Y-126130589D01*
X87633472Y-126118338D01*
X87615994Y-126109433D01*
X87615993Y-126109432D01*
X87615992Y-126109432D01*
X87536462Y-126083591D01*
X87391368Y-126036446D01*
X87158097Y-125999500D01*
X87158092Y-125999500D01*
X86921908Y-125999500D01*
X86921903Y-125999500D01*
X86688628Y-126036447D01*
X86615803Y-126060109D01*
X86545962Y-126062104D01*
X86489805Y-126029859D01*
X81872127Y-121412181D01*
X81838642Y-121350858D01*
X81843626Y-121281166D01*
X81885498Y-121225233D01*
X81950962Y-121200816D01*
X81959808Y-121200500D01*
X82014486Y-121200500D01*
X82201118Y-121170940D01*
X82212964Y-121167091D01*
X82380832Y-121112547D01*
X82549199Y-121026760D01*
X82702073Y-120915690D01*
X82835690Y-120782073D01*
X82946760Y-120629199D01*
X83032547Y-120460832D01*
X83090940Y-120281118D01*
X83120500Y-120094486D01*
X83120500Y-119905513D01*
X83090940Y-119718881D01*
X83052475Y-119600500D01*
X83032547Y-119539168D01*
X83032545Y-119539165D01*
X83032545Y-119539163D01*
X82946759Y-119370800D01*
X82835690Y-119217927D01*
X82702073Y-119084310D01*
X82549199Y-118973240D01*
X82380836Y-118887454D01*
X82201118Y-118829059D01*
X82014486Y-118799500D01*
X82014481Y-118799500D01*
X81825519Y-118799500D01*
X81825514Y-118799500D01*
X81638881Y-118829059D01*
X81459163Y-118887454D01*
X81290800Y-118973240D01*
X81203579Y-119036610D01*
X81137927Y-119084310D01*
X81137925Y-119084312D01*
X81137924Y-119084312D01*
X81004312Y-119217924D01*
X81004312Y-119217925D01*
X81004310Y-119217927D01*
X81004306Y-119217933D01*
X80893240Y-119370800D01*
X80807454Y-119539163D01*
X80749059Y-119718881D01*
X80719500Y-119905513D01*
X80719500Y-119960191D01*
X80699815Y-120027230D01*
X80647011Y-120072985D01*
X80577853Y-120082929D01*
X80514297Y-120053904D01*
X80507819Y-120047872D01*
X76994674Y-116534727D01*
X76994667Y-116534721D01*
X76909557Y-116477853D01*
X76867962Y-116431046D01*
X76841698Y-116379500D01*
X76790217Y-116278462D01*
X76655786Y-116093434D01*
X76494066Y-115931714D01*
X76409559Y-115870316D01*
X76366896Y-115814988D01*
X76360917Y-115745375D01*
X76393523Y-115683580D01*
X76409556Y-115669685D01*
X76494066Y-115608286D01*
X76655786Y-115446566D01*
X76790217Y-115261538D01*
X76894048Y-115057758D01*
X76928801Y-114950800D01*
X76964721Y-114840249D01*
X76964721Y-114840248D01*
X76964722Y-114840245D01*
X77000500Y-114614354D01*
X77000500Y-114385646D01*
X76964722Y-114159755D01*
X76964721Y-114159751D01*
X76964721Y-114159750D01*
X76894049Y-113942244D01*
X76790216Y-113738461D01*
X76655786Y-113553434D01*
X76494066Y-113391714D01*
X76309038Y-113257283D01*
X76105255Y-113153450D01*
X75887748Y-113082778D01*
X75718326Y-113055944D01*
X75661854Y-113047000D01*
X75338146Y-113047000D01*
X75262849Y-113058926D01*
X75112253Y-113082778D01*
X75112250Y-113082778D01*
X74894744Y-113153450D01*
X74690961Y-113257283D01*
X74585396Y-113333980D01*
X74505934Y-113391714D01*
X74505932Y-113391716D01*
X74505931Y-113391716D01*
X74344216Y-113553431D01*
X74344216Y-113553432D01*
X74344214Y-113553434D01*
X74330389Y-113572463D01*
X74209783Y-113738461D01*
X74105950Y-113942244D01*
X74035278Y-114159750D01*
X74035278Y-114159753D01*
X73999500Y-114385646D01*
X73999500Y-114614353D01*
X74035278Y-114840246D01*
X74035278Y-114840249D01*
X74105950Y-115057755D01*
X74188482Y-115219733D01*
X74209783Y-115261538D01*
X74344214Y-115446566D01*
X74505934Y-115608286D01*
X74575423Y-115658773D01*
X74590438Y-115669682D01*
X74633103Y-115725013D01*
X74639082Y-115794626D01*
X74606476Y-115856421D01*
X74590438Y-115870318D01*
X74505932Y-115931715D01*
X74344216Y-116093431D01*
X74344216Y-116093432D01*
X74344214Y-116093434D01*
X74324510Y-116120554D01*
X74209783Y-116278461D01*
X74105950Y-116482244D01*
X74035278Y-116699750D01*
X74035278Y-116699753D01*
X73999500Y-116925646D01*
X73999500Y-117154353D01*
X74035278Y-117380246D01*
X74035278Y-117380249D01*
X74105950Y-117597755D01*
X74105952Y-117597758D01*
X74209783Y-117801538D01*
X74342525Y-117984242D01*
X74366005Y-118050046D01*
X74350180Y-118118100D01*
X74300074Y-118166795D01*
X74285541Y-118173308D01*
X74257670Y-118183703D01*
X74257664Y-118183706D01*
X74142455Y-118269952D01*
X74142452Y-118269955D01*
X74056206Y-118385164D01*
X74056202Y-118385171D01*
X74005908Y-118520017D01*
X73999501Y-118579616D01*
X73999500Y-118579635D01*
X73999500Y-120580370D01*
X73999501Y-120580376D01*
X74005908Y-120639983D01*
X74056202Y-120774828D01*
X74056206Y-120774835D01*
X74142452Y-120890044D01*
X74142455Y-120890047D01*
X74257664Y-120976293D01*
X74257671Y-120976297D01*
X74392517Y-121026591D01*
X74392516Y-121026591D01*
X74399444Y-121027335D01*
X74452127Y-121033000D01*
X76547872Y-121032999D01*
X76607483Y-121026591D01*
X76742331Y-120976296D01*
X76857546Y-120890046D01*
X76943796Y-120774831D01*
X76994091Y-120639983D01*
X77000500Y-120580373D01*
X77000499Y-118679806D01*
X77020184Y-118612768D01*
X77072987Y-118567013D01*
X77142146Y-118557069D01*
X77205702Y-118586094D01*
X77212180Y-118592126D01*
X84414976Y-125794922D01*
X84448461Y-125856245D01*
X84443477Y-125925937D01*
X84401605Y-125981870D01*
X84346694Y-126005076D01*
X84148630Y-126036447D01*
X83924003Y-126109433D01*
X83713566Y-126216657D01*
X83624533Y-126281344D01*
X83522490Y-126355483D01*
X83522488Y-126355485D01*
X83522487Y-126355485D01*
X83355484Y-126522488D01*
X83330318Y-126557127D01*
X83274987Y-126599792D01*
X83205374Y-126605771D01*
X83143579Y-126573165D01*
X83129682Y-126557127D01*
X83104517Y-126522490D01*
X82937510Y-126355483D01*
X82746433Y-126216657D01*
X82535996Y-126109433D01*
X82311368Y-126036446D01*
X82078097Y-125999500D01*
X82078092Y-125999500D01*
X81841908Y-125999500D01*
X81841903Y-125999500D01*
X81608631Y-126036446D01*
X81384003Y-126109433D01*
X81173566Y-126216657D01*
X81084533Y-126281344D01*
X80982490Y-126355483D01*
X80982488Y-126355485D01*
X80982487Y-126355485D01*
X80815484Y-126522488D01*
X80790318Y-126557127D01*
X80734987Y-126599792D01*
X80665374Y-126605771D01*
X80603579Y-126573165D01*
X80589682Y-126557127D01*
X80564517Y-126522490D01*
X80397510Y-126355483D01*
X80206433Y-126216657D01*
X79995996Y-126109433D01*
X79771368Y-126036446D01*
X79538097Y-125999500D01*
X79538092Y-125999500D01*
X79301908Y-125999500D01*
X79301903Y-125999500D01*
X79068631Y-126036446D01*
X78844003Y-126109433D01*
X78633566Y-126216657D01*
X78544533Y-126281344D01*
X78442490Y-126355483D01*
X78442488Y-126355485D01*
X78438786Y-126358647D01*
X78437305Y-126356913D01*
X78384110Y-126385791D01*
X78314431Y-126380635D01*
X78258601Y-126338626D01*
X78252511Y-126329656D01*
X78248468Y-126323102D01*
X78222712Y-126281344D01*
X78098656Y-126157288D01*
X78005888Y-126100069D01*
X77949336Y-126065187D01*
X77949331Y-126065185D01*
X77940033Y-126062104D01*
X77782797Y-126010001D01*
X77782795Y-126010000D01*
X77680010Y-125999500D01*
X76079998Y-125999500D01*
X76079981Y-125999501D01*
X75977203Y-126010000D01*
X75977200Y-126010001D01*
X75810668Y-126065185D01*
X75810663Y-126065187D01*
X75661342Y-126157289D01*
X75537289Y-126281342D01*
X75445187Y-126430663D01*
X75445186Y-126430666D01*
X75390001Y-126597203D01*
X75390001Y-126597204D01*
X75390000Y-126597204D01*
X75379500Y-126699983D01*
X75379500Y-128300001D01*
X75379501Y-128300018D01*
X75390000Y-128402796D01*
X75390001Y-128402799D01*
X75420321Y-128494297D01*
X75445186Y-128569334D01*
X75537288Y-128718656D01*
X75661344Y-128842712D01*
X75810666Y-128934814D01*
X75977203Y-128989999D01*
X76079991Y-129000500D01*
X77409191Y-129000499D01*
X77476230Y-129020184D01*
X77496872Y-129036818D01*
X78815325Y-130355272D01*
X78815326Y-130355273D01*
X78815329Y-130355275D01*
X78815331Y-130355277D01*
X78921873Y-130426465D01*
X79040256Y-130475501D01*
X79040260Y-130475501D01*
X79040261Y-130475502D01*
X79165928Y-130500500D01*
X79165931Y-130500500D01*
X93123260Y-130500500D01*
X93207804Y-130483682D01*
X93248933Y-130475501D01*
X93367316Y-130426465D01*
X93473858Y-130355277D01*
X98855277Y-124973858D01*
X98897949Y-124909991D01*
X98897951Y-124909991D01*
X98912255Y-124888581D01*
X98926465Y-124867316D01*
X98975501Y-124748933D01*
X99000500Y-124623258D01*
X99000500Y-122745931D01*
X99000500Y-122745928D01*
X98975502Y-122620261D01*
X98975501Y-122620260D01*
X98975501Y-122620256D01*
X98926465Y-122501873D01*
X98911765Y-122479873D01*
X98855276Y-122395330D01*
X98855271Y-122395324D01*
X98536818Y-122076871D01*
X98503333Y-122015548D01*
X98500499Y-121989190D01*
X98500499Y-120659998D01*
X98500498Y-120659981D01*
X98489999Y-120557203D01*
X98489998Y-120557200D01*
X98458066Y-120460836D01*
X98434814Y-120390666D01*
X98342712Y-120241344D01*
X98218656Y-120117288D01*
X98069334Y-120025186D01*
X97902797Y-119970001D01*
X97902795Y-119970000D01*
X97800010Y-119959500D01*
X96199998Y-119959500D01*
X96199981Y-119959501D01*
X96097203Y-119970000D01*
X96097200Y-119970001D01*
X95930668Y-120025185D01*
X95930663Y-120025187D01*
X95781342Y-120117289D01*
X95657289Y-120241342D01*
X95565187Y-120390663D01*
X95565186Y-120390666D01*
X95510001Y-120557203D01*
X95510001Y-120557204D01*
X95510000Y-120557204D01*
X95499500Y-120659983D01*
X95499500Y-122260001D01*
X95499501Y-122260018D01*
X95510000Y-122362796D01*
X95510001Y-122362799D01*
X95548796Y-122479872D01*
X95565186Y-122529334D01*
X95657288Y-122678656D01*
X95781344Y-122802712D01*
X95823102Y-122828468D01*
X95829656Y-122832511D01*
X95876381Y-122884459D01*
X95887604Y-122953421D01*
X95859760Y-123017504D01*
X95858615Y-123018759D01*
X95858647Y-123018786D01*
X95855485Y-123022487D01*
X95855483Y-123022490D01*
X95795862Y-123104550D01*
X95716657Y-123213566D01*
X95609433Y-123424003D01*
X95536446Y-123648631D01*
X95499500Y-123881902D01*
X95499500Y-124118097D01*
X95536447Y-124351369D01*
X95536447Y-124351372D01*
X95560109Y-124424194D01*
X95562104Y-124494035D01*
X95529859Y-124550193D01*
X91416873Y-128663181D01*
X91355550Y-128696666D01*
X91329192Y-128699500D01*
X88968998Y-128699500D01*
X88901959Y-128679815D01*
X88856204Y-128627011D01*
X88846260Y-128557853D01*
X88875285Y-128494297D01*
X88881317Y-128487819D01*
X88969536Y-128399599D01*
X88969537Y-128399598D01*
X88969541Y-128399594D01*
X89040729Y-128293052D01*
X89048813Y-128273535D01*
X89089765Y-128174669D01*
X89114764Y-128048994D01*
X89114764Y-122885120D01*
X89114764Y-122885117D01*
X89089766Y-122759450D01*
X89089765Y-122759449D01*
X89089765Y-122759445D01*
X89040729Y-122641062D01*
X89026827Y-122620256D01*
X89019596Y-122609433D01*
X88969539Y-122534517D01*
X88969536Y-122534514D01*
X87634893Y-121199872D01*
X87601408Y-121138549D01*
X87606392Y-121068857D01*
X87648264Y-121012924D01*
X87649618Y-121011924D01*
X87782073Y-120915690D01*
X87915690Y-120782073D01*
X88026760Y-120629199D01*
X88112547Y-120460832D01*
X88170940Y-120281118D01*
X88200500Y-120094486D01*
X88200500Y-119905513D01*
X88174902Y-119743898D01*
X88183856Y-119674605D01*
X88228852Y-119621153D01*
X88295604Y-119600513D01*
X88297375Y-119600500D01*
X94614071Y-119600500D01*
X94698615Y-119583682D01*
X94739744Y-119575501D01*
X94858127Y-119526465D01*
X94964669Y-119455277D01*
X99200212Y-115219731D01*
X99261533Y-115186248D01*
X99307285Y-115184941D01*
X99405519Y-115200500D01*
X99405521Y-115200500D01*
X99594486Y-115200500D01*
X99781118Y-115170940D01*
X99960832Y-115112547D01*
X100129199Y-115026760D01*
X100282073Y-114915690D01*
X100415690Y-114782073D01*
X100526760Y-114629199D01*
X100612547Y-114460832D01*
X100670940Y-114281118D01*
X100675059Y-114255113D01*
X100700500Y-114094486D01*
X100700500Y-113905513D01*
X100670940Y-113718881D01*
X100617182Y-113553434D01*
X100612547Y-113539168D01*
X100612545Y-113539165D01*
X100612545Y-113539163D01*
X100549630Y-113415687D01*
X100526760Y-113370801D01*
X100415690Y-113217927D01*
X100282073Y-113084310D01*
X100129199Y-112973240D01*
X100104847Y-112960832D01*
X99960836Y-112887454D01*
X99781118Y-112829059D01*
X99594486Y-112799500D01*
X99594481Y-112799500D01*
X99405519Y-112799500D01*
X99405514Y-112799500D01*
X99218881Y-112829059D01*
X99039163Y-112887454D01*
X98870800Y-112973240D01*
X98783579Y-113036610D01*
X98717927Y-113084310D01*
X98717925Y-113084312D01*
X98717924Y-113084312D01*
X98584312Y-113217924D01*
X98584312Y-113217925D01*
X98584310Y-113217927D01*
X98555716Y-113257283D01*
X98473240Y-113370800D01*
X98387454Y-113539163D01*
X98329059Y-113718881D01*
X98299500Y-113905513D01*
X98299500Y-114094486D01*
X98315057Y-114192709D01*
X98306102Y-114262002D01*
X98280265Y-114299788D01*
X94316873Y-118263181D01*
X94255550Y-118296666D01*
X94229192Y-118299500D01*
X91183099Y-118299500D01*
X91116060Y-118279815D01*
X91070305Y-118227011D01*
X91060361Y-118157853D01*
X91072614Y-118119205D01*
X91112545Y-118040836D01*
X91112545Y-118040835D01*
X91112547Y-118040832D01*
X91170940Y-117861118D01*
X91200500Y-117674486D01*
X91200500Y-117485521D01*
X91200499Y-117485513D01*
X91184941Y-117387286D01*
X91193895Y-117317996D01*
X91219728Y-117280215D01*
X91695276Y-116804669D01*
X91766465Y-116698127D01*
X91815501Y-116579744D01*
X91820854Y-116552828D01*
X91824456Y-116534725D01*
X91824456Y-116534723D01*
X91840500Y-116454071D01*
X91840500Y-113905513D01*
X93219500Y-113905513D01*
X93219500Y-114094486D01*
X93249059Y-114281118D01*
X93307454Y-114460836D01*
X93354537Y-114553240D01*
X93393240Y-114629199D01*
X93504310Y-114782073D01*
X93637927Y-114915690D01*
X93790801Y-115026760D01*
X93851638Y-115057758D01*
X93959163Y-115112545D01*
X93959165Y-115112545D01*
X93959168Y-115112547D01*
X94055497Y-115143846D01*
X94138881Y-115170940D01*
X94325514Y-115200500D01*
X94325519Y-115200500D01*
X94514486Y-115200500D01*
X94701118Y-115170940D01*
X94880832Y-115112547D01*
X95049199Y-115026760D01*
X95202073Y-114915690D01*
X95335690Y-114782073D01*
X95446760Y-114629199D01*
X95532547Y-114460832D01*
X95590940Y-114281118D01*
X95595059Y-114255113D01*
X95620500Y-114094486D01*
X95620500Y-113905513D01*
X95590940Y-113718881D01*
X95537182Y-113553434D01*
X95532547Y-113539168D01*
X95532545Y-113539165D01*
X95532545Y-113539163D01*
X95469630Y-113415687D01*
X95446760Y-113370801D01*
X95335690Y-113217927D01*
X95202073Y-113084310D01*
X95049199Y-112973240D01*
X95024847Y-112960832D01*
X94880836Y-112887454D01*
X94701118Y-112829059D01*
X94514486Y-112799500D01*
X94514481Y-112799500D01*
X94325519Y-112799500D01*
X94325514Y-112799500D01*
X94138881Y-112829059D01*
X93959163Y-112887454D01*
X93790800Y-112973240D01*
X93703579Y-113036610D01*
X93637927Y-113084310D01*
X93637925Y-113084312D01*
X93637924Y-113084312D01*
X93504312Y-113217924D01*
X93504312Y-113217925D01*
X93504310Y-113217927D01*
X93475716Y-113257283D01*
X93393240Y-113370800D01*
X93307454Y-113539163D01*
X93249059Y-113718881D01*
X93219500Y-113905513D01*
X91840500Y-113905513D01*
X91840500Y-111008071D01*
X91842035Y-111002840D01*
X91840952Y-110997499D01*
X91851774Y-110969675D01*
X91860185Y-110941032D01*
X91864828Y-110936113D01*
X91866280Y-110932382D01*
X91891583Y-110907776D01*
X91892693Y-110906969D01*
X91958492Y-110883468D01*
X92026551Y-110899272D01*
X92053291Y-110919583D01*
X93098978Y-111965271D01*
X93098985Y-111965277D01*
X93205525Y-112036464D01*
X93205524Y-112036464D01*
X93240198Y-112050826D01*
X93323910Y-112085501D01*
X93323914Y-112085501D01*
X93323915Y-112085502D01*
X93449582Y-112110500D01*
X93449585Y-112110500D01*
X99557523Y-112110500D01*
X99642067Y-112093682D01*
X99683196Y-112085501D01*
X99801579Y-112036465D01*
X99908121Y-111965277D01*
X100965276Y-110908122D01*
X101000870Y-110854850D01*
X101036464Y-110801581D01*
X101036465Y-110801579D01*
X101085501Y-110683196D01*
X101100456Y-110608013D01*
X101110500Y-110557521D01*
X101110500Y-100975931D01*
X101110500Y-100975928D01*
X101085502Y-100850261D01*
X101085501Y-100850260D01*
X101085501Y-100850256D01*
X101036465Y-100731873D01*
X101034287Y-100728614D01*
X100965277Y-100625331D01*
X100965275Y-100625329D01*
X100965273Y-100625326D01*
X100965272Y-100625325D01*
X98237214Y-97897268D01*
X98203729Y-97835945D01*
X98202422Y-97790188D01*
X98211085Y-97735495D01*
X98220500Y-97676055D01*
X98220500Y-97483945D01*
X98190447Y-97294199D01*
X98140188Y-97139516D01*
X98131083Y-97111493D01*
X98074274Y-97000000D01*
X98043865Y-96940319D01*
X97930945Y-96784898D01*
X97795102Y-96649055D01*
X97639681Y-96536135D01*
X97579119Y-96505277D01*
X97468504Y-96448915D01*
X97403919Y-96427931D01*
X97346243Y-96388494D01*
X97319044Y-96324136D01*
X97330958Y-96255289D01*
X97378202Y-96203813D01*
X97403919Y-96192069D01*
X97468504Y-96171084D01*
X97468506Y-96171082D01*
X97468509Y-96171082D01*
X97639681Y-96083865D01*
X97795102Y-95970945D01*
X97930945Y-95835102D01*
X98043865Y-95679681D01*
X98131082Y-95508509D01*
X98190447Y-95325801D01*
X98220500Y-95136055D01*
X98220500Y-94943945D01*
X98190447Y-94754199D01*
X98131082Y-94571491D01*
X98043865Y-94400319D01*
X97930945Y-94244898D01*
X97795102Y-94109055D01*
X97639681Y-93996135D01*
X97468504Y-93908915D01*
X97403919Y-93887931D01*
X97346243Y-93848494D01*
X97319044Y-93784136D01*
X97330958Y-93715289D01*
X97378202Y-93663813D01*
X97403919Y-93652069D01*
X97468504Y-93631084D01*
X97468506Y-93631082D01*
X97468509Y-93631082D01*
X97639681Y-93543865D01*
X97795102Y-93430945D01*
X97930945Y-93295102D01*
X98043865Y-93139681D01*
X98131082Y-92968509D01*
X98190447Y-92785801D01*
X98220500Y-92596055D01*
X98220500Y-92403945D01*
X98190447Y-92214199D01*
X98131082Y-92031491D01*
X98043865Y-91860319D01*
X97930945Y-91704898D01*
X97795102Y-91569055D01*
X97639681Y-91456135D01*
X97529511Y-91400000D01*
X97468506Y-91368916D01*
X97285802Y-91309553D01*
X97190928Y-91294526D01*
X97096055Y-91279500D01*
X96903945Y-91279500D01*
X96840696Y-91289517D01*
X96714197Y-91309553D01*
X96531493Y-91368916D01*
X96360318Y-91456135D01*
X96301019Y-91499219D01*
X96204898Y-91569055D01*
X96204896Y-91569057D01*
X96204895Y-91569057D01*
X96069057Y-91704895D01*
X96069057Y-91704896D01*
X96069055Y-91704898D01*
X96020560Y-91771645D01*
X95956135Y-91860318D01*
X95868916Y-92031493D01*
X95809553Y-92214197D01*
X95779500Y-92403945D01*
X95779500Y-92596054D01*
X95797577Y-92710188D01*
X95788622Y-92779482D01*
X95762785Y-92817267D01*
X93266873Y-95313181D01*
X93205550Y-95346666D01*
X93179192Y-95349500D01*
X91698071Y-95349500D01*
X91631032Y-95329815D01*
X91597754Y-95298386D01*
X91491966Y-95152781D01*
X91347219Y-95008034D01*
X91347213Y-95008028D01*
X91181613Y-94887715D01*
X91181612Y-94887714D01*
X91181610Y-94887713D01*
X91111767Y-94852126D01*
X90999223Y-94794781D01*
X90804534Y-94731522D01*
X90629995Y-94703878D01*
X90602352Y-94699500D01*
X90397648Y-94699500D01*
X90373329Y-94703351D01*
X90195465Y-94731522D01*
X90000776Y-94794781D01*
X89818386Y-94887715D01*
X89652786Y-95008028D01*
X89508028Y-95152786D01*
X89387715Y-95318386D01*
X89294781Y-95500776D01*
X89231522Y-95695465D01*
X89217805Y-95782074D01*
X89199500Y-95897648D01*
X89199500Y-96102352D01*
X89201115Y-96112547D01*
X89231522Y-96304534D01*
X89294781Y-96499223D01*
X89358691Y-96624653D01*
X89371126Y-96649057D01*
X89387715Y-96681613D01*
X89508028Y-96847213D01*
X89652786Y-96991971D01*
X89818388Y-97112286D01*
X89871828Y-97139516D01*
X89922623Y-97187490D01*
X89939418Y-97255312D01*
X89916880Y-97321446D01*
X89871828Y-97360484D01*
X89818388Y-97387713D01*
X89652786Y-97508028D01*
X89508028Y-97652786D01*
X89387715Y-97818386D01*
X89294781Y-98000776D01*
X89231522Y-98195465D01*
X89199500Y-98397648D01*
X89199500Y-98602351D01*
X89231522Y-98804534D01*
X89294781Y-98999223D01*
X89387715Y-99181613D01*
X89508028Y-99347213D01*
X89652786Y-99491971D01*
X89807749Y-99604556D01*
X89818390Y-99612287D01*
X89934607Y-99671503D01*
X90000776Y-99705218D01*
X90000778Y-99705218D01*
X90000781Y-99705220D01*
X90105137Y-99739127D01*
X90195465Y-99768477D01*
X90296557Y-99784488D01*
X90397648Y-99800500D01*
X90397649Y-99800500D01*
X90602351Y-99800500D01*
X90602352Y-99800500D01*
X90804534Y-99768477D01*
X90999219Y-99705220D01*
X91181610Y-99612287D01*
X91274590Y-99544732D01*
X91347213Y-99491971D01*
X91347215Y-99491968D01*
X91347219Y-99491966D01*
X91491966Y-99347219D01*
X91491968Y-99347215D01*
X91491971Y-99347213D01*
X91544732Y-99274590D01*
X91612287Y-99181610D01*
X91705220Y-98999219D01*
X91768477Y-98804534D01*
X91800500Y-98602352D01*
X91800500Y-98397648D01*
X91768477Y-98195466D01*
X91705220Y-98000781D01*
X91705218Y-98000778D01*
X91705218Y-98000776D01*
X91638244Y-97869334D01*
X91612287Y-97818390D01*
X91552061Y-97735495D01*
X91491971Y-97652786D01*
X91347213Y-97508028D01*
X91181613Y-97387715D01*
X91181612Y-97387714D01*
X91181610Y-97387713D01*
X91128171Y-97360484D01*
X91077376Y-97312510D01*
X91060581Y-97244689D01*
X91083118Y-97178554D01*
X91128172Y-97139515D01*
X91181610Y-97112287D01*
X91286172Y-97036319D01*
X91347213Y-96991971D01*
X91347215Y-96991968D01*
X91347219Y-96991966D01*
X91491966Y-96847219D01*
X91597753Y-96701613D01*
X91653082Y-96658949D01*
X91698071Y-96650500D01*
X93564071Y-96650500D01*
X93648615Y-96633682D01*
X93689744Y-96625501D01*
X93808127Y-96576465D01*
X93812635Y-96573453D01*
X93914669Y-96505277D01*
X95567819Y-94852125D01*
X95629142Y-94818641D01*
X95698833Y-94823625D01*
X95754767Y-94865497D01*
X95779184Y-94930961D01*
X95779500Y-94939807D01*
X95779500Y-95136054D01*
X95809553Y-95325802D01*
X95868916Y-95508506D01*
X95868918Y-95508509D01*
X95956135Y-95679681D01*
X96069055Y-95835102D01*
X96204898Y-95970945D01*
X96360319Y-96083865D01*
X96452165Y-96130663D01*
X96531493Y-96171083D01*
X96596081Y-96192069D01*
X96653756Y-96231506D01*
X96680955Y-96295865D01*
X96669041Y-96364711D01*
X96621797Y-96416187D01*
X96596081Y-96427931D01*
X96531493Y-96448916D01*
X96360318Y-96536135D01*
X96272416Y-96600000D01*
X96204898Y-96649055D01*
X96204896Y-96649057D01*
X96204895Y-96649057D01*
X96069057Y-96784895D01*
X96069057Y-96784896D01*
X96069055Y-96784898D01*
X96023776Y-96847219D01*
X95956135Y-96940318D01*
X95868916Y-97111493D01*
X95809553Y-97294197D01*
X95806653Y-97312510D01*
X95779500Y-97483945D01*
X95779500Y-97676055D01*
X95783736Y-97702797D01*
X95809553Y-97865802D01*
X95868916Y-98048506D01*
X95916916Y-98142710D01*
X95956135Y-98219681D01*
X96069055Y-98375102D01*
X96204898Y-98510945D01*
X96360319Y-98623865D01*
X96531491Y-98711082D01*
X96531493Y-98711083D01*
X96622845Y-98740764D01*
X96714199Y-98770447D01*
X96903945Y-98800500D01*
X96903946Y-98800500D01*
X97096054Y-98800500D01*
X97096055Y-98800500D01*
X97210188Y-98782422D01*
X97279482Y-98791376D01*
X97317268Y-98817214D01*
X99177873Y-100677819D01*
X99211358Y-100739142D01*
X99206374Y-100808834D01*
X99164502Y-100864767D01*
X99099038Y-100889184D01*
X99090192Y-100889500D01*
X98480808Y-100889500D01*
X98413769Y-100869815D01*
X98393127Y-100853181D01*
X98074674Y-100534727D01*
X98074673Y-100534726D01*
X97978280Y-100470319D01*
X97968127Y-100463535D01*
X97849744Y-100414499D01*
X97849738Y-100414497D01*
X97724071Y-100389500D01*
X97724069Y-100389500D01*
X88494462Y-100389500D01*
X88427423Y-100369815D01*
X88406781Y-100353181D01*
X87205828Y-99152227D01*
X87205827Y-99152226D01*
X87099288Y-99081040D01*
X87099281Y-99081035D01*
X86980898Y-99031999D01*
X86980892Y-99031997D01*
X86855225Y-99007000D01*
X86855223Y-99007000D01*
X85478308Y-99007000D01*
X85411269Y-98987315D01*
X85390627Y-98970681D01*
X84931627Y-98511681D01*
X84898142Y-98450358D01*
X84903126Y-98380666D01*
X84944998Y-98324733D01*
X85010462Y-98300316D01*
X85019308Y-98300000D01*
X85102317Y-98300000D01*
X85304417Y-98267990D01*
X85499031Y-98204755D01*
X85681349Y-98111859D01*
X85725921Y-98079474D01*
X85046446Y-97400000D01*
X85052661Y-97400000D01*
X85154394Y-97372741D01*
X85245606Y-97320080D01*
X85320080Y-97245606D01*
X85372741Y-97154394D01*
X85400000Y-97052661D01*
X85400000Y-97046447D01*
X86079474Y-97725921D01*
X86111859Y-97681349D01*
X86204755Y-97499031D01*
X86267990Y-97304417D01*
X86300000Y-97102317D01*
X86300000Y-96897682D01*
X86267990Y-96695582D01*
X86204755Y-96500968D01*
X86111859Y-96318650D01*
X86079474Y-96274077D01*
X86079474Y-96274076D01*
X85400000Y-96953551D01*
X85400000Y-96947339D01*
X85372741Y-96845606D01*
X85320080Y-96754394D01*
X85245606Y-96679920D01*
X85154394Y-96627259D01*
X85052661Y-96600000D01*
X85046446Y-96600000D01*
X85725922Y-95920524D01*
X85725921Y-95920523D01*
X85681359Y-95888147D01*
X85681350Y-95888141D01*
X85499031Y-95795244D01*
X85304417Y-95732009D01*
X85102317Y-95700000D01*
X84897683Y-95700000D01*
X84695582Y-95732009D01*
X84500968Y-95795244D01*
X84318644Y-95888143D01*
X84274077Y-95920523D01*
X84274077Y-95920524D01*
X84953554Y-96600000D01*
X84947339Y-96600000D01*
X84845606Y-96627259D01*
X84754394Y-96679920D01*
X84679920Y-96754394D01*
X84627259Y-96845606D01*
X84600000Y-96947339D01*
X84600000Y-96953553D01*
X83920524Y-96274077D01*
X83882719Y-96277053D01*
X83814341Y-96262689D01*
X83764584Y-96213638D01*
X83762110Y-96208949D01*
X83758101Y-96200942D01*
X83734814Y-96130666D01*
X83642712Y-95981344D01*
X83518656Y-95857288D01*
X83396714Y-95782074D01*
X83369336Y-95765187D01*
X83369331Y-95765185D01*
X83367862Y-95764698D01*
X83202797Y-95710001D01*
X83202795Y-95710000D01*
X83100010Y-95699500D01*
X81899998Y-95699500D01*
X81899981Y-95699501D01*
X81797203Y-95710000D01*
X81797200Y-95710001D01*
X81630668Y-95765185D01*
X81630663Y-95765187D01*
X81481342Y-95857289D01*
X81357289Y-95981342D01*
X81265187Y-96130663D01*
X81265186Y-96130666D01*
X81220835Y-96264505D01*
X81181064Y-96321949D01*
X81116549Y-96348772D01*
X81103131Y-96349500D01*
X79360807Y-96349500D01*
X79293768Y-96329815D01*
X79273126Y-96313181D01*
X78259733Y-95299788D01*
X78226248Y-95238465D01*
X78224941Y-95192714D01*
X78240500Y-95094481D01*
X78240500Y-94905519D01*
X78240500Y-94905513D01*
X78220108Y-94776767D01*
X78229062Y-94707474D01*
X78254897Y-94669691D01*
X81787771Y-91136819D01*
X81849094Y-91103334D01*
X81875452Y-91100500D01*
X82980005Y-91100500D01*
X82980010Y-91100500D01*
X83082798Y-91089999D01*
X83249335Y-91034814D01*
X83398656Y-90942712D01*
X83522712Y-90818656D01*
X83605521Y-90684401D01*
X83657467Y-90637679D01*
X83711058Y-90625500D01*
X83721607Y-90625500D01*
X83721608Y-90625499D01*
X83842452Y-90601463D01*
X83956286Y-90554311D01*
X84058733Y-90485858D01*
X84145858Y-90398733D01*
X84214311Y-90296286D01*
X84261463Y-90182452D01*
X84285500Y-90061606D01*
X84285500Y-89938394D01*
X84261463Y-89817548D01*
X84214311Y-89703714D01*
X84214310Y-89703713D01*
X84214307Y-89703707D01*
X84145858Y-89601267D01*
X84145855Y-89601263D01*
X84058736Y-89514144D01*
X84058732Y-89514141D01*
X83956292Y-89445692D01*
X83956283Y-89445687D01*
X83842454Y-89398538D01*
X83842456Y-89398538D01*
X83842452Y-89398537D01*
X83842449Y-89398536D01*
X83842445Y-89398535D01*
X83780308Y-89386175D01*
X83718397Y-89353789D01*
X83683823Y-89293073D01*
X83680500Y-89264558D01*
X83680500Y-88599995D01*
X83680499Y-88599982D01*
X83669999Y-88497203D01*
X83648061Y-88430999D01*
X83614814Y-88330665D01*
X83522712Y-88181344D01*
X83398656Y-88057288D01*
X83249335Y-87965186D01*
X83082798Y-87910001D01*
X83082796Y-87910000D01*
X82980017Y-87899500D01*
X82980010Y-87899500D01*
X81179990Y-87899500D01*
X81179982Y-87899500D01*
X81077203Y-87910000D01*
X81077202Y-87910001D01*
X80994669Y-87937349D01*
X80910667Y-87965185D01*
X80910662Y-87965187D01*
X80761342Y-88057289D01*
X80637289Y-88181342D01*
X80545187Y-88330662D01*
X80545186Y-88330665D01*
X80490001Y-88497202D01*
X80490001Y-88497203D01*
X80490000Y-88497203D01*
X80479500Y-88599982D01*
X80479500Y-90400017D01*
X80490001Y-90502799D01*
X80506415Y-90552333D01*
X80508817Y-90622161D01*
X80476390Y-90679018D01*
X77370309Y-93785099D01*
X77308986Y-93818584D01*
X77263230Y-93819891D01*
X77134486Y-93799500D01*
X77134481Y-93799500D01*
X76945519Y-93799500D01*
X76945514Y-93799500D01*
X76758881Y-93829059D01*
X76579163Y-93887454D01*
X76410800Y-93973240D01*
X76323579Y-94036610D01*
X76257927Y-94084310D01*
X76257925Y-94084312D01*
X76257924Y-94084312D01*
X76124312Y-94217924D01*
X76124312Y-94217925D01*
X76124310Y-94217927D01*
X76076610Y-94283579D01*
X76013240Y-94370800D01*
X75927454Y-94539163D01*
X75869059Y-94718881D01*
X75839500Y-94905513D01*
X75839500Y-95094486D01*
X75869059Y-95281118D01*
X75927454Y-95460836D01*
X76013240Y-95629199D01*
X76124310Y-95782073D01*
X76257927Y-95915690D01*
X76410801Y-96026760D01*
X76490347Y-96067290D01*
X76579163Y-96112545D01*
X76579165Y-96112545D01*
X76579168Y-96112547D01*
X76675497Y-96143846D01*
X76758881Y-96170940D01*
X76945514Y-96200500D01*
X76945519Y-96200500D01*
X77134479Y-96200500D01*
X77134481Y-96200500D01*
X77232711Y-96184941D01*
X77302001Y-96193895D01*
X77339788Y-96219733D01*
X78534724Y-97414669D01*
X78604000Y-97483945D01*
X78625332Y-97505277D01*
X78731866Y-97576461D01*
X78731872Y-97576464D01*
X78731873Y-97576465D01*
X78850256Y-97625501D01*
X78850260Y-97625501D01*
X78850261Y-97625502D01*
X78975928Y-97650500D01*
X78975931Y-97650500D01*
X81103130Y-97650500D01*
X81170169Y-97670185D01*
X81215924Y-97722989D01*
X81220836Y-97735495D01*
X81265186Y-97869334D01*
X81357288Y-98018656D01*
X81481344Y-98142712D01*
X81630666Y-98234814D01*
X81797203Y-98289999D01*
X81899991Y-98300500D01*
X82829191Y-98300499D01*
X82896230Y-98320183D01*
X82916872Y-98336818D01*
X83375373Y-98795319D01*
X83408858Y-98856642D01*
X83403874Y-98926334D01*
X83362002Y-98982267D01*
X83296538Y-99006684D01*
X83287692Y-99007000D01*
X74848916Y-99007000D01*
X74723248Y-99031997D01*
X74723238Y-99032000D01*
X74674207Y-99052310D01*
X74604868Y-99081030D01*
X74604850Y-99081040D01*
X74498319Y-99152221D01*
X74498312Y-99152227D01*
X73644726Y-100005813D01*
X73573534Y-100112361D01*
X73524499Y-100230742D01*
X73524497Y-100230748D01*
X73499500Y-100356415D01*
X73499500Y-100356418D01*
X73499500Y-108698994D01*
X73499500Y-108698996D01*
X73499499Y-108698996D01*
X70500500Y-108698996D01*
X70500500Y-90643311D01*
X70520185Y-90576272D01*
X70572989Y-90530517D01*
X70642147Y-90520573D01*
X70705703Y-90549598D01*
X70712181Y-90555630D01*
X70877345Y-90720794D01*
X70877350Y-90720798D01*
X71018005Y-90822989D01*
X71081155Y-90868870D01*
X71224184Y-90941747D01*
X71305616Y-90983239D01*
X71305618Y-90983239D01*
X71305621Y-90983241D01*
X71545215Y-91061090D01*
X71794038Y-91100500D01*
X71794039Y-91100500D01*
X72045961Y-91100500D01*
X72045962Y-91100500D01*
X72294785Y-91061090D01*
X72534379Y-90983241D01*
X72758845Y-90868870D01*
X72843408Y-90807431D01*
X72889173Y-90774182D01*
X72954979Y-90750702D01*
X72962058Y-90750500D01*
X74990192Y-90750500D01*
X75057231Y-90770185D01*
X75102986Y-90822989D01*
X75112930Y-90892147D01*
X75083905Y-90955703D01*
X75077873Y-90962181D01*
X72259787Y-93780265D01*
X72198464Y-93813750D01*
X72152708Y-93815057D01*
X72054486Y-93799500D01*
X72054481Y-93799500D01*
X71865519Y-93799500D01*
X71865514Y-93799500D01*
X71678881Y-93829059D01*
X71499163Y-93887454D01*
X71330800Y-93973240D01*
X71243579Y-94036610D01*
X71177927Y-94084310D01*
X71177925Y-94084312D01*
X71177924Y-94084312D01*
X71044312Y-94217924D01*
X71044312Y-94217925D01*
X71044310Y-94217927D01*
X70996610Y-94283579D01*
X70933240Y-94370800D01*
X70847454Y-94539163D01*
X70789059Y-94718881D01*
X70759500Y-94905513D01*
X70759500Y-95094486D01*
X70789059Y-95281118D01*
X70847454Y-95460836D01*
X70933240Y-95629199D01*
X71044310Y-95782073D01*
X71177927Y-95915690D01*
X71330801Y-96026760D01*
X71410347Y-96067290D01*
X71499163Y-96112545D01*
X71499165Y-96112545D01*
X71499168Y-96112547D01*
X71595497Y-96143846D01*
X71678881Y-96170940D01*
X71865514Y-96200500D01*
X71865519Y-96200500D01*
X72054486Y-96200500D01*
X72241118Y-96170940D01*
X72420832Y-96112547D01*
X72589199Y-96026760D01*
X72742073Y-95915690D01*
X72875690Y-95782073D01*
X72986760Y-95629199D01*
X73072547Y-95460832D01*
X73130940Y-95281118D01*
X73135059Y-95255113D01*
X73160500Y-95094486D01*
X73160500Y-94905521D01*
X73157680Y-94887715D01*
X73144941Y-94807287D01*
X73153895Y-94737997D01*
X73179730Y-94700214D01*
X83043126Y-84836819D01*
X83070053Y-84822115D01*
X83095872Y-84805523D01*
X83102072Y-84804631D01*
X83104449Y-84803334D01*
X83130807Y-84800500D01*
X83195039Y-84800500D01*
X83262078Y-84820185D01*
X83307833Y-84872989D01*
X83317777Y-84942147D01*
X83305524Y-84980795D01*
X83295244Y-85000968D01*
X83232009Y-85195582D01*
X83200000Y-85397682D01*
X83200000Y-85602317D01*
X83232009Y-85804417D01*
X83295244Y-85999031D01*
X83388141Y-86181350D01*
X83388147Y-86181359D01*
X83420523Y-86225921D01*
X83420524Y-86225922D01*
X84100000Y-85546446D01*
X84100000Y-85552661D01*
X84127259Y-85654394D01*
X84179920Y-85745606D01*
X84254394Y-85820080D01*
X84345606Y-85872741D01*
X84447339Y-85900000D01*
X84453553Y-85900000D01*
X83774076Y-86579474D01*
X83818650Y-86611859D01*
X84000968Y-86704755D01*
X84195582Y-86767990D01*
X84397683Y-86800000D01*
X84602317Y-86800000D01*
X84804417Y-86767990D01*
X84999031Y-86704755D01*
X85181349Y-86611859D01*
X85225921Y-86579474D01*
X84546447Y-85900000D01*
X84552661Y-85900000D01*
X84654394Y-85872741D01*
X84745606Y-85820080D01*
X84820080Y-85745606D01*
X84872741Y-85654394D01*
X84900000Y-85552661D01*
X84900000Y-85546447D01*
X85579474Y-86225921D01*
X85611859Y-86181349D01*
X85704755Y-85999031D01*
X85767990Y-85804417D01*
X85800000Y-85602317D01*
X85800000Y-85397682D01*
X85767990Y-85195582D01*
X85704755Y-85000968D01*
X85627280Y-84848917D01*
X85614384Y-84780248D01*
X85640660Y-84715508D01*
X85668872Y-84689522D01*
X85720125Y-84655277D01*
X86155277Y-84220125D01*
X86226465Y-84113583D01*
X86246974Y-84064069D01*
X86275501Y-83995200D01*
X86290259Y-83921009D01*
X86300500Y-83869527D01*
X86300500Y-82130472D01*
X86275502Y-82004805D01*
X86275501Y-82004804D01*
X86275501Y-82004800D01*
X86226465Y-81886417D01*
X86196196Y-81841116D01*
X86196195Y-81841114D01*
X86196194Y-81841112D01*
X86155278Y-81779876D01*
X86155272Y-81779869D01*
X85547583Y-81172181D01*
X85514098Y-81110858D01*
X85519082Y-81041167D01*
X85560953Y-80985233D01*
X85626418Y-80960816D01*
X85635264Y-80960500D01*
X92549853Y-80960500D01*
X92616892Y-80980185D01*
X92637534Y-80996819D01*
X95149979Y-83509264D01*
X95131592Y-83519881D01*
X95019881Y-83631592D01*
X94940889Y-83768409D01*
X94935387Y-83788941D01*
X94277340Y-83130894D01*
X94217084Y-83213830D01*
X94109897Y-83424197D01*
X94036934Y-83648752D01*
X94000000Y-83881947D01*
X94000000Y-83975500D01*
X93980315Y-84042539D01*
X93927511Y-84088294D01*
X93876000Y-84099500D01*
X92551578Y-84099500D01*
X92357176Y-84130290D01*
X92357171Y-84130291D01*
X92318945Y-84142711D01*
X92318946Y-84142712D01*
X92169970Y-84191117D01*
X91994594Y-84280476D01*
X91903741Y-84346485D01*
X91835354Y-84396172D01*
X91835352Y-84396174D01*
X91835351Y-84396174D01*
X87685354Y-88546172D01*
X86384110Y-89847414D01*
X86352727Y-89870216D01*
X86318386Y-89887714D01*
X86152786Y-90008028D01*
X86008028Y-90152786D01*
X85887715Y-90318386D01*
X85794781Y-90500776D01*
X85731522Y-90695465D01*
X85699500Y-90897648D01*
X85699500Y-91102351D01*
X85731522Y-91304534D01*
X85794781Y-91499223D01*
X85832943Y-91574118D01*
X85887710Y-91681605D01*
X85887715Y-91681613D01*
X86008028Y-91847213D01*
X86152786Y-91991971D01*
X86273226Y-92079474D01*
X86318390Y-92112287D01*
X86434607Y-92171503D01*
X86500776Y-92205218D01*
X86500778Y-92205218D01*
X86500781Y-92205220D01*
X86528416Y-92214199D01*
X86695465Y-92268477D01*
X86796557Y-92284488D01*
X86897648Y-92300500D01*
X86897649Y-92300500D01*
X87102351Y-92300500D01*
X87102352Y-92300500D01*
X87304534Y-92268477D01*
X87499219Y-92205220D01*
X87681610Y-92112287D01*
X87774590Y-92044732D01*
X87847213Y-91991971D01*
X87847215Y-91991968D01*
X87847219Y-91991966D01*
X87991966Y-91847219D01*
X88112287Y-91681610D01*
X88129781Y-91647274D01*
X88131165Y-91645369D01*
X88131431Y-91644147D01*
X88152576Y-91615896D01*
X88165852Y-91602620D01*
X88227170Y-91569136D01*
X88296862Y-91574118D01*
X88352797Y-91615987D01*
X88364018Y-91634006D01*
X88388141Y-91681350D01*
X88388147Y-91681359D01*
X88420523Y-91725921D01*
X88420524Y-91725922D01*
X89100000Y-91046446D01*
X89100000Y-91052661D01*
X89127259Y-91154394D01*
X89179920Y-91245606D01*
X89254394Y-91320080D01*
X89345606Y-91372741D01*
X89447339Y-91400000D01*
X89453553Y-91400000D01*
X88774076Y-92079474D01*
X88818650Y-92111859D01*
X89000968Y-92204755D01*
X89195582Y-92267990D01*
X89397683Y-92300000D01*
X89602317Y-92300000D01*
X89804417Y-92267990D01*
X89999031Y-92204755D01*
X90181349Y-92111859D01*
X90225921Y-92079474D01*
X89546447Y-91400000D01*
X89552661Y-91400000D01*
X89654394Y-91372741D01*
X89745606Y-91320080D01*
X89820080Y-91245606D01*
X89872741Y-91154394D01*
X89900000Y-91052661D01*
X89900000Y-91046447D01*
X90579474Y-91725921D01*
X90611859Y-91681349D01*
X90704755Y-91499031D01*
X90767990Y-91304417D01*
X90800000Y-91102317D01*
X90800000Y-90897681D01*
X90799400Y-90893892D01*
X90808358Y-90824599D01*
X90853357Y-90771149D01*
X90920109Y-90750513D01*
X90921874Y-90750500D01*
X92007611Y-90750500D01*
X92202015Y-90719709D01*
X92389215Y-90658884D01*
X92564594Y-90569524D01*
X92723835Y-90453828D01*
X96540844Y-86636819D01*
X96602167Y-86603334D01*
X96628525Y-86600500D01*
X96788422Y-86600500D01*
X96982826Y-86569709D01*
X97170025Y-86508884D01*
X97345405Y-86419524D01*
X97504646Y-86303828D01*
X97643828Y-86164646D01*
X97759524Y-86005405D01*
X97848884Y-85830025D01*
X97909709Y-85642826D01*
X97915684Y-85605102D01*
X97945613Y-85541967D01*
X98004924Y-85505035D01*
X98038157Y-85500499D01*
X98840002Y-85500499D01*
X98840008Y-85500499D01*
X98942797Y-85489999D01*
X99109334Y-85434814D01*
X99258656Y-85342712D01*
X99382712Y-85218656D01*
X99474814Y-85069334D01*
X99529999Y-84902797D01*
X99540500Y-84800009D01*
X99540499Y-83199992D01*
X99529999Y-83097203D01*
X99474814Y-82930666D01*
X99382712Y-82781344D01*
X99258656Y-82657288D01*
X99165888Y-82600069D01*
X99109336Y-82565187D01*
X99109331Y-82565185D01*
X99107862Y-82564698D01*
X98942797Y-82510001D01*
X98942795Y-82510000D01*
X98840016Y-82499500D01*
X98840009Y-82499500D01*
X97728525Y-82499500D01*
X97661486Y-82479815D01*
X97640844Y-82463181D01*
X93933837Y-78756174D01*
X93933833Y-78756171D01*
X93890679Y-78724817D01*
X93848014Y-78669488D01*
X93842035Y-78599875D01*
X93874641Y-78538080D01*
X93935479Y-78503723D01*
X93963565Y-78500500D01*
X101375500Y-78500500D01*
X101442539Y-78520185D01*
G37*
%TD.AperFunction*%
%TD*%
M02*
