M48
; DRILL file KiCad 10.0.3 date 2026-05-22T04:08:44
; FORMAT={-:-/ absolute / metric / decimal}
; #@! TF.CreationDate,2026-05-22T04:08:44-07:00
; #@! TF.GenerationSoftware,Kicad,Pcbnew,10.0.3
; #@! TF.FileFunction,Plated,1,2,PTH
FMAT,2
METRIC
; #@! TA.AperFunction,Plated,PTH,ComponentDrill
T1C0.700
; #@! TA.AperFunction,Plated,PTH,ComponentDrill
T2C0.800
; #@! TA.AperFunction,Plated,PTH,ComponentDrill
T3C0.900
; #@! TA.AperFunction,Plated,PTH,ComponentDrill
T4C1.100
; #@! TA.AperFunction,Plated,PTH,ComponentDrill
T5C1.200
%
G90
G05
T1
X71.96Y-95.0
X77.04Y-95.0
X81.92Y-120.0
X84.5Y-102.96
X84.5Y-108.04
X84.5Y-110.5
X84.5Y-115.58
X87.0Y-120.0
X90.0Y-112.5
X90.0Y-117.58
X94.42Y-114.0
X99.5Y-114.0
T2
X82.5Y-97.0
X84.5Y-83.0
X84.5Y-85.5
X85.0Y-97.0
X87.0Y-91.0
X89.5Y-91.0
X90.5Y-96.0
X90.5Y-98.5
X91.19Y-102.19
X91.19Y-109.81
X93.73Y-102.19
X93.73Y-109.81
X96.27Y-102.19
X96.27Y-109.81
X97.0Y-92.5
X97.0Y-95.04
X97.0Y-97.58
X98.81Y-102.19
X98.81Y-109.81
T3
X75.5Y-81.46
X75.5Y-84.0
T4
X71.92Y-89.5
X75.5Y-100.96
X75.5Y-103.5
X75.5Y-106.04
X75.5Y-114.5
X75.5Y-117.04
X75.5Y-119.58
X82.08Y-89.5
T5
X76.88Y-127.5
X79.42Y-127.5
X81.96Y-127.5
X84.5Y-127.5
X87.04Y-127.5
X95.5Y-84.0
X97.0Y-121.46
X97.0Y-124.0
X98.04Y-84.0
M30
