%TF.GenerationSoftware,KiCad,Pcbnew,10.0.3*%
%TF.CreationDate,2026-05-22T04:08:24-07:00*%
%TF.ProjectId,PCBProject,50434250-726f-46a6-9563-742e6b696361,rev?*%
%TF.SameCoordinates,Original*%
%TF.FileFunction,Copper,L2,Bot*%
%TF.FilePolarity,Positive*%
%FSLAX46Y46*%
G04 Gerber Fmt 4.6, Leading zero omitted, Abs format (unit mm)*
G04 Created by KiCad (PCBNEW 10.0.3) date 2026-05-22 04:08:24*
%MOMM*%
%LPD*%
G01*
G04 APERTURE LIST*
G04 Aperture macros list*
%AMRoundRect*
0 Rectangle with rounded corners*
0 $1 Rounding radius*
0 $2 $3 $4 $5 $6 $7 $8 $9 X,Y pos of 4 corners*
0 Add a 4 corners polygon primitive as box body*
4,1,4,$2,$3,$4,$5,$6,$7,$8,$9,$2,$3,0*
0 Add four circle primitives for the rounded corners*
1,1,$1+$1,$2,$3*
1,1,$1+$1,$4,$5*
1,1,$1+$1,$6,$7*
1,1,$1+$1,$8,$9*
0 Add four rect primitives between the rounded corners*
20,1,$1+$1,$2,$3,$4,$5,0*
20,1,$1+$1,$4,$5,$6,$7,0*
20,1,$1+$1,$6,$7,$8,$9,0*
20,1,$1+$1,$8,$9,$2,$3,0*%
G04 Aperture macros list end*
%TA.AperFunction,ComponentPad*%
%ADD10RoundRect,0.250000X-0.750000X0.750000X-0.750000X-0.750000X0.750000X-0.750000X0.750000X0.750000X0*%
%TD*%
%TA.AperFunction,ComponentPad*%
%ADD11C,2.000000*%
%TD*%
%TA.AperFunction,ComponentPad*%
%ADD12RoundRect,0.249999X0.850001X0.850001X-0.850001X0.850001X-0.850001X-0.850001X0.850001X-0.850001X0*%
%TD*%
%TA.AperFunction,ComponentPad*%
%ADD13C,2.200000*%
%TD*%
%TA.AperFunction,ComponentPad*%
%ADD14RoundRect,0.250000X-0.750000X-0.750000X0.750000X-0.750000X0.750000X0.750000X-0.750000X0.750000X0*%
%TD*%
%TA.AperFunction,ComponentPad*%
%ADD15C,1.800000*%
%TD*%
%TA.AperFunction,ComponentPad*%
%ADD16R,1.800000X1.800000*%
%TD*%
%TA.AperFunction,ComponentPad*%
%ADD17C,1.440000*%
%TD*%
%TA.AperFunction,ComponentPad*%
%ADD18RoundRect,0.250000X0.750000X0.750000X-0.750000X0.750000X-0.750000X-0.750000X0.750000X-0.750000X0*%
%TD*%
%TA.AperFunction,ComponentPad*%
%ADD19RoundRect,0.250000X-0.550000X0.550000X-0.550000X-0.550000X0.550000X-0.550000X0.550000X0.550000X0*%
%TD*%
%TA.AperFunction,ComponentPad*%
%ADD20C,1.600000*%
%TD*%
%TA.AperFunction,ComponentPad*%
%ADD21RoundRect,0.250000X-0.550000X-0.550000X0.550000X-0.550000X0.550000X0.550000X-0.550000X0.550000X0*%
%TD*%
%TA.AperFunction,ComponentPad*%
%ADD22C,1.400000*%
%TD*%
%TA.AperFunction,ComponentPad*%
%ADD23O,2.000000X1.905000*%
%TD*%
%TA.AperFunction,ComponentPad*%
%ADD24R,2.000000X1.905000*%
%TD*%
%TA.AperFunction,Conductor*%
%ADD25C,0.300000*%
%TD*%
G04 APERTURE END LIST*
D10*
%TO.P,D4,1,K_1*%
%TO.N,Net-(D4-K)*%
X97000000Y-121460000D03*
D11*
%TO.P,D4,2,A_2*%
%TO.N,Net-(D4-A)*%
X97000000Y-124000000D03*
%TD*%
D12*
%TO.P,D2,1,K_1*%
%TO.N,Input*%
X82080000Y-89500000D03*
D13*
%TO.P,D2,2,A_2*%
%TO.N,Net-(BT2-+)*%
X71920000Y-89500000D03*
%TD*%
D14*
%TO.P,T1,1,AA_1*%
%TO.N,Net-(D4-K)*%
X76880000Y-127500000D03*
D11*
%TO.P,T1,2,AB_2*%
%TO.N,Net-(D4-A)*%
X79420000Y-127500000D03*
%TO.P,T1,3,SA_3*%
%TO.N,Output 1*%
X81960000Y-127500000D03*
%TO.P,T1,4,SC_4*%
%TO.N,Input*%
X84500000Y-127500000D03*
%TO.P,T1,5,SB_5*%
%TO.N,Output 3*%
X87040000Y-127500000D03*
%TD*%
D15*
%TO.P,D3,2,A_2*%
%TO.N,Net-(D3-A)*%
X75500000Y-81460000D03*
D16*
%TO.P,D3,1,K_1*%
%TO.N,GND*%
X75500000Y-84000000D03*
%TD*%
D17*
%TO.P,RV1,1,1_1*%
%TO.N,Net-(U1-CT)*%
X97000000Y-92500000D03*
%TO.P,RV1,2,2_2*%
%TO.N,Net-(R2-Pad1)*%
X97000000Y-95040000D03*
%TO.P,RV1,3,3_3*%
X97000000Y-97580000D03*
%TD*%
D11*
%TO.P,BT2,2,-_2*%
%TO.N,GND*%
X95500000Y-84000000D03*
D18*
%TO.P,BT2,1,+_1*%
%TO.N,Net-(BT2-+)*%
X98040000Y-84000000D03*
%TD*%
D19*
%TO.P,C2,1*%
%TO.N,Net-(BT2-+)*%
X84500000Y-83000000D03*
D20*
%TO.P,C2,2*%
%TO.N,GND*%
X84500000Y-85500000D03*
%TD*%
D21*
%TO.P,C4,1*%
%TO.N,Input*%
X82500000Y-97000000D03*
D20*
%TO.P,C4,2*%
%TO.N,GND*%
X85000000Y-97000000D03*
%TD*%
%TO.P,U1,8,VB_8*%
%TO.N,Input*%
X98810000Y-109810000D03*
%TO.P,U1,7,HO_7*%
%TO.N,Net-(U1-HO)*%
X96270000Y-109810000D03*
%TO.P,U1,6,VS_6*%
%TO.N,GND*%
X93730000Y-109810000D03*
%TO.P,U1,5,LO_5*%
%TO.N,Net-(U1-LO)*%
X91190000Y-109810000D03*
%TO.P,U1,4,COM_4*%
%TO.N,Net-(U1-COM)*%
X91190000Y-102190000D03*
%TO.P,U1,3,CT_3*%
%TO.N,Net-(U1-CT)*%
X93730000Y-102190000D03*
%TO.P,U1,2,RT_2*%
%TO.N,Net-(U1-RT)*%
X96270000Y-102190000D03*
D19*
%TO.P,U1,1,VCC_1*%
%TO.N,Input*%
X98810000Y-102190000D03*
%TD*%
D22*
%TO.P,R6,2*%
%TO.N,Net-(Q2-G)*%
X90000000Y-112500000D03*
%TO.P,R6,1*%
%TO.N,Net-(U1-LO)*%
X90000000Y-117580000D03*
%TD*%
%TO.P,R5,2*%
%TO.N,Net-(Q1-G)*%
X99500000Y-114000000D03*
%TO.P,R5,1*%
%TO.N,Net-(U1-HO)*%
X94420000Y-114000000D03*
%TD*%
%TO.P,R4,2*%
%TO.N,Net-(R3-Pad2)*%
X87000000Y-120000000D03*
%TO.P,R4,1*%
%TO.N,Net-(Q2-G)*%
X81920000Y-120000000D03*
%TD*%
%TO.P,R3,2*%
%TO.N,Net-(R3-Pad2)*%
X84500000Y-110500000D03*
%TO.P,R3,1*%
%TO.N,Net-(Q1-G)*%
X84500000Y-115580000D03*
%TD*%
%TO.P,R2,2*%
%TO.N,Net-(U1-RT)*%
X84500000Y-108040000D03*
%TO.P,R2,1*%
%TO.N,Net-(R2-Pad1)*%
X84500000Y-102960000D03*
%TD*%
%TO.P,R1,2*%
%TO.N,Input*%
X77040000Y-95000000D03*
%TO.P,R1,1*%
%TO.N,Net-(D3-A)*%
X71960000Y-95000000D03*
%TD*%
D23*
%TO.P,Q2,3,S_3*%
%TO.N,Net-(Q1-S)*%
X75500000Y-114500000D03*
%TO.P,Q2,2,D_2*%
%TO.N,Output 3*%
X75500000Y-117040000D03*
D24*
%TO.P,Q2,1,G_1*%
%TO.N,Net-(Q2-G)*%
X75500000Y-119580000D03*
%TD*%
D23*
%TO.P,Q1,3,S_3*%
%TO.N,Net-(Q1-S)*%
X75500000Y-100960000D03*
%TO.P,Q1,2,D_2*%
%TO.N,Output 1*%
X75500000Y-103500000D03*
D24*
%TO.P,Q1,1,G_1*%
%TO.N,Net-(Q1-G)*%
X75500000Y-106040000D03*
%TD*%
D20*
%TO.P,C3,2*%
%TO.N,Net-(U1-COM)*%
X90500000Y-98500000D03*
%TO.P,C3,1*%
%TO.N,Net-(U1-CT)*%
X90500000Y-96000000D03*
%TD*%
%TO.P,C1,2*%
%TO.N,GND*%
X89500000Y-91000000D03*
%TO.P,C1,1*%
%TO.N,Net-(BT2-+)*%
X87000000Y-91000000D03*
%TD*%
%TO.N,Net-(R2-Pad1)*%
D25*
X97000000Y-95040000D02*
X97000000Y-97580000D01*
%TO.N,Net-(U1-HO)*%
X94420000Y-114000000D02*
X94420000Y-111660000D01*
X94420000Y-111660000D02*
X96270000Y-109810000D01*
%TO.N,Net-(R3-Pad2)*%
X89484925Y-110500000D02*
X91050000Y-112065075D01*
X91050000Y-115045075D02*
X87000000Y-119095075D01*
X87000000Y-119095075D02*
X87000000Y-120000000D01*
X84500000Y-110500000D02*
X89484925Y-110500000D01*
X91050000Y-112065075D02*
X91050000Y-115045075D01*
%TO.N,Net-(Q2-G)*%
X82500000Y-120000000D02*
X90000000Y-112500000D01*
X81920000Y-120000000D02*
X82500000Y-120000000D01*
X88390000Y-126470000D02*
X81920000Y-120000000D01*
X87599189Y-128850000D02*
X88390000Y-128059189D01*
X88390000Y-128059189D02*
X88390000Y-126470000D01*
X75500000Y-128475456D02*
X75874544Y-128850000D01*
X75500000Y-119580000D02*
X75500000Y-128475456D01*
X75874544Y-128850000D02*
X87599189Y-128850000D01*
%TO.N,Output 1*%
X80414595Y-125954595D02*
X81960000Y-127500000D01*
X80414595Y-108414595D02*
X80414595Y-125954595D01*
X75500000Y-103500000D02*
X80414595Y-108414595D01*
%TO.N,Net-(Q1-S)*%
X72500000Y-111500000D02*
X75500000Y-114500000D01*
X72500000Y-103960000D02*
X72500000Y-111500000D01*
X75500000Y-100960000D02*
X72500000Y-103960000D01*
%TO.N,Net-(U1-RT)*%
X96270000Y-102190000D02*
X90420000Y-108040000D01*
X90420000Y-108040000D02*
X84500000Y-108040000D01*
%TO.N,Net-(U1-COM)*%
X90500000Y-101500000D02*
X91190000Y-102190000D01*
X90500000Y-98500000D02*
X90500000Y-101500000D01*
%TO.N,Net-(U1-CT)*%
X93730000Y-102190000D02*
X93730000Y-95770000D01*
X93730000Y-95770000D02*
X97000000Y-92500000D01*
%TD*%
%TA.AperFunction,Conductor*%
%TO.N,GND*%
G36*
X101442539Y-78520185D02*
G01*
X101488294Y-78572989D01*
X101499500Y-78624500D01*
X101499500Y-132875500D01*
X101479815Y-132942539D01*
X101427011Y-132988294D01*
X101375500Y-132999500D01*
X70624500Y-132999500D01*
X70557461Y-132979815D01*
X70511706Y-132927011D01*
X70500500Y-132875500D01*
X70500500Y-103895928D01*
X71849500Y-103895928D01*
X71849500Y-103895931D01*
X71849500Y-111564069D01*
X71866494Y-111649500D01*
X71870759Y-111670940D01*
X71874499Y-111689744D01*
X71923534Y-111808125D01*
X71994726Y-111914673D01*
X71994727Y-111914674D01*
X74031704Y-113951650D01*
X74065189Y-114012973D01*
X74061955Y-114077647D01*
X74035277Y-114159755D01*
X73999500Y-114385646D01*
X73999500Y-114614353D01*
X74035278Y-114840246D01*
X74035278Y-114840249D01*
X74105950Y-115057755D01*
X74196166Y-115234813D01*
X74209783Y-115261538D01*
X74344214Y-115446566D01*
X74505934Y-115608286D01*
X74569543Y-115654501D01*
X74590438Y-115669682D01*
X74633103Y-115725013D01*
X74639082Y-115794626D01*
X74606476Y-115856421D01*
X74590438Y-115870318D01*
X74505932Y-115931715D01*
X74344216Y-116093431D01*
X74344216Y-116093432D01*
X74344214Y-116093434D01*
X74286480Y-116172896D01*
X74209783Y-116278461D01*
X74105950Y-116482244D01*
X74035278Y-116699750D01*
X74035278Y-116699753D01*
X73999500Y-116925646D01*
X73999500Y-117154353D01*
X74035278Y-117380246D01*
X74035278Y-117380249D01*
X74105950Y-117597755D01*
X74105952Y-117597758D01*
X74209783Y-117801538D01*
X74342525Y-117984242D01*
X74366005Y-118050046D01*
X74350180Y-118118100D01*
X74300074Y-118166795D01*
X74285541Y-118173308D01*
X74257670Y-118183703D01*
X74257664Y-118183706D01*
X74142455Y-118269952D01*
X74142452Y-118269955D01*
X74056206Y-118385164D01*
X74056202Y-118385171D01*
X74005908Y-118520017D01*
X73999501Y-118579616D01*
X73999501Y-118579623D01*
X73999500Y-118579635D01*
X73999500Y-120580370D01*
X73999501Y-120580376D01*
X74005908Y-120639983D01*
X74056202Y-120774828D01*
X74056206Y-120774835D01*
X74142452Y-120890044D01*
X74142455Y-120890047D01*
X74257664Y-120976293D01*
X74257671Y-120976297D01*
X74302618Y-120993061D01*
X74392517Y-121026591D01*
X74452127Y-121033000D01*
X74725501Y-121032999D01*
X74792539Y-121052683D01*
X74838294Y-121105487D01*
X74849500Y-121156999D01*
X74849500Y-128539525D01*
X74868622Y-128635654D01*
X74874499Y-128665200D01*
X74923534Y-128783581D01*
X74994726Y-128890129D01*
X74994727Y-128890130D01*
X75369268Y-129264669D01*
X75459872Y-129355273D01*
X75459876Y-129355277D01*
X75566410Y-129426461D01*
X75566416Y-129426464D01*
X75566417Y-129426465D01*
X75684800Y-129475501D01*
X75684804Y-129475501D01*
X75684805Y-129475502D01*
X75810472Y-129500500D01*
X75810475Y-129500500D01*
X87663260Y-129500500D01*
X87747804Y-129483682D01*
X87788933Y-129475501D01*
X87907316Y-129426465D01*
X88013858Y-129355277D01*
X88895277Y-128473858D01*
X88966466Y-128367315D01*
X88999968Y-128286433D01*
X89015501Y-128248933D01*
X89040500Y-128123258D01*
X89040500Y-126405931D01*
X89040500Y-126405928D01*
X89015502Y-126280261D01*
X89015501Y-126280260D01*
X89015501Y-126280256D01*
X88966465Y-126161873D01*
X88954749Y-126144339D01*
X88895277Y-126055331D01*
X88895275Y-126055329D01*
X88895273Y-126055326D01*
X83217627Y-120377680D01*
X83184142Y-120316357D01*
X83189126Y-120246665D01*
X83217625Y-120202320D01*
X89700213Y-113719731D01*
X89761534Y-113686248D01*
X89807285Y-113684941D01*
X89905519Y-113700500D01*
X89905521Y-113700500D01*
X90094486Y-113700500D01*
X90239284Y-113677565D01*
X90256102Y-113674902D01*
X90325395Y-113683856D01*
X90378847Y-113728852D01*
X90399487Y-113795604D01*
X90399500Y-113797375D01*
X90399500Y-114724266D01*
X90379815Y-114791305D01*
X90363181Y-114811947D01*
X86494727Y-118680400D01*
X86494726Y-118680401D01*
X86445685Y-118753797D01*
X86445683Y-118753799D01*
X86438853Y-118764023D01*
X86423535Y-118786948D01*
X86374499Y-118905331D01*
X86366436Y-118945863D01*
X86361810Y-118957075D01*
X86347214Y-118975237D01*
X86336415Y-118995883D01*
X86320071Y-119010096D01*
X86217927Y-119084309D01*
X86084312Y-119217924D01*
X86084312Y-119217925D01*
X86084310Y-119217927D01*
X86071966Y-119234917D01*
X85973240Y-119370800D01*
X85887454Y-119539163D01*
X85829059Y-119718881D01*
X85799500Y-119905513D01*
X85799500Y-120094486D01*
X85829059Y-120281118D01*
X85887454Y-120460836D01*
X85948367Y-120580383D01*
X85973240Y-120629199D01*
X86084310Y-120782073D01*
X86217927Y-120915690D01*
X86370801Y-121026760D01*
X86395018Y-121039099D01*
X86539163Y-121112545D01*
X86539165Y-121112545D01*
X86539168Y-121112547D01*
X86635497Y-121143846D01*
X86718881Y-121170940D01*
X86905514Y-121200500D01*
X86905519Y-121200500D01*
X87094486Y-121200500D01*
X87281118Y-121170940D01*
X87460832Y-121112547D01*
X87629199Y-121026760D01*
X87782073Y-120915690D01*
X87915690Y-120782073D01*
X88004394Y-120659983D01*
X95499500Y-120659983D01*
X95499500Y-122260001D01*
X95499501Y-122260018D01*
X95510000Y-122362796D01*
X95510001Y-122362799D01*
X95565185Y-122529331D01*
X95565186Y-122529334D01*
X95657288Y-122678656D01*
X95781344Y-122802712D01*
X95823102Y-122828468D01*
X95829656Y-122832511D01*
X95876381Y-122884459D01*
X95887604Y-122953421D01*
X95859760Y-123017504D01*
X95858615Y-123018759D01*
X95858647Y-123018786D01*
X95855485Y-123022487D01*
X95855483Y-123022490D01*
X95795862Y-123104550D01*
X95716657Y-123213566D01*
X95609433Y-123424003D01*
X95536446Y-123648631D01*
X95499500Y-123881902D01*
X95499500Y-124118097D01*
X95536446Y-124351368D01*
X95609433Y-124575996D01*
X95716657Y-124786433D01*
X95855483Y-124977510D01*
X96022490Y-125144517D01*
X96213567Y-125283343D01*
X96312991Y-125334002D01*
X96424003Y-125390566D01*
X96424005Y-125390566D01*
X96424008Y-125390568D01*
X96544412Y-125429689D01*
X96648631Y-125463553D01*
X96881903Y-125500500D01*
X96881908Y-125500500D01*
X97118097Y-125500500D01*
X97351368Y-125463553D01*
X97575992Y-125390568D01*
X97786433Y-125283343D01*
X97977510Y-125144517D01*
X98144517Y-124977510D01*
X98283343Y-124786433D01*
X98390568Y-124575992D01*
X98463553Y-124351368D01*
X98500500Y-124118097D01*
X98500500Y-123881902D01*
X98463553Y-123648631D01*
X98390566Y-123424003D01*
X98283342Y-123213566D01*
X98144517Y-123022490D01*
X98144508Y-123022481D01*
X98141353Y-123018786D01*
X98143134Y-123017264D01*
X98114273Y-122964408D01*
X98119257Y-122894716D01*
X98161129Y-122838783D01*
X98170334Y-122832516D01*
X98218656Y-122802712D01*
X98342712Y-122678656D01*
X98434814Y-122529334D01*
X98489999Y-122362797D01*
X98500500Y-122260009D01*
X98500499Y-120659992D01*
X98497353Y-120629199D01*
X98489999Y-120557203D01*
X98489998Y-120557200D01*
X98458066Y-120460836D01*
X98434814Y-120390666D01*
X98342712Y-120241344D01*
X98218656Y-120117288D01*
X98069334Y-120025186D01*
X97902797Y-119970001D01*
X97902795Y-119970000D01*
X97800010Y-119959500D01*
X96199998Y-119959500D01*
X96199981Y-119959501D01*
X96097203Y-119970000D01*
X96097200Y-119970001D01*
X95930668Y-120025185D01*
X95930663Y-120025187D01*
X95781342Y-120117289D01*
X95657289Y-120241342D01*
X95565187Y-120390663D01*
X95565186Y-120390666D01*
X95510001Y-120557203D01*
X95510001Y-120557204D01*
X95510000Y-120557204D01*
X95499500Y-120659983D01*
X88004394Y-120659983D01*
X88026760Y-120629199D01*
X88051637Y-120580376D01*
X88112545Y-120460836D01*
X88112545Y-120460835D01*
X88112547Y-120460832D01*
X88170940Y-120281118D01*
X88176397Y-120246665D01*
X88200500Y-120094486D01*
X88200500Y-119905513D01*
X88170940Y-119718881D01*
X88112545Y-119539163D01*
X88026759Y-119370800D01*
X87928032Y-119234914D01*
X87904553Y-119169111D01*
X87920378Y-119101057D01*
X87940667Y-119074353D01*
X88800129Y-118214890D01*
X88861450Y-118181407D01*
X88931141Y-118186391D01*
X88987075Y-118228263D01*
X88988092Y-118229641D01*
X89084310Y-118362073D01*
X89217927Y-118495690D01*
X89370801Y-118606760D01*
X89450347Y-118647290D01*
X89539163Y-118692545D01*
X89539165Y-118692545D01*
X89539168Y-118692547D01*
X89635497Y-118723846D01*
X89718881Y-118750940D01*
X89905514Y-118780500D01*
X89905519Y-118780500D01*
X90094486Y-118780500D01*
X90281118Y-118750940D01*
X90460832Y-118692547D01*
X90629199Y-118606760D01*
X90782073Y-118495690D01*
X90915690Y-118362073D01*
X91026760Y-118209199D01*
X91112547Y-118040832D01*
X91170940Y-117861118D01*
X91200500Y-117674486D01*
X91200500Y-117485513D01*
X91170940Y-117298881D01*
X91143846Y-117215497D01*
X91112547Y-117119168D01*
X91112545Y-117119165D01*
X91112545Y-117119163D01*
X91026759Y-116950800D01*
X90915690Y-116797927D01*
X90782073Y-116664310D01*
X90649686Y-116568124D01*
X90607022Y-116512796D01*
X90601043Y-116443182D01*
X90633649Y-116381387D01*
X90634810Y-116380209D01*
X91555277Y-115459744D01*
X91626465Y-115353202D01*
X91675501Y-115234819D01*
X91699823Y-115112547D01*
X91700500Y-115109146D01*
X91700500Y-112001003D01*
X91675502Y-111875336D01*
X91675501Y-111875335D01*
X91675501Y-111875331D01*
X91626465Y-111756948D01*
X91581561Y-111689744D01*
X91555276Y-111650405D01*
X91555274Y-111650402D01*
X91225326Y-111320454D01*
X91191841Y-111259131D01*
X91196825Y-111189439D01*
X91238697Y-111133506D01*
X91293605Y-111110301D01*
X91494534Y-111078477D01*
X91689219Y-111015220D01*
X91871610Y-110922287D01*
X91964590Y-110854732D01*
X92037213Y-110801971D01*
X92037215Y-110801968D01*
X92037219Y-110801966D01*
X92181966Y-110657219D01*
X92181968Y-110657215D01*
X92181971Y-110657213D01*
X92302286Y-110491611D01*
X92302415Y-110491359D01*
X92349795Y-110398369D01*
X92397769Y-110347573D01*
X92465590Y-110330778D01*
X92531725Y-110353315D01*
X92570765Y-110398369D01*
X92618141Y-110491350D01*
X92618147Y-110491359D01*
X92650523Y-110535921D01*
X92650524Y-110535922D01*
X93330000Y-109856446D01*
X93330000Y-109862661D01*
X93357259Y-109964394D01*
X93409920Y-110055606D01*
X93484394Y-110130080D01*
X93575606Y-110182741D01*
X93677339Y-110210000D01*
X93683553Y-110210000D01*
X93004076Y-110889474D01*
X93048650Y-110921859D01*
X93230968Y-111014755D01*
X93425582Y-111077990D01*
X93627683Y-111110000D01*
X93773161Y-111110000D01*
X93782910Y-111112862D01*
X93792995Y-111111596D01*
X93815874Y-111122542D01*
X93840200Y-111129685D01*
X93846853Y-111137363D01*
X93856022Y-111141750D01*
X93869350Y-111163326D01*
X93885955Y-111182489D01*
X93887401Y-111192547D01*
X93892742Y-111201193D01*
X93892289Y-111226545D01*
X93895899Y-111251647D01*
X93891644Y-111262751D01*
X93891496Y-111271052D01*
X93876264Y-111302890D01*
X93866291Y-111317816D01*
X93843534Y-111351874D01*
X93794499Y-111470255D01*
X93794497Y-111470261D01*
X93769500Y-111595928D01*
X93769500Y-112925534D01*
X93749815Y-112992573D01*
X93718387Y-113025851D01*
X93637927Y-113084309D01*
X93504312Y-113217924D01*
X93504312Y-113217925D01*
X93504310Y-113217927D01*
X93475716Y-113257283D01*
X93393240Y-113370800D01*
X93307454Y-113539163D01*
X93249059Y-113718881D01*
X93219500Y-113905513D01*
X93219500Y-114094486D01*
X93249059Y-114281118D01*
X93307454Y-114460836D01*
X93354537Y-114553240D01*
X93393240Y-114629199D01*
X93504310Y-114782073D01*
X93637927Y-114915690D01*
X93790801Y-115026760D01*
X93851638Y-115057758D01*
X93959163Y-115112545D01*
X93959165Y-115112545D01*
X93959168Y-115112547D01*
X94055497Y-115143846D01*
X94138881Y-115170940D01*
X94325514Y-115200500D01*
X94325519Y-115200500D01*
X94514486Y-115200500D01*
X94701118Y-115170940D01*
X94880832Y-115112547D01*
X95049199Y-115026760D01*
X95202073Y-114915690D01*
X95335690Y-114782073D01*
X95446760Y-114629199D01*
X95532547Y-114460832D01*
X95590940Y-114281118D01*
X95610162Y-114159755D01*
X95620500Y-114094486D01*
X95620500Y-113905513D01*
X98299500Y-113905513D01*
X98299500Y-114094486D01*
X98329059Y-114281118D01*
X98387454Y-114460836D01*
X98434537Y-114553240D01*
X98473240Y-114629199D01*
X98584310Y-114782073D01*
X98717927Y-114915690D01*
X98870801Y-115026760D01*
X98931638Y-115057758D01*
X99039163Y-115112545D01*
X99039165Y-115112545D01*
X99039168Y-115112547D01*
X99135497Y-115143846D01*
X99218881Y-115170940D01*
X99405514Y-115200500D01*
X99405519Y-115200500D01*
X99594486Y-115200500D01*
X99781118Y-115170940D01*
X99960832Y-115112547D01*
X100129199Y-115026760D01*
X100282073Y-114915690D01*
X100415690Y-114782073D01*
X100526760Y-114629199D01*
X100612547Y-114460832D01*
X100670940Y-114281118D01*
X100690162Y-114159755D01*
X100700500Y-114094486D01*
X100700500Y-113905513D01*
X100670940Y-113718881D01*
X100617182Y-113553434D01*
X100612547Y-113539168D01*
X100612545Y-113539165D01*
X100612545Y-113539163D01*
X100567290Y-113450347D01*
X100526760Y-113370801D01*
X100415690Y-113217927D01*
X100282073Y-113084310D01*
X100129199Y-112973240D01*
X100123863Y-112970521D01*
X99960836Y-112887454D01*
X99781118Y-112829059D01*
X99594486Y-112799500D01*
X99594481Y-112799500D01*
X99405519Y-112799500D01*
X99405514Y-112799500D01*
X99218881Y-112829059D01*
X99039163Y-112887454D01*
X98870800Y-112973240D01*
X98783579Y-113036610D01*
X98717927Y-113084310D01*
X98717925Y-113084312D01*
X98717924Y-113084312D01*
X98584312Y-113217924D01*
X98584312Y-113217925D01*
X98584310Y-113217927D01*
X98555716Y-113257283D01*
X98473240Y-113370800D01*
X98387454Y-113539163D01*
X98329059Y-113718881D01*
X98299500Y-113905513D01*
X95620500Y-113905513D01*
X95590940Y-113718881D01*
X95537182Y-113553434D01*
X95532547Y-113539168D01*
X95532545Y-113539165D01*
X95532545Y-113539163D01*
X95487290Y-113450347D01*
X95446760Y-113370801D01*
X95335690Y-113217927D01*
X95202073Y-113084310D01*
X95199966Y-113082779D01*
X95121613Y-113025851D01*
X95078948Y-112970521D01*
X95070500Y-112925534D01*
X95070500Y-111980807D01*
X95090185Y-111913768D01*
X95106815Y-111893130D01*
X95882809Y-111117135D01*
X95944130Y-111083652D01*
X95989886Y-111082345D01*
X96081763Y-111096897D01*
X96167648Y-111110500D01*
X96167649Y-111110500D01*
X96372351Y-111110500D01*
X96372352Y-111110500D01*
X96574534Y-111078477D01*
X96769219Y-111015220D01*
X96951610Y-110922287D01*
X97044590Y-110854732D01*
X97117213Y-110801971D01*
X97117215Y-110801968D01*
X97117219Y-110801966D01*
X97261966Y-110657219D01*
X97261968Y-110657215D01*
X97261971Y-110657213D01*
X97382284Y-110491614D01*
X97382286Y-110491611D01*
X97382287Y-110491610D01*
X97429516Y-110398917D01*
X97477489Y-110348123D01*
X97545310Y-110331328D01*
X97611445Y-110353865D01*
X97650483Y-110398917D01*
X97694348Y-110485006D01*
X97697715Y-110491614D01*
X97818028Y-110657213D01*
X97962786Y-110801971D01*
X98083226Y-110889474D01*
X98128390Y-110922287D01*
X98204039Y-110960832D01*
X98310776Y-111015218D01*
X98310778Y-111015218D01*
X98310781Y-111015220D01*
X98415137Y-111049127D01*
X98505465Y-111078477D01*
X98606557Y-111094488D01*
X98707648Y-111110500D01*
X98707649Y-111110500D01*
X98912351Y-111110500D01*
X98912352Y-111110500D01*
X99114534Y-111078477D01*
X99309219Y-111015220D01*
X99491610Y-110922287D01*
X99584590Y-110854732D01*
X99657213Y-110801971D01*
X99657215Y-110801968D01*
X99657219Y-110801966D01*
X99801966Y-110657219D01*
X99801968Y-110657215D01*
X99801971Y-110657213D01*
X99854732Y-110584590D01*
X99922287Y-110491610D01*
X100015220Y-110309219D01*
X100078477Y-110114534D01*
X100110500Y-109912352D01*
X100110500Y-109707648D01*
X100090965Y-109584310D01*
X100078477Y-109505465D01*
X100040132Y-109387453D01*
X100015220Y-109310781D01*
X100015218Y-109310778D01*
X100015218Y-109310776D01*
X99940336Y-109163814D01*
X99922287Y-109128390D01*
X99890092Y-109084077D01*
X99801971Y-108962786D01*
X99657213Y-108818028D01*
X99491613Y-108697715D01*
X99491612Y-108697714D01*
X99491610Y-108697713D01*
X99434653Y-108668691D01*
X99309223Y-108604781D01*
X99114534Y-108541522D01*
X98939995Y-108513878D01*
X98912352Y-108509500D01*
X98707648Y-108509500D01*
X98683329Y-108513351D01*
X98505465Y-108541522D01*
X98310776Y-108604781D01*
X98128386Y-108697715D01*
X97962786Y-108818028D01*
X97818028Y-108962786D01*
X97697715Y-109128386D01*
X97650485Y-109221080D01*
X97602510Y-109271876D01*
X97534689Y-109288671D01*
X97468554Y-109266134D01*
X97429515Y-109221080D01*
X97400336Y-109163814D01*
X97382287Y-109128390D01*
X97350092Y-109084077D01*
X97261971Y-108962786D01*
X97117213Y-108818028D01*
X96951613Y-108697715D01*
X96951612Y-108697714D01*
X96951610Y-108697713D01*
X96894653Y-108668691D01*
X96769223Y-108604781D01*
X96574534Y-108541522D01*
X96399995Y-108513878D01*
X96372352Y-108509500D01*
X96167648Y-108509500D01*
X96143329Y-108513351D01*
X95965465Y-108541522D01*
X95770776Y-108604781D01*
X95588386Y-108697715D01*
X95422786Y-108818028D01*
X95278028Y-108962786D01*
X95157713Y-109128388D01*
X95110203Y-109221630D01*
X95062228Y-109272426D01*
X94994407Y-109289220D01*
X94928272Y-109266682D01*
X94889234Y-109221628D01*
X94841861Y-109128652D01*
X94809474Y-109084077D01*
X94809474Y-109084076D01*
X94130000Y-109763553D01*
X94130000Y-109757339D01*
X94102741Y-109655606D01*
X94050080Y-109564394D01*
X93975606Y-109489920D01*
X93884394Y-109437259D01*
X93782661Y-109410000D01*
X93776446Y-109410000D01*
X94455922Y-108730524D01*
X94455921Y-108730523D01*
X94411359Y-108698147D01*
X94411350Y-108698141D01*
X94229031Y-108605244D01*
X94034417Y-108542009D01*
X93832317Y-108510000D01*
X93627683Y-108510000D01*
X93425582Y-108542009D01*
X93230968Y-108605244D01*
X93048644Y-108698143D01*
X93004077Y-108730523D01*
X93004077Y-108730524D01*
X93683554Y-109410000D01*
X93677339Y-109410000D01*
X93575606Y-109437259D01*
X93484394Y-109489920D01*
X93409920Y-109564394D01*
X93357259Y-109655606D01*
X93330000Y-109757339D01*
X93330000Y-109763553D01*
X92650524Y-109084077D01*
X92650523Y-109084077D01*
X92618143Y-109128644D01*
X92570765Y-109221630D01*
X92522790Y-109272426D01*
X92454969Y-109289221D01*
X92388834Y-109266683D01*
X92349795Y-109221630D01*
X92320336Y-109163814D01*
X92302287Y-109128390D01*
X92302285Y-109128387D01*
X92302284Y-109128385D01*
X92181971Y-108962786D01*
X92037213Y-108818028D01*
X91871613Y-108697715D01*
X91871612Y-108697714D01*
X91871610Y-108697713D01*
X91814653Y-108668691D01*
X91689223Y-108604781D01*
X91494534Y-108541522D01*
X91319995Y-108513878D01*
X91292352Y-108509500D01*
X91169809Y-108509500D01*
X91102770Y-108489815D01*
X91057015Y-108437011D01*
X91047071Y-108367853D01*
X91076096Y-108304297D01*
X91082128Y-108297819D01*
X94935705Y-104444240D01*
X95882809Y-103497135D01*
X95944130Y-103463652D01*
X95989886Y-103462345D01*
X96086719Y-103477681D01*
X96167648Y-103490500D01*
X96167649Y-103490500D01*
X96372351Y-103490500D01*
X96372352Y-103490500D01*
X96574534Y-103458477D01*
X96769219Y-103395220D01*
X96951610Y-103302287D01*
X97080482Y-103208657D01*
X97117213Y-103181971D01*
X97117215Y-103181968D01*
X97117219Y-103181966D01*
X97261966Y-103037219D01*
X97330021Y-102943547D01*
X97385349Y-102900882D01*
X97454963Y-102894902D01*
X97516758Y-102927507D01*
X97548044Y-102977427D01*
X97575186Y-103059334D01*
X97667288Y-103208656D01*
X97791344Y-103332712D01*
X97940666Y-103424814D01*
X98107203Y-103479999D01*
X98209991Y-103490500D01*
X99410008Y-103490499D01*
X99512797Y-103479999D01*
X99679334Y-103424814D01*
X99828656Y-103332712D01*
X99952712Y-103208656D01*
X100044814Y-103059334D01*
X100099999Y-102892797D01*
X100110500Y-102790009D01*
X100110499Y-101589992D01*
X100099999Y-101487203D01*
X100044814Y-101320666D01*
X99952712Y-101171344D01*
X99828656Y-101047288D01*
X99679334Y-100955186D01*
X99512797Y-100900001D01*
X99512795Y-100900000D01*
X99410010Y-100889500D01*
X98209998Y-100889500D01*
X98209981Y-100889501D01*
X98107203Y-100900000D01*
X98107200Y-100900001D01*
X97940668Y-100955185D01*
X97940663Y-100955187D01*
X97791342Y-101047289D01*
X97667289Y-101171342D01*
X97575187Y-101320663D01*
X97575186Y-101320666D01*
X97548045Y-101402571D01*
X97508271Y-101460016D01*
X97443755Y-101486838D01*
X97374979Y-101474522D01*
X97330021Y-101436452D01*
X97261966Y-101342781D01*
X97117219Y-101198034D01*
X97117213Y-101198028D01*
X96951613Y-101077715D01*
X96951612Y-101077714D01*
X96951610Y-101077713D01*
X96871542Y-101036916D01*
X96769223Y-100984781D01*
X96574534Y-100921522D01*
X96399995Y-100893878D01*
X96372352Y-100889500D01*
X96167648Y-100889500D01*
X96143329Y-100893351D01*
X95965465Y-100921522D01*
X95770776Y-100984781D01*
X95588386Y-101077715D01*
X95422786Y-101198028D01*
X95278028Y-101342786D01*
X95157715Y-101508386D01*
X95110485Y-101601080D01*
X95062510Y-101651876D01*
X94994689Y-101668671D01*
X94928554Y-101646134D01*
X94889515Y-101601080D01*
X94870657Y-101564069D01*
X94842287Y-101508390D01*
X94803219Y-101454617D01*
X94721971Y-101342786D01*
X94577217Y-101198032D01*
X94577212Y-101198028D01*
X94431615Y-101092246D01*
X94388949Y-101036916D01*
X94380500Y-100991928D01*
X94380500Y-96090807D01*
X94400185Y-96023768D01*
X94416814Y-96003131D01*
X95567819Y-94852125D01*
X95629142Y-94818641D01*
X95698834Y-94823625D01*
X95754767Y-94865497D01*
X95779184Y-94930961D01*
X95779500Y-94939807D01*
X95779500Y-95136054D01*
X95809553Y-95325802D01*
X95868916Y-95508506D01*
X95930413Y-95629199D01*
X95956135Y-95679681D01*
X96069055Y-95835102D01*
X96069057Y-95835104D01*
X96204901Y-95970948D01*
X96298384Y-96038866D01*
X96341051Y-96094196D01*
X96349500Y-96139185D01*
X96349500Y-96480813D01*
X96329815Y-96547852D01*
X96298387Y-96581130D01*
X96204898Y-96649054D01*
X96069057Y-96784895D01*
X96069057Y-96784896D01*
X96069055Y-96784898D01*
X96023776Y-96847219D01*
X95956135Y-96940318D01*
X95868916Y-97111493D01*
X95809553Y-97294197D01*
X95806653Y-97312510D01*
X95779500Y-97483945D01*
X95779500Y-97676055D01*
X95783735Y-97702796D01*
X95809553Y-97865802D01*
X95868916Y-98048506D01*
X95916916Y-98142710D01*
X95956135Y-98219681D01*
X96069055Y-98375102D01*
X96204898Y-98510945D01*
X96360319Y-98623865D01*
X96531491Y-98711082D01*
X96531493Y-98711083D01*
X96622845Y-98740764D01*
X96714199Y-98770447D01*
X96903945Y-98800500D01*
X96903946Y-98800500D01*
X97096054Y-98800500D01*
X97096055Y-98800500D01*
X97285801Y-98770447D01*
X97468509Y-98711082D01*
X97639681Y-98623865D01*
X97795102Y-98510945D01*
X97930945Y-98375102D01*
X98043865Y-98219681D01*
X98131082Y-98048509D01*
X98190447Y-97865801D01*
X98220500Y-97676055D01*
X98220500Y-97483945D01*
X98190447Y-97294199D01*
X98140188Y-97139516D01*
X98131083Y-97111493D01*
X98074274Y-97000000D01*
X98043865Y-96940319D01*
X97930945Y-96784898D01*
X97795102Y-96649055D01*
X97765103Y-96627259D01*
X97701613Y-96581130D01*
X97658948Y-96525800D01*
X97650500Y-96480813D01*
X97650500Y-96139185D01*
X97670185Y-96072146D01*
X97701616Y-96038866D01*
X97795098Y-95970948D01*
X97795098Y-95970947D01*
X97795102Y-95970945D01*
X97930945Y-95835102D01*
X98043865Y-95679681D01*
X98131082Y-95508509D01*
X98190447Y-95325801D01*
X98220500Y-95136055D01*
X98220500Y-94943945D01*
X98190447Y-94754199D01*
X98131082Y-94571491D01*
X98043865Y-94400319D01*
X97930945Y-94244898D01*
X97795102Y-94109055D01*
X97639681Y-93996135D01*
X97468504Y-93908915D01*
X97403919Y-93887931D01*
X97346243Y-93848494D01*
X97319044Y-93784136D01*
X97330958Y-93715289D01*
X97378202Y-93663813D01*
X97403919Y-93652069D01*
X97468504Y-93631084D01*
X97468506Y-93631082D01*
X97468509Y-93631082D01*
X97639681Y-93543865D01*
X97795102Y-93430945D01*
X97930945Y-93295102D01*
X98043865Y-93139681D01*
X98131082Y-92968509D01*
X98190447Y-92785801D01*
X98220500Y-92596055D01*
X98220500Y-92403945D01*
X98190447Y-92214199D01*
X98131082Y-92031491D01*
X98043865Y-91860319D01*
X97930945Y-91704898D01*
X97795102Y-91569055D01*
X97639681Y-91456135D01*
X97529511Y-91400000D01*
X97468506Y-91368916D01*
X97285802Y-91309553D01*
X97190928Y-91294526D01*
X97096055Y-91279500D01*
X96903945Y-91279500D01*
X96840696Y-91289517D01*
X96714197Y-91309553D01*
X96531493Y-91368916D01*
X96360318Y-91456135D01*
X96301019Y-91499219D01*
X96204898Y-91569055D01*
X96204896Y-91569057D01*
X96204895Y-91569057D01*
X96069057Y-91704895D01*
X96069057Y-91704896D01*
X96069055Y-91704898D01*
X96020560Y-91771645D01*
X95956135Y-91860318D01*
X95868916Y-92031493D01*
X95809553Y-92214197D01*
X95779500Y-92403945D01*
X95779500Y-92596054D01*
X95797577Y-92710188D01*
X95788622Y-92779482D01*
X95762785Y-92817267D01*
X93224722Y-95355331D01*
X93224720Y-95355333D01*
X93202021Y-95389307D01*
X93192964Y-95402863D01*
X93177170Y-95426499D01*
X93153534Y-95461873D01*
X93104499Y-95580255D01*
X93104497Y-95580261D01*
X93079500Y-95705928D01*
X93079500Y-100991928D01*
X93059815Y-101058967D01*
X93028385Y-101092246D01*
X92882787Y-101198028D01*
X92882782Y-101198032D01*
X92738028Y-101342786D01*
X92617715Y-101508386D01*
X92570485Y-101601080D01*
X92522510Y-101651876D01*
X92454689Y-101668671D01*
X92388554Y-101646134D01*
X92349515Y-101601080D01*
X92330657Y-101564069D01*
X92302287Y-101508390D01*
X92263219Y-101454617D01*
X92181971Y-101342786D01*
X92037213Y-101198028D01*
X91871613Y-101077715D01*
X91871612Y-101077714D01*
X91871610Y-101077713D01*
X91791542Y-101036916D01*
X91689223Y-100984781D01*
X91494534Y-100921522D01*
X91319995Y-100893878D01*
X91292352Y-100889500D01*
X91292351Y-100889500D01*
X91274500Y-100889500D01*
X91207461Y-100869815D01*
X91161706Y-100817011D01*
X91150500Y-100765500D01*
X91150500Y-99698070D01*
X91170185Y-99631031D01*
X91201613Y-99597753D01*
X91347219Y-99491966D01*
X91491966Y-99347219D01*
X91491968Y-99347215D01*
X91491971Y-99347213D01*
X91544732Y-99274590D01*
X91612287Y-99181610D01*
X91705220Y-98999219D01*
X91768477Y-98804534D01*
X91800500Y-98602352D01*
X91800500Y-98397648D01*
X91768477Y-98195466D01*
X91705220Y-98000781D01*
X91705218Y-98000778D01*
X91705218Y-98000776D01*
X91638244Y-97869334D01*
X91612287Y-97818390D01*
X91604556Y-97807749D01*
X91491971Y-97652786D01*
X91347213Y-97508028D01*
X91181613Y-97387715D01*
X91181612Y-97387714D01*
X91181610Y-97387713D01*
X91128171Y-97360484D01*
X91077376Y-97312510D01*
X91060581Y-97244689D01*
X91083118Y-97178554D01*
X91128172Y-97139515D01*
X91181610Y-97112287D01*
X91274590Y-97044732D01*
X91347213Y-96991971D01*
X91347215Y-96991968D01*
X91347219Y-96991966D01*
X91491966Y-96847219D01*
X91491968Y-96847215D01*
X91491971Y-96847213D01*
X91559407Y-96754394D01*
X91612287Y-96681610D01*
X91705220Y-96499219D01*
X91768477Y-96304534D01*
X91800500Y-96102352D01*
X91800500Y-95897648D01*
X91782195Y-95782074D01*
X91768477Y-95695465D01*
X91705218Y-95500776D01*
X91671503Y-95434607D01*
X91612287Y-95318390D01*
X91585208Y-95281118D01*
X91491971Y-95152786D01*
X91347213Y-95008028D01*
X91181613Y-94887715D01*
X91181612Y-94887714D01*
X91181610Y-94887713D01*
X91111767Y-94852126D01*
X90999223Y-94794781D01*
X90804534Y-94731522D01*
X90629995Y-94703878D01*
X90602352Y-94699500D01*
X90397648Y-94699500D01*
X90373329Y-94703351D01*
X90195465Y-94731522D01*
X90000776Y-94794781D01*
X89818386Y-94887715D01*
X89652786Y-95008028D01*
X89508028Y-95152786D01*
X89387715Y-95318386D01*
X89294781Y-95500776D01*
X89231522Y-95695465D01*
X89217805Y-95782074D01*
X89199500Y-95897648D01*
X89199500Y-96102352D01*
X89201115Y-96112547D01*
X89231522Y-96304534D01*
X89294781Y-96499223D01*
X89358691Y-96624653D01*
X89371125Y-96649055D01*
X89387715Y-96681613D01*
X89508028Y-96847213D01*
X89652786Y-96991971D01*
X89818388Y-97112286D01*
X89871828Y-97139516D01*
X89922623Y-97187490D01*
X89939418Y-97255312D01*
X89916880Y-97321446D01*
X89871828Y-97360484D01*
X89818388Y-97387713D01*
X89652786Y-97508028D01*
X89508028Y-97652786D01*
X89387715Y-97818386D01*
X89294781Y-98000776D01*
X89231522Y-98195465D01*
X89199500Y-98397648D01*
X89199500Y-98602351D01*
X89231522Y-98804534D01*
X89294781Y-98999223D01*
X89387715Y-99181613D01*
X89508028Y-99347213D01*
X89652784Y-99491969D01*
X89721863Y-99542157D01*
X89798385Y-99597753D01*
X89841051Y-99653081D01*
X89849500Y-99698070D01*
X89849500Y-101564069D01*
X89849500Y-101564071D01*
X89849499Y-101564071D01*
X89873500Y-101684724D01*
X89874498Y-101689743D01*
X89918983Y-101797139D01*
X89926452Y-101866608D01*
X89922357Y-101882897D01*
X89921525Y-101885456D01*
X89921521Y-101885472D01*
X89889500Y-102087648D01*
X89889500Y-102292351D01*
X89921522Y-102494534D01*
X89984781Y-102689223D01*
X90036135Y-102790009D01*
X90074609Y-102865519D01*
X90077715Y-102871613D01*
X90198028Y-103037213D01*
X90342786Y-103181971D01*
X90424197Y-103241118D01*
X90508390Y-103302287D01*
X90624607Y-103361503D01*
X90690776Y-103395218D01*
X90690778Y-103395218D01*
X90690781Y-103395220D01*
X90769607Y-103420832D01*
X90885465Y-103458477D01*
X90986557Y-103474488D01*
X91087648Y-103490500D01*
X91087649Y-103490500D01*
X91292351Y-103490500D01*
X91292352Y-103490500D01*
X91494534Y-103458477D01*
X91689219Y-103395220D01*
X91871610Y-103302287D01*
X92000482Y-103208657D01*
X92037213Y-103181971D01*
X92037215Y-103181968D01*
X92037219Y-103181966D01*
X92181966Y-103037219D01*
X92181968Y-103037215D01*
X92181971Y-103037213D01*
X92302284Y-102871614D01*
X92302285Y-102871613D01*
X92302287Y-102871610D01*
X92349516Y-102778917D01*
X92397489Y-102728123D01*
X92465310Y-102711328D01*
X92531445Y-102733865D01*
X92570483Y-102778917D01*
X92576139Y-102790016D01*
X92617715Y-102871614D01*
X92738028Y-103037213D01*
X92882786Y-103181971D01*
X92964197Y-103241118D01*
X93048390Y-103302287D01*
X93164607Y-103361503D01*
X93230776Y-103395218D01*
X93230778Y-103395218D01*
X93230781Y-103395220D01*
X93309607Y-103420832D01*
X93425465Y-103458477D01*
X93526557Y-103474488D01*
X93627648Y-103490500D01*
X93627649Y-103490500D01*
X93750191Y-103490500D01*
X93817230Y-103510185D01*
X93862985Y-103562989D01*
X93872929Y-103632147D01*
X93843904Y-103695703D01*
X93837872Y-103702181D01*
X90186873Y-107353181D01*
X90125550Y-107386666D01*
X90099192Y-107389500D01*
X85574465Y-107389500D01*
X85507426Y-107369815D01*
X85474147Y-107338386D01*
X85415690Y-107257927D01*
X85282073Y-107124310D01*
X85129199Y-107013240D01*
X84960836Y-106927454D01*
X84781118Y-106869059D01*
X84594486Y-106839500D01*
X84594481Y-106839500D01*
X84405519Y-106839500D01*
X84405514Y-106839500D01*
X84218881Y-106869059D01*
X84039163Y-106927454D01*
X83870800Y-107013240D01*
X83783579Y-107076610D01*
X83717927Y-107124310D01*
X83717925Y-107124312D01*
X83717924Y-107124312D01*
X83584312Y-107257924D01*
X83584312Y-107257925D01*
X83584310Y-107257927D01*
X83536610Y-107323579D01*
X83473240Y-107410800D01*
X83387454Y-107579163D01*
X83329059Y-107758881D01*
X83299500Y-107945513D01*
X83299500Y-108134486D01*
X83329059Y-108321118D01*
X83387454Y-108500836D01*
X83440417Y-108604780D01*
X83473240Y-108669199D01*
X83584310Y-108822073D01*
X83717927Y-108955690D01*
X83870801Y-109066760D01*
X83904786Y-109084076D01*
X84039169Y-109152548D01*
X84043661Y-109154408D01*
X84043100Y-109155760D01*
X84095379Y-109191514D01*
X84122572Y-109255875D01*
X84110652Y-109324720D01*
X84063404Y-109376192D01*
X84043527Y-109385269D01*
X84043661Y-109385592D01*
X84039169Y-109387451D01*
X83870800Y-109473240D01*
X83813212Y-109515081D01*
X83717927Y-109584310D01*
X83717925Y-109584312D01*
X83717924Y-109584312D01*
X83584312Y-109717924D01*
X83584312Y-109717925D01*
X83584310Y-109717927D01*
X83540733Y-109777905D01*
X83473240Y-109870800D01*
X83387454Y-110039163D01*
X83329059Y-110218881D01*
X83299500Y-110405513D01*
X83299500Y-110594486D01*
X83329059Y-110781118D01*
X83387454Y-110960836D01*
X83463712Y-111110500D01*
X83473240Y-111129199D01*
X83584310Y-111282073D01*
X83717927Y-111415690D01*
X83870801Y-111526760D01*
X83944024Y-111564069D01*
X84039163Y-111612545D01*
X84039165Y-111612545D01*
X84039168Y-111612547D01*
X84135497Y-111643846D01*
X84218881Y-111670940D01*
X84405514Y-111700500D01*
X84405519Y-111700500D01*
X84594486Y-111700500D01*
X84781118Y-111670940D01*
X84960832Y-111612547D01*
X85129199Y-111526760D01*
X85282073Y-111415690D01*
X85415690Y-111282073D01*
X85474147Y-111201613D01*
X85529478Y-111158949D01*
X85574465Y-111150500D01*
X89164117Y-111150500D01*
X89193557Y-111159144D01*
X89223544Y-111165668D01*
X89228559Y-111169422D01*
X89231156Y-111170185D01*
X89251798Y-111186819D01*
X89365106Y-111300127D01*
X89398591Y-111361450D01*
X89393607Y-111431142D01*
X89351735Y-111487075D01*
X89350311Y-111488125D01*
X89217933Y-111584305D01*
X89217924Y-111584312D01*
X89084312Y-111717924D01*
X89084312Y-111717925D01*
X89084310Y-111717927D01*
X89036610Y-111783579D01*
X88973240Y-111870800D01*
X88887454Y-112039163D01*
X88829059Y-112218881D01*
X88799500Y-112405513D01*
X88799500Y-112594486D01*
X88815057Y-112692708D01*
X88806103Y-112762001D01*
X88780265Y-112799787D01*
X85912181Y-115667872D01*
X85850858Y-115701357D01*
X85781166Y-115696373D01*
X85725233Y-115654501D01*
X85700816Y-115589037D01*
X85700500Y-115580191D01*
X85700500Y-115485513D01*
X85670940Y-115298881D01*
X85643846Y-115215497D01*
X85612547Y-115119168D01*
X85612545Y-115119165D01*
X85612545Y-115119163D01*
X85526759Y-114950800D01*
X85501250Y-114915690D01*
X85415690Y-114797927D01*
X85282073Y-114664310D01*
X85129199Y-114553240D01*
X84960836Y-114467454D01*
X84781118Y-114409059D01*
X84594486Y-114379500D01*
X84594481Y-114379500D01*
X84405519Y-114379500D01*
X84405514Y-114379500D01*
X84218881Y-114409059D01*
X84039163Y-114467454D01*
X83870800Y-114553240D01*
X83786687Y-114614353D01*
X83717927Y-114664310D01*
X83717925Y-114664312D01*
X83717924Y-114664312D01*
X83584312Y-114797924D01*
X83584312Y-114797925D01*
X83584310Y-114797927D01*
X83574124Y-114811947D01*
X83473240Y-114950800D01*
X83387454Y-115119163D01*
X83329059Y-115298881D01*
X83299500Y-115485513D01*
X83299500Y-115674486D01*
X83329059Y-115861118D01*
X83387454Y-116040836D01*
X83473240Y-116209199D01*
X83584310Y-116362073D01*
X83717927Y-116495690D01*
X83870801Y-116606760D01*
X83950347Y-116647290D01*
X84039163Y-116692545D01*
X84039165Y-116692545D01*
X84039168Y-116692547D01*
X84135497Y-116723846D01*
X84218881Y-116750940D01*
X84405514Y-116780500D01*
X84500191Y-116780500D01*
X84567230Y-116800185D01*
X84612985Y-116852989D01*
X84622929Y-116922147D01*
X84593904Y-116985703D01*
X84587872Y-116992181D01*
X82651070Y-118928982D01*
X82589747Y-118962467D01*
X82520055Y-118957483D01*
X82507095Y-118951786D01*
X82380838Y-118887455D01*
X82201118Y-118829059D01*
X82014486Y-118799500D01*
X82014481Y-118799500D01*
X81825519Y-118799500D01*
X81825514Y-118799500D01*
X81638881Y-118829059D01*
X81459163Y-118887454D01*
X81290797Y-118973242D01*
X81261980Y-118994179D01*
X81196174Y-119017659D01*
X81128120Y-119001834D01*
X81079425Y-118951728D01*
X81065095Y-118893861D01*
X81065095Y-108350523D01*
X81040097Y-108224856D01*
X81040096Y-108224855D01*
X81040096Y-108224851D01*
X81009174Y-108150200D01*
X80991062Y-108106472D01*
X80991061Y-108106470D01*
X80991060Y-108106468D01*
X80989461Y-108104075D01*
X80989459Y-108104068D01*
X80989458Y-108104069D01*
X80919873Y-107999927D01*
X80919867Y-107999920D01*
X76968294Y-104048348D01*
X76934809Y-103987025D01*
X76938043Y-103922351D01*
X76964722Y-103840245D01*
X77000500Y-103614354D01*
X77000500Y-103385646D01*
X76964722Y-103159755D01*
X76964721Y-103159751D01*
X76964721Y-103159750D01*
X76894049Y-102942244D01*
X76881157Y-102916942D01*
X76869927Y-102894902D01*
X76854953Y-102865513D01*
X83299500Y-102865513D01*
X83299500Y-103054486D01*
X83329059Y-103241118D01*
X83387454Y-103420836D01*
X83450888Y-103545331D01*
X83473240Y-103589199D01*
X83584310Y-103742073D01*
X83717927Y-103875690D01*
X83870801Y-103986760D01*
X83950347Y-104027290D01*
X84039163Y-104072545D01*
X84039165Y-104072545D01*
X84039168Y-104072547D01*
X84135497Y-104103846D01*
X84218881Y-104130940D01*
X84405514Y-104160500D01*
X84405519Y-104160500D01*
X84594486Y-104160500D01*
X84781118Y-104130940D01*
X84960832Y-104072547D01*
X85129199Y-103986760D01*
X85282073Y-103875690D01*
X85415690Y-103742073D01*
X85526760Y-103589199D01*
X85612547Y-103420832D01*
X85670940Y-103241118D01*
X85676081Y-103208657D01*
X85700500Y-103054486D01*
X85700500Y-102865513D01*
X85670940Y-102678881D01*
X85643846Y-102595497D01*
X85612547Y-102499168D01*
X85612545Y-102499165D01*
X85612545Y-102499163D01*
X85526759Y-102330800D01*
X85526409Y-102330318D01*
X85415690Y-102177927D01*
X85282073Y-102044310D01*
X85129199Y-101933240D01*
X84960836Y-101847454D01*
X84781118Y-101789059D01*
X84594486Y-101759500D01*
X84594481Y-101759500D01*
X84405519Y-101759500D01*
X84405514Y-101759500D01*
X84218881Y-101789059D01*
X84039163Y-101847454D01*
X83870800Y-101933240D01*
X83783579Y-101996610D01*
X83717927Y-102044310D01*
X83717925Y-102044312D01*
X83717924Y-102044312D01*
X83584312Y-102177924D01*
X83584312Y-102177925D01*
X83584310Y-102177927D01*
X83566299Y-102202717D01*
X83473240Y-102330800D01*
X83387454Y-102499163D01*
X83329059Y-102678881D01*
X83299500Y-102865513D01*
X76854953Y-102865513D01*
X76790217Y-102738462D01*
X76655786Y-102553434D01*
X76494066Y-102391714D01*
X76409559Y-102330316D01*
X76366896Y-102274988D01*
X76360917Y-102205375D01*
X76393523Y-102143580D01*
X76409556Y-102129685D01*
X76494066Y-102068286D01*
X76655786Y-101906566D01*
X76790217Y-101721538D01*
X76894048Y-101517758D01*
X76897093Y-101508386D01*
X76964721Y-101300249D01*
X76964721Y-101300248D01*
X76964722Y-101300245D01*
X77000500Y-101074354D01*
X77000500Y-100845646D01*
X76964722Y-100619755D01*
X76964721Y-100619751D01*
X76964721Y-100619750D01*
X76894049Y-100402244D01*
X76790216Y-100198461D01*
X76655786Y-100013434D01*
X76494066Y-99851714D01*
X76309038Y-99717283D01*
X76105255Y-99613450D01*
X75887748Y-99542778D01*
X75718326Y-99515944D01*
X75661854Y-99507000D01*
X75338146Y-99507000D01*
X75262849Y-99518926D01*
X75112253Y-99542778D01*
X75112250Y-99542778D01*
X74894744Y-99613450D01*
X74690961Y-99717283D01*
X74585396Y-99793980D01*
X74505934Y-99851714D01*
X74505932Y-99851716D01*
X74505931Y-99851716D01*
X74344216Y-100013431D01*
X74344216Y-100013432D01*
X74344214Y-100013434D01*
X74286480Y-100092896D01*
X74209783Y-100198461D01*
X74105950Y-100402244D01*
X74035278Y-100619750D01*
X74035278Y-100619753D01*
X73999500Y-100845646D01*
X73999500Y-101074353D01*
X74035278Y-101300248D01*
X74061954Y-101382350D01*
X74063949Y-101452191D01*
X74031704Y-101508348D01*
X71994726Y-103545326D01*
X71923534Y-103651874D01*
X71874499Y-103770255D01*
X71874497Y-103770261D01*
X71849500Y-103895928D01*
X70500500Y-103895928D01*
X70500500Y-96399983D01*
X81199500Y-96399983D01*
X81199500Y-97600001D01*
X81199501Y-97600018D01*
X81210000Y-97702796D01*
X81210001Y-97702799D01*
X81225681Y-97750116D01*
X81265186Y-97869334D01*
X81357288Y-98018656D01*
X81481344Y-98142712D01*
X81630666Y-98234814D01*
X81797203Y-98289999D01*
X81899991Y-98300500D01*
X83100008Y-98300499D01*
X83202797Y-98289999D01*
X83369334Y-98234814D01*
X83518656Y-98142712D01*
X83642712Y-98018656D01*
X83734814Y-97869334D01*
X83758102Y-97799054D01*
X83762110Y-97791050D01*
X83780060Y-97771772D01*
X83795055Y-97750116D01*
X83803495Y-97746606D01*
X83809725Y-97739917D01*
X83835249Y-97733404D01*
X83859571Y-97723292D01*
X83875834Y-97723048D01*
X83877425Y-97722643D01*
X83878523Y-97723008D01*
X83882719Y-97722946D01*
X83920525Y-97725921D01*
X84600000Y-97046446D01*
X84600000Y-97052661D01*
X84627259Y-97154394D01*
X84679920Y-97245606D01*
X84754394Y-97320080D01*
X84845606Y-97372741D01*
X84947339Y-97400000D01*
X84953553Y-97400000D01*
X84274076Y-98079474D01*
X84318650Y-98111859D01*
X84500968Y-98204755D01*
X84695582Y-98267990D01*
X84897683Y-98300000D01*
X85102317Y-98300000D01*
X85304417Y-98267990D01*
X85499031Y-98204755D01*
X85681349Y-98111859D01*
X85725921Y-98079474D01*
X85046447Y-97400000D01*
X85052661Y-97400000D01*
X85154394Y-97372741D01*
X85245606Y-97320080D01*
X85320080Y-97245606D01*
X85372741Y-97154394D01*
X85400000Y-97052661D01*
X85400000Y-97046447D01*
X86079474Y-97725921D01*
X86111859Y-97681349D01*
X86204755Y-97499031D01*
X86267990Y-97304417D01*
X86300000Y-97102317D01*
X86300000Y-96897682D01*
X86267990Y-96695582D01*
X86204755Y-96500968D01*
X86111859Y-96318650D01*
X86079474Y-96274077D01*
X86079474Y-96274076D01*
X85400000Y-96953551D01*
X85400000Y-96947339D01*
X85372741Y-96845606D01*
X85320080Y-96754394D01*
X85245606Y-96679920D01*
X85154394Y-96627259D01*
X85052661Y-96600000D01*
X85046446Y-96600000D01*
X85725922Y-95920524D01*
X85725921Y-95920523D01*
X85681359Y-95888147D01*
X85681350Y-95888141D01*
X85499031Y-95795244D01*
X85304417Y-95732009D01*
X85102317Y-95700000D01*
X84897683Y-95700000D01*
X84695582Y-95732009D01*
X84500968Y-95795244D01*
X84318644Y-95888143D01*
X84274077Y-95920523D01*
X84274077Y-95920524D01*
X84953554Y-96600000D01*
X84947339Y-96600000D01*
X84845606Y-96627259D01*
X84754394Y-96679920D01*
X84679920Y-96754394D01*
X84627259Y-96845606D01*
X84600000Y-96947339D01*
X84600000Y-96953553D01*
X83920524Y-96274077D01*
X83882719Y-96277053D01*
X83814341Y-96262689D01*
X83764584Y-96213638D01*
X83762110Y-96208949D01*
X83758101Y-96200942D01*
X83734814Y-96130666D01*
X83642712Y-95981344D01*
X83518656Y-95857288D01*
X83396714Y-95782074D01*
X83369336Y-95765187D01*
X83369331Y-95765185D01*
X83367862Y-95764698D01*
X83202797Y-95710001D01*
X83202795Y-95710000D01*
X83100010Y-95699500D01*
X81899998Y-95699500D01*
X81899981Y-95699501D01*
X81797203Y-95710000D01*
X81797200Y-95710001D01*
X81630668Y-95765185D01*
X81630663Y-95765187D01*
X81481342Y-95857289D01*
X81357289Y-95981342D01*
X81265187Y-96130663D01*
X81265186Y-96130666D01*
X81210001Y-96297203D01*
X81210001Y-96297204D01*
X81210000Y-96297204D01*
X81199500Y-96399983D01*
X70500500Y-96399983D01*
X70500500Y-94905513D01*
X70759500Y-94905513D01*
X70759500Y-95094486D01*
X70789059Y-95281118D01*
X70847454Y-95460836D01*
X70908302Y-95580255D01*
X70933240Y-95629199D01*
X71044310Y-95782073D01*
X71177927Y-95915690D01*
X71330801Y-96026760D01*
X71355699Y-96039446D01*
X71499163Y-96112545D01*
X71499165Y-96112545D01*
X71499168Y-96112547D01*
X71581151Y-96139185D01*
X71678881Y-96170940D01*
X71865514Y-96200500D01*
X71865519Y-96200500D01*
X72054486Y-96200500D01*
X72241118Y-96170940D01*
X72420832Y-96112547D01*
X72589199Y-96026760D01*
X72742073Y-95915690D01*
X72875690Y-95782073D01*
X72986760Y-95629199D01*
X73072547Y-95460832D01*
X73130940Y-95281118D01*
X73151266Y-95152786D01*
X73160500Y-95094486D01*
X73160500Y-94905513D01*
X75839500Y-94905513D01*
X75839500Y-95094486D01*
X75869059Y-95281118D01*
X75927454Y-95460836D01*
X75988302Y-95580255D01*
X76013240Y-95629199D01*
X76124310Y-95782073D01*
X76257927Y-95915690D01*
X76410801Y-96026760D01*
X76435699Y-96039446D01*
X76579163Y-96112545D01*
X76579165Y-96112545D01*
X76579168Y-96112547D01*
X76661151Y-96139185D01*
X76758881Y-96170940D01*
X76945514Y-96200500D01*
X76945519Y-96200500D01*
X77134486Y-96200500D01*
X77321118Y-96170940D01*
X77500832Y-96112547D01*
X77669199Y-96026760D01*
X77822073Y-95915690D01*
X77955690Y-95782073D01*
X78066760Y-95629199D01*
X78152547Y-95460832D01*
X78210940Y-95281118D01*
X78231266Y-95152786D01*
X78240500Y-95094486D01*
X78240500Y-94905513D01*
X78210940Y-94718881D01*
X78152545Y-94539163D01*
X78081800Y-94400319D01*
X78066760Y-94370801D01*
X77955690Y-94217927D01*
X77822073Y-94084310D01*
X77669199Y-93973240D01*
X77500836Y-93887454D01*
X77321118Y-93829059D01*
X77134486Y-93799500D01*
X77134481Y-93799500D01*
X76945519Y-93799500D01*
X76945514Y-93799500D01*
X76758881Y-93829059D01*
X76579163Y-93887454D01*
X76410800Y-93973240D01*
X76323579Y-94036610D01*
X76257927Y-94084310D01*
X76257925Y-94084312D01*
X76257924Y-94084312D01*
X76124312Y-94217924D01*
X76124312Y-94217925D01*
X76124310Y-94217927D01*
X76076610Y-94283579D01*
X76013240Y-94370800D01*
X75927454Y-94539163D01*
X75869059Y-94718881D01*
X75839500Y-94905513D01*
X73160500Y-94905513D01*
X73130940Y-94718881D01*
X73072545Y-94539163D01*
X73001800Y-94400319D01*
X72986760Y-94370801D01*
X72875690Y-94217927D01*
X72742073Y-94084310D01*
X72589199Y-93973240D01*
X72420836Y-93887454D01*
X72241118Y-93829059D01*
X72054486Y-93799500D01*
X72054481Y-93799500D01*
X71865519Y-93799500D01*
X71865514Y-93799500D01*
X71678881Y-93829059D01*
X71499163Y-93887454D01*
X71330800Y-93973240D01*
X71243579Y-94036610D01*
X71177927Y-94084310D01*
X71177925Y-94084312D01*
X71177924Y-94084312D01*
X71044312Y-94217924D01*
X71044312Y-94217925D01*
X71044310Y-94217927D01*
X70996610Y-94283579D01*
X70933240Y-94370800D01*
X70847454Y-94539163D01*
X70789059Y-94718881D01*
X70759500Y-94905513D01*
X70500500Y-94905513D01*
X70500500Y-90643311D01*
X70520185Y-90576272D01*
X70572989Y-90530517D01*
X70642147Y-90520573D01*
X70705703Y-90549598D01*
X70712181Y-90555630D01*
X70877345Y-90720794D01*
X70877350Y-90720798D01*
X71049135Y-90845606D01*
X71081155Y-90868870D01*
X71224184Y-90941747D01*
X71305616Y-90983239D01*
X71305618Y-90983239D01*
X71305621Y-90983241D01*
X71545215Y-91061090D01*
X71794038Y-91100500D01*
X71794039Y-91100500D01*
X72045961Y-91100500D01*
X72045962Y-91100500D01*
X72294785Y-91061090D01*
X72534379Y-90983241D01*
X72758845Y-90868870D01*
X72962656Y-90720793D01*
X73140793Y-90542656D01*
X73288870Y-90338845D01*
X73403241Y-90114379D01*
X73481090Y-89874785D01*
X73520500Y-89625962D01*
X73520500Y-89374038D01*
X73481090Y-89125215D01*
X73403241Y-88885621D01*
X73403239Y-88885618D01*
X73403239Y-88885616D01*
X73288869Y-88661154D01*
X73288865Y-88661148D01*
X73244426Y-88599982D01*
X80479500Y-88599982D01*
X80479500Y-90400017D01*
X80490000Y-90502796D01*
X80531243Y-90627259D01*
X80545186Y-90669335D01*
X80637288Y-90818656D01*
X80761344Y-90942712D01*
X80910665Y-91034814D01*
X81077202Y-91089999D01*
X81179990Y-91100500D01*
X81179995Y-91100500D01*
X82980005Y-91100500D01*
X82980010Y-91100500D01*
X83082798Y-91089999D01*
X83249335Y-91034814D01*
X83398656Y-90942712D01*
X83443720Y-90897648D01*
X85699500Y-90897648D01*
X85699500Y-91102351D01*
X85731522Y-91304534D01*
X85794781Y-91499223D01*
X85837248Y-91582567D01*
X85887585Y-91681359D01*
X85887715Y-91681613D01*
X86008028Y-91847213D01*
X86152786Y-91991971D01*
X86273226Y-92079474D01*
X86318390Y-92112287D01*
X86434607Y-92171503D01*
X86500776Y-92205218D01*
X86500778Y-92205218D01*
X86500781Y-92205220D01*
X86528416Y-92214199D01*
X86695465Y-92268477D01*
X86796557Y-92284488D01*
X86897648Y-92300500D01*
X86897649Y-92300500D01*
X87102351Y-92300500D01*
X87102352Y-92300500D01*
X87304534Y-92268477D01*
X87499219Y-92205220D01*
X87681610Y-92112287D01*
X87774590Y-92044732D01*
X87847213Y-91991971D01*
X87847215Y-91991968D01*
X87847219Y-91991966D01*
X87991966Y-91847219D01*
X87991968Y-91847215D01*
X87991971Y-91847213D01*
X88095369Y-91704896D01*
X88112287Y-91681610D01*
X88139795Y-91627621D01*
X88187769Y-91576826D01*
X88255589Y-91560030D01*
X88321725Y-91582567D01*
X88360765Y-91627621D01*
X88388141Y-91681350D01*
X88388147Y-91681359D01*
X88420523Y-91725921D01*
X88420524Y-91725922D01*
X89100000Y-91046446D01*
X89100000Y-91052661D01*
X89127259Y-91154394D01*
X89179920Y-91245606D01*
X89254394Y-91320080D01*
X89345606Y-91372741D01*
X89447339Y-91400000D01*
X89453553Y-91400000D01*
X88774076Y-92079474D01*
X88818650Y-92111859D01*
X89000968Y-92204755D01*
X89195582Y-92267990D01*
X89397683Y-92300000D01*
X89602317Y-92300000D01*
X89804417Y-92267990D01*
X89999031Y-92204755D01*
X90181349Y-92111859D01*
X90225921Y-92079474D01*
X89546447Y-91400000D01*
X89552661Y-91400000D01*
X89654394Y-91372741D01*
X89745606Y-91320080D01*
X89820080Y-91245606D01*
X89872741Y-91154394D01*
X89900000Y-91052661D01*
X89900000Y-91046447D01*
X90579474Y-91725921D01*
X90611859Y-91681349D01*
X90704755Y-91499031D01*
X90767990Y-91304417D01*
X90800000Y-91102317D01*
X90800000Y-90897682D01*
X90767990Y-90695582D01*
X90704755Y-90500968D01*
X90611859Y-90318650D01*
X90579474Y-90274077D01*
X90579474Y-90274076D01*
X89900000Y-90953551D01*
X89900000Y-90947339D01*
X89872741Y-90845606D01*
X89820080Y-90754394D01*
X89745606Y-90679920D01*
X89654394Y-90627259D01*
X89552661Y-90600000D01*
X89546446Y-90600000D01*
X90225922Y-89920524D01*
X90225921Y-89920523D01*
X90181359Y-89888147D01*
X90181350Y-89888141D01*
X89999031Y-89795244D01*
X89804417Y-89732009D01*
X89602317Y-89700000D01*
X89397683Y-89700000D01*
X89195582Y-89732009D01*
X89000968Y-89795244D01*
X88818644Y-89888143D01*
X88774077Y-89920523D01*
X88774077Y-89920524D01*
X89453554Y-90600000D01*
X89447339Y-90600000D01*
X89345606Y-90627259D01*
X89254394Y-90679920D01*
X89179920Y-90754394D01*
X89127259Y-90845606D01*
X89100000Y-90947339D01*
X89100000Y-90953553D01*
X88420524Y-90274077D01*
X88420523Y-90274077D01*
X88388143Y-90318644D01*
X88360765Y-90372378D01*
X88312790Y-90423174D01*
X88244969Y-90439969D01*
X88178834Y-90417431D01*
X88139795Y-90372378D01*
X88112287Y-90318390D01*
X88112285Y-90318387D01*
X88112284Y-90318385D01*
X87991971Y-90152786D01*
X87847213Y-90008028D01*
X87681613Y-89887715D01*
X87681612Y-89887714D01*
X87681610Y-89887713D01*
X87624653Y-89858691D01*
X87499223Y-89794781D01*
X87304534Y-89731522D01*
X87129995Y-89703878D01*
X87102352Y-89699500D01*
X86897648Y-89699500D01*
X86873329Y-89703351D01*
X86695465Y-89731522D01*
X86500776Y-89794781D01*
X86318386Y-89887715D01*
X86152786Y-90008028D01*
X86008028Y-90152786D01*
X85887715Y-90318386D01*
X85794781Y-90500776D01*
X85731522Y-90695465D01*
X85699500Y-90897648D01*
X83443720Y-90897648D01*
X83522712Y-90818656D01*
X83614814Y-90669335D01*
X83669999Y-90502798D01*
X83680500Y-90400010D01*
X83680500Y-88599990D01*
X83669999Y-88497202D01*
X83614814Y-88330665D01*
X83522712Y-88181344D01*
X83398656Y-88057288D01*
X83249335Y-87965186D01*
X83082798Y-87910001D01*
X83082796Y-87910000D01*
X82980017Y-87899500D01*
X82980010Y-87899500D01*
X81179990Y-87899500D01*
X81179982Y-87899500D01*
X81077203Y-87910000D01*
X81077202Y-87910001D01*
X80994669Y-87937349D01*
X80910667Y-87965185D01*
X80910662Y-87965187D01*
X80761342Y-88057289D01*
X80637289Y-88181342D01*
X80545187Y-88330662D01*
X80545186Y-88330665D01*
X80490001Y-88497202D01*
X80490001Y-88497203D01*
X80490000Y-88497203D01*
X80479500Y-88599982D01*
X73244426Y-88599982D01*
X73140798Y-88457350D01*
X73140794Y-88457345D01*
X72962654Y-88279205D01*
X72962649Y-88279201D01*
X72758848Y-88131132D01*
X72758847Y-88131131D01*
X72758845Y-88131130D01*
X72688747Y-88095413D01*
X72534383Y-88016760D01*
X72294785Y-87938910D01*
X72045962Y-87899500D01*
X71794038Y-87899500D01*
X71727738Y-87910001D01*
X71545214Y-87938910D01*
X71305616Y-88016760D01*
X71081151Y-88131132D01*
X70877350Y-88279201D01*
X70877345Y-88279205D01*
X70712181Y-88444370D01*
X70650858Y-88477855D01*
X70581166Y-88472871D01*
X70525233Y-88430999D01*
X70500816Y-88365535D01*
X70500500Y-88356689D01*
X70500500Y-81349778D01*
X74099500Y-81349778D01*
X74099500Y-81570221D01*
X74133985Y-81787952D01*
X74202103Y-81997603D01*
X74202104Y-81997606D01*
X74302187Y-82194025D01*
X74431752Y-82372358D01*
X74431756Y-82372363D01*
X74482316Y-82422923D01*
X74515801Y-82484246D01*
X74510817Y-82553938D01*
X74468945Y-82609871D01*
X74437969Y-82626785D01*
X74357918Y-82656643D01*
X74357906Y-82656649D01*
X74242812Y-82742809D01*
X74242809Y-82742812D01*
X74156649Y-82857906D01*
X74156645Y-82857913D01*
X74106403Y-82992620D01*
X74106401Y-82992627D01*
X74100000Y-83052155D01*
X74100000Y-83750000D01*
X75124722Y-83750000D01*
X75080667Y-83826306D01*
X75050000Y-83940756D01*
X75050000Y-84059244D01*
X75080667Y-84173694D01*
X75124722Y-84250000D01*
X74100000Y-84250000D01*
X74100000Y-84947844D01*
X74106401Y-85007372D01*
X74106403Y-85007379D01*
X74156645Y-85142086D01*
X74156649Y-85142093D01*
X74242809Y-85257187D01*
X74242812Y-85257190D01*
X74357906Y-85343350D01*
X74357913Y-85343354D01*
X74492620Y-85393596D01*
X74492627Y-85393598D01*
X74552155Y-85399999D01*
X74552172Y-85400000D01*
X75250000Y-85400000D01*
X75250000Y-84375277D01*
X75326306Y-84419333D01*
X75440756Y-84450000D01*
X75559244Y-84450000D01*
X75673694Y-84419333D01*
X75750000Y-84375277D01*
X75750000Y-85400000D01*
X76447828Y-85400000D01*
X76447844Y-85399999D01*
X76507372Y-85393598D01*
X76507379Y-85393596D01*
X76642086Y-85343354D01*
X76642093Y-85343350D01*
X76708612Y-85293553D01*
X76708617Y-85293550D01*
X76757190Y-85257187D01*
X76843350Y-85142093D01*
X76843354Y-85142086D01*
X76893596Y-85007379D01*
X76893598Y-85007372D01*
X76899999Y-84947844D01*
X76900000Y-84947827D01*
X76900000Y-84250000D01*
X75875278Y-84250000D01*
X75919333Y-84173694D01*
X75950000Y-84059244D01*
X75950000Y-83940756D01*
X75919333Y-83826306D01*
X75875278Y-83750000D01*
X76900000Y-83750000D01*
X76900000Y-83052172D01*
X76899999Y-83052155D01*
X76893598Y-82992627D01*
X76893596Y-82992620D01*
X76843354Y-82857913D01*
X76843350Y-82857906D01*
X76757190Y-82742812D01*
X76757187Y-82742809D01*
X76642093Y-82656649D01*
X76642087Y-82656646D01*
X76562030Y-82626786D01*
X76537516Y-82608435D01*
X76511736Y-82591905D01*
X76509806Y-82587690D01*
X76506097Y-82584914D01*
X76495396Y-82556224D01*
X76482645Y-82528380D01*
X76483299Y-82523792D01*
X76481680Y-82519450D01*
X76488190Y-82489523D01*
X76492516Y-82459211D01*
X76495820Y-82454445D01*
X76496532Y-82451177D01*
X76511566Y-82429500D01*
X76514498Y-82426108D01*
X76540623Y-82399983D01*
X83199500Y-82399983D01*
X83199500Y-83600001D01*
X83199501Y-83600018D01*
X83210000Y-83702796D01*
X83210001Y-83702799D01*
X83250928Y-83826306D01*
X83265186Y-83869334D01*
X83357288Y-84018656D01*
X83481344Y-84142712D01*
X83630666Y-84234814D01*
X83692440Y-84255284D01*
X83749884Y-84295055D01*
X83776707Y-84359571D01*
X83777053Y-84382719D01*
X83774077Y-84420524D01*
X84453554Y-85100000D01*
X84447339Y-85100000D01*
X84345606Y-85127259D01*
X84254394Y-85179920D01*
X84179920Y-85254394D01*
X84127259Y-85345606D01*
X84100000Y-85447339D01*
X84100000Y-85453553D01*
X83420524Y-84774077D01*
X83420523Y-84774077D01*
X83388143Y-84818644D01*
X83295244Y-85000968D01*
X83232009Y-85195582D01*
X83200000Y-85397682D01*
X83200000Y-85602317D01*
X83232009Y-85804417D01*
X83295244Y-85999031D01*
X83388141Y-86181350D01*
X83388147Y-86181359D01*
X83420523Y-86225921D01*
X83420524Y-86225922D01*
X84100000Y-85546446D01*
X84100000Y-85552661D01*
X84127259Y-85654394D01*
X84179920Y-85745606D01*
X84254394Y-85820080D01*
X84345606Y-85872741D01*
X84447339Y-85900000D01*
X84453553Y-85900000D01*
X83774076Y-86579474D01*
X83818650Y-86611859D01*
X84000968Y-86704755D01*
X84195582Y-86767990D01*
X84397683Y-86800000D01*
X84602317Y-86800000D01*
X84804417Y-86767990D01*
X84999031Y-86704755D01*
X85181349Y-86611859D01*
X85225921Y-86579474D01*
X84546447Y-85900000D01*
X84552661Y-85900000D01*
X84654394Y-85872741D01*
X84745606Y-85820080D01*
X84820080Y-85745606D01*
X84872741Y-85654394D01*
X84900000Y-85552661D01*
X84900000Y-85546447D01*
X85579474Y-86225921D01*
X85611859Y-86181349D01*
X85704755Y-85999031D01*
X85767990Y-85804417D01*
X85800000Y-85602317D01*
X85800000Y-85397682D01*
X85767990Y-85195585D01*
X85767990Y-85195582D01*
X85704755Y-85000968D01*
X85611859Y-84818650D01*
X85579474Y-84774077D01*
X85579474Y-84774076D01*
X84900000Y-85453551D01*
X84900000Y-85447339D01*
X84872741Y-85345606D01*
X84820080Y-85254394D01*
X84745606Y-85179920D01*
X84654394Y-85127259D01*
X84552661Y-85100000D01*
X84546446Y-85100000D01*
X85225921Y-84420525D01*
X85222946Y-84382719D01*
X85237310Y-84314341D01*
X85286361Y-84264584D01*
X85307555Y-84255285D01*
X85369334Y-84234814D01*
X85518656Y-84142712D01*
X85642712Y-84018656D01*
X85727034Y-83881947D01*
X94000000Y-83881947D01*
X94000000Y-84118052D01*
X94036934Y-84351247D01*
X94109897Y-84575802D01*
X94217087Y-84786174D01*
X94277338Y-84869104D01*
X94277340Y-84869105D01*
X94935387Y-84211058D01*
X94940889Y-84231591D01*
X95019881Y-84368408D01*
X95131592Y-84480119D01*
X95268409Y-84559111D01*
X95288940Y-84564612D01*
X94630893Y-85222658D01*
X94713828Y-85282914D01*
X94924197Y-85390102D01*
X95148752Y-85463065D01*
X95148751Y-85463065D01*
X95381948Y-85500000D01*
X95618052Y-85500000D01*
X95851247Y-85463065D01*
X96075802Y-85390102D01*
X96286163Y-85282918D01*
X96286169Y-85282914D01*
X96369104Y-85222658D01*
X96369105Y-85222658D01*
X95711058Y-84564612D01*
X95731591Y-84559111D01*
X95868408Y-84480119D01*
X95980119Y-84368408D01*
X96059111Y-84231591D01*
X96064612Y-84211058D01*
X96503181Y-84649627D01*
X96536666Y-84710950D01*
X96539500Y-84737306D01*
X96539500Y-84800000D01*
X96539501Y-84800019D01*
X96550000Y-84902796D01*
X96550001Y-84902799D01*
X96584654Y-85007372D01*
X96605186Y-85069334D01*
X96697288Y-85218656D01*
X96821344Y-85342712D01*
X96970666Y-85434814D01*
X97137203Y-85489999D01*
X97239991Y-85500500D01*
X98840008Y-85500499D01*
X98942797Y-85489999D01*
X99109334Y-85434814D01*
X99258656Y-85342712D01*
X99382712Y-85218656D01*
X99474814Y-85069334D01*
X99529999Y-84902797D01*
X99540500Y-84800009D01*
X99540499Y-83199992D01*
X99529999Y-83097203D01*
X99474814Y-82930666D01*
X99382712Y-82781344D01*
X99258656Y-82657288D01*
X99145819Y-82587690D01*
X99109336Y-82565187D01*
X99109331Y-82565185D01*
X99107862Y-82564698D01*
X98942797Y-82510001D01*
X98942795Y-82510000D01*
X98840010Y-82499500D01*
X97239998Y-82499500D01*
X97239981Y-82499501D01*
X97137203Y-82510000D01*
X97137200Y-82510001D01*
X96970668Y-82565185D01*
X96970663Y-82565187D01*
X96821342Y-82657289D01*
X96697289Y-82781342D01*
X96605187Y-82930663D01*
X96605186Y-82930666D01*
X96550001Y-83097203D01*
X96550001Y-83097204D01*
X96550000Y-83097204D01*
X96539500Y-83199983D01*
X96539500Y-83262691D01*
X96519815Y-83329730D01*
X96503181Y-83350372D01*
X96064612Y-83788940D01*
X96059111Y-83768409D01*
X95980119Y-83631592D01*
X95868408Y-83519881D01*
X95731591Y-83440889D01*
X95711059Y-83435387D01*
X96369105Y-82777340D01*
X96369104Y-82777338D01*
X96286174Y-82717087D01*
X96075802Y-82609897D01*
X95851247Y-82536934D01*
X95851248Y-82536934D01*
X95618052Y-82500000D01*
X95381948Y-82500000D01*
X95148752Y-82536934D01*
X94924197Y-82609897D01*
X94713830Y-82717084D01*
X94630894Y-82777340D01*
X95288941Y-83435387D01*
X95268409Y-83440889D01*
X95131592Y-83519881D01*
X95019881Y-83631592D01*
X94940889Y-83768409D01*
X94935387Y-83788941D01*
X94277340Y-83130894D01*
X94217084Y-83213830D01*
X94109897Y-83424197D01*
X94036934Y-83648752D01*
X94000000Y-83881947D01*
X85727034Y-83881947D01*
X85734814Y-83869334D01*
X85789999Y-83702797D01*
X85800500Y-83600009D01*
X85800499Y-82399992D01*
X85789999Y-82297203D01*
X85734814Y-82130666D01*
X85642712Y-81981344D01*
X85518656Y-81857288D01*
X85369334Y-81765186D01*
X85202797Y-81710001D01*
X85202795Y-81710000D01*
X85100010Y-81699500D01*
X83899998Y-81699500D01*
X83899981Y-81699501D01*
X83797203Y-81710000D01*
X83797200Y-81710001D01*
X83630668Y-81765185D01*
X83630663Y-81765187D01*
X83481342Y-81857289D01*
X83357289Y-81981342D01*
X83265187Y-82130663D01*
X83265186Y-82130666D01*
X83210001Y-82297203D01*
X83210001Y-82297204D01*
X83210000Y-82297204D01*
X83199500Y-82399983D01*
X76540623Y-82399983D01*
X76568242Y-82372365D01*
X76697815Y-82194022D01*
X76797895Y-81997606D01*
X76866015Y-81787951D01*
X76900500Y-81570222D01*
X76900500Y-81349778D01*
X76866015Y-81132049D01*
X76797895Y-80922394D01*
X76797895Y-80922393D01*
X76763237Y-80854375D01*
X76697815Y-80725978D01*
X76681260Y-80703192D01*
X76568247Y-80547641D01*
X76568243Y-80547636D01*
X76412363Y-80391756D01*
X76412358Y-80391752D01*
X76234025Y-80262187D01*
X76234024Y-80262186D01*
X76234022Y-80262185D01*
X76171096Y-80230122D01*
X76037606Y-80162104D01*
X76037603Y-80162103D01*
X75827952Y-80093985D01*
X75719086Y-80076742D01*
X75610222Y-80059500D01*
X75389778Y-80059500D01*
X75317201Y-80070995D01*
X75172047Y-80093985D01*
X74962396Y-80162103D01*
X74962393Y-80162104D01*
X74765974Y-80262187D01*
X74587641Y-80391752D01*
X74587636Y-80391756D01*
X74431756Y-80547636D01*
X74431752Y-80547641D01*
X74302187Y-80725974D01*
X74202104Y-80922393D01*
X74202103Y-80922396D01*
X74133985Y-81132047D01*
X74099500Y-81349778D01*
X70500500Y-81349778D01*
X70500500Y-78624500D01*
X70520185Y-78557461D01*
X70572989Y-78511706D01*
X70624500Y-78500500D01*
X101375500Y-78500500D01*
X101442539Y-78520185D01*
G37*
%TD.AperFunction*%
%TD*%
M02*
