%TF.GenerationSoftware,KiCad,Pcbnew,10.0.3*%
%TF.CreationDate,2026-05-22T04:08:24-07:00*%
%TF.ProjectId,PCBProject,50434250-726f-46a6-9563-742e6b696361,rev?*%
%TF.SameCoordinates,Original*%
%TF.FileFunction,Legend,Top*%
%TF.FilePolarity,Positive*%
%FSLAX46Y46*%
G04 Gerber Fmt 4.6, Leading zero omitted, Abs format (unit mm)*
G04 Created by KiCad (PCBNEW 10.0.3) date 2026-05-22 04:08:24*
%MOMM*%
%LPD*%
G01*
G04 APERTURE LIST*
%ADD10C,0.150000*%
%ADD11C,0.120000*%
G04 APERTURE END LIST*
D10*
X92454819Y-122238094D02*
X91454819Y-122238094D01*
X91454819Y-122238094D02*
X91454819Y-121999999D01*
X91454819Y-121999999D02*
X91502438Y-121857142D01*
X91502438Y-121857142D02*
X91597676Y-121761904D01*
X91597676Y-121761904D02*
X91692914Y-121714285D01*
X91692914Y-121714285D02*
X91883390Y-121666666D01*
X91883390Y-121666666D02*
X92026247Y-121666666D01*
X92026247Y-121666666D02*
X92216723Y-121714285D01*
X92216723Y-121714285D02*
X92311961Y-121761904D01*
X92311961Y-121761904D02*
X92407200Y-121857142D01*
X92407200Y-121857142D02*
X92454819Y-121999999D01*
X92454819Y-121999999D02*
X92454819Y-122238094D01*
X91788152Y-120809523D02*
X92454819Y-120809523D01*
X91407200Y-121047618D02*
X92121485Y-121285713D01*
X92121485Y-121285713D02*
X92121485Y-120666666D01*
X76261905Y-92424819D02*
X76261905Y-91424819D01*
X76261905Y-91424819D02*
X76500000Y-91424819D01*
X76500000Y-91424819D02*
X76642857Y-91472438D01*
X76642857Y-91472438D02*
X76738095Y-91567676D01*
X76738095Y-91567676D02*
X76785714Y-91662914D01*
X76785714Y-91662914D02*
X76833333Y-91853390D01*
X76833333Y-91853390D02*
X76833333Y-91996247D01*
X76833333Y-91996247D02*
X76785714Y-92186723D01*
X76785714Y-92186723D02*
X76738095Y-92281961D01*
X76738095Y-92281961D02*
X76642857Y-92377200D01*
X76642857Y-92377200D02*
X76500000Y-92424819D01*
X76500000Y-92424819D02*
X76261905Y-92424819D01*
X77214286Y-91520057D02*
X77261905Y-91472438D01*
X77261905Y-91472438D02*
X77357143Y-91424819D01*
X77357143Y-91424819D02*
X77595238Y-91424819D01*
X77595238Y-91424819D02*
X77690476Y-91472438D01*
X77690476Y-91472438D02*
X77738095Y-91520057D01*
X77738095Y-91520057D02*
X77785714Y-91615295D01*
X77785714Y-91615295D02*
X77785714Y-91710533D01*
X77785714Y-91710533D02*
X77738095Y-91853390D01*
X77738095Y-91853390D02*
X77166667Y-92424819D01*
X77166667Y-92424819D02*
X77785714Y-92424819D01*
X72238095Y-87954819D02*
X72238095Y-86954819D01*
X72809523Y-87954819D02*
X72380952Y-87383390D01*
X72809523Y-86954819D02*
X72238095Y-87526247D01*
X73238095Y-126954819D02*
X73809523Y-126954819D01*
X73523809Y-127954819D02*
X73523809Y-126954819D01*
X74666666Y-127954819D02*
X74095238Y-127954819D01*
X74380952Y-127954819D02*
X74380952Y-126954819D01*
X74380952Y-126954819D02*
X74285714Y-127097676D01*
X74285714Y-127097676D02*
X74190476Y-127192914D01*
X74190476Y-127192914D02*
X74095238Y-127240533D01*
X71994819Y-83468094D02*
X70994819Y-83468094D01*
X70994819Y-83468094D02*
X70994819Y-83229999D01*
X70994819Y-83229999D02*
X71042438Y-83087142D01*
X71042438Y-83087142D02*
X71137676Y-82991904D01*
X71137676Y-82991904D02*
X71232914Y-82944285D01*
X71232914Y-82944285D02*
X71423390Y-82896666D01*
X71423390Y-82896666D02*
X71566247Y-82896666D01*
X71566247Y-82896666D02*
X71756723Y-82944285D01*
X71756723Y-82944285D02*
X71851961Y-82991904D01*
X71851961Y-82991904D02*
X71947200Y-83087142D01*
X71947200Y-83087142D02*
X71994819Y-83229999D01*
X71994819Y-83229999D02*
X71994819Y-83468094D01*
X70994819Y-82563332D02*
X70994819Y-81944285D01*
X70994819Y-81944285D02*
X71375771Y-82277618D01*
X71375771Y-82277618D02*
X71375771Y-82134761D01*
X71375771Y-82134761D02*
X71423390Y-82039523D01*
X71423390Y-82039523D02*
X71471009Y-81991904D01*
X71471009Y-81991904D02*
X71566247Y-81944285D01*
X71566247Y-81944285D02*
X71804342Y-81944285D01*
X71804342Y-81944285D02*
X71899580Y-81991904D01*
X71899580Y-81991904D02*
X71947200Y-82039523D01*
X71947200Y-82039523D02*
X71994819Y-82134761D01*
X71994819Y-82134761D02*
X71994819Y-82420475D01*
X71994819Y-82420475D02*
X71947200Y-82515713D01*
X71947200Y-82515713D02*
X71899580Y-82563332D01*
X93954819Y-93595238D02*
X93478628Y-93928571D01*
X93954819Y-94166666D02*
X92954819Y-94166666D01*
X92954819Y-94166666D02*
X92954819Y-93785714D01*
X92954819Y-93785714D02*
X93002438Y-93690476D01*
X93002438Y-93690476D02*
X93050057Y-93642857D01*
X93050057Y-93642857D02*
X93145295Y-93595238D01*
X93145295Y-93595238D02*
X93288152Y-93595238D01*
X93288152Y-93595238D02*
X93383390Y-93642857D01*
X93383390Y-93642857D02*
X93431009Y-93690476D01*
X93431009Y-93690476D02*
X93478628Y-93785714D01*
X93478628Y-93785714D02*
X93478628Y-94166666D01*
X92954819Y-93309523D02*
X93954819Y-92976190D01*
X93954819Y-92976190D02*
X92954819Y-92642857D01*
X93954819Y-91785714D02*
X93954819Y-92357142D01*
X93954819Y-92071428D02*
X92954819Y-92071428D01*
X92954819Y-92071428D02*
X93097676Y-92166666D01*
X93097676Y-92166666D02*
X93192914Y-92261904D01*
X93192914Y-92261904D02*
X93240533Y-92357142D01*
X97214285Y-88431009D02*
X97357142Y-88478628D01*
X97357142Y-88478628D02*
X97404761Y-88526247D01*
X97404761Y-88526247D02*
X97452380Y-88621485D01*
X97452380Y-88621485D02*
X97452380Y-88764342D01*
X97452380Y-88764342D02*
X97404761Y-88859580D01*
X97404761Y-88859580D02*
X97357142Y-88907200D01*
X97357142Y-88907200D02*
X97261904Y-88954819D01*
X97261904Y-88954819D02*
X96880952Y-88954819D01*
X96880952Y-88954819D02*
X96880952Y-87954819D01*
X96880952Y-87954819D02*
X97214285Y-87954819D01*
X97214285Y-87954819D02*
X97309523Y-88002438D01*
X97309523Y-88002438D02*
X97357142Y-88050057D01*
X97357142Y-88050057D02*
X97404761Y-88145295D01*
X97404761Y-88145295D02*
X97404761Y-88240533D01*
X97404761Y-88240533D02*
X97357142Y-88335771D01*
X97357142Y-88335771D02*
X97309523Y-88383390D01*
X97309523Y-88383390D02*
X97214285Y-88431009D01*
X97214285Y-88431009D02*
X96880952Y-88431009D01*
X97738095Y-87954819D02*
X98309523Y-87954819D01*
X98023809Y-88954819D02*
X98023809Y-87954819D01*
X98595238Y-88050057D02*
X98642857Y-88002438D01*
X98642857Y-88002438D02*
X98738095Y-87954819D01*
X98738095Y-87954819D02*
X98976190Y-87954819D01*
X98976190Y-87954819D02*
X99071428Y-88002438D01*
X99071428Y-88002438D02*
X99119047Y-88050057D01*
X99119047Y-88050057D02*
X99166666Y-88145295D01*
X99166666Y-88145295D02*
X99166666Y-88240533D01*
X99166666Y-88240533D02*
X99119047Y-88383390D01*
X99119047Y-88383390D02*
X98547619Y-88954819D01*
X98547619Y-88954819D02*
X99166666Y-88954819D01*
X88333333Y-82859580D02*
X88285714Y-82907200D01*
X88285714Y-82907200D02*
X88142857Y-82954819D01*
X88142857Y-82954819D02*
X88047619Y-82954819D01*
X88047619Y-82954819D02*
X87904762Y-82907200D01*
X87904762Y-82907200D02*
X87809524Y-82811961D01*
X87809524Y-82811961D02*
X87761905Y-82716723D01*
X87761905Y-82716723D02*
X87714286Y-82526247D01*
X87714286Y-82526247D02*
X87714286Y-82383390D01*
X87714286Y-82383390D02*
X87761905Y-82192914D01*
X87761905Y-82192914D02*
X87809524Y-82097676D01*
X87809524Y-82097676D02*
X87904762Y-82002438D01*
X87904762Y-82002438D02*
X88047619Y-81954819D01*
X88047619Y-81954819D02*
X88142857Y-81954819D01*
X88142857Y-81954819D02*
X88285714Y-82002438D01*
X88285714Y-82002438D02*
X88333333Y-82050057D01*
X88714286Y-82050057D02*
X88761905Y-82002438D01*
X88761905Y-82002438D02*
X88857143Y-81954819D01*
X88857143Y-81954819D02*
X89095238Y-81954819D01*
X89095238Y-81954819D02*
X89190476Y-82002438D01*
X89190476Y-82002438D02*
X89238095Y-82050057D01*
X89238095Y-82050057D02*
X89285714Y-82145295D01*
X89285714Y-82145295D02*
X89285714Y-82240533D01*
X89285714Y-82240533D02*
X89238095Y-82383390D01*
X89238095Y-82383390D02*
X88666667Y-82954819D01*
X88666667Y-82954819D02*
X89285714Y-82954819D01*
X83583333Y-93609580D02*
X83535714Y-93657200D01*
X83535714Y-93657200D02*
X83392857Y-93704819D01*
X83392857Y-93704819D02*
X83297619Y-93704819D01*
X83297619Y-93704819D02*
X83154762Y-93657200D01*
X83154762Y-93657200D02*
X83059524Y-93561961D01*
X83059524Y-93561961D02*
X83011905Y-93466723D01*
X83011905Y-93466723D02*
X82964286Y-93276247D01*
X82964286Y-93276247D02*
X82964286Y-93133390D01*
X82964286Y-93133390D02*
X83011905Y-92942914D01*
X83011905Y-92942914D02*
X83059524Y-92847676D01*
X83059524Y-92847676D02*
X83154762Y-92752438D01*
X83154762Y-92752438D02*
X83297619Y-92704819D01*
X83297619Y-92704819D02*
X83392857Y-92704819D01*
X83392857Y-92704819D02*
X83535714Y-92752438D01*
X83535714Y-92752438D02*
X83583333Y-92800057D01*
X84440476Y-93038152D02*
X84440476Y-93704819D01*
X84202381Y-92657200D02*
X83964286Y-93371485D01*
X83964286Y-93371485D02*
X84583333Y-93371485D01*
X88454819Y-104761904D02*
X89264342Y-104761904D01*
X89264342Y-104761904D02*
X89359580Y-104714285D01*
X89359580Y-104714285D02*
X89407200Y-104666666D01*
X89407200Y-104666666D02*
X89454819Y-104571428D01*
X89454819Y-104571428D02*
X89454819Y-104380952D01*
X89454819Y-104380952D02*
X89407200Y-104285714D01*
X89407200Y-104285714D02*
X89359580Y-104238095D01*
X89359580Y-104238095D02*
X89264342Y-104190476D01*
X89264342Y-104190476D02*
X88454819Y-104190476D01*
X89454819Y-103190476D02*
X89454819Y-103761904D01*
X89454819Y-103476190D02*
X88454819Y-103476190D01*
X88454819Y-103476190D02*
X88597676Y-103571428D01*
X88597676Y-103571428D02*
X88692914Y-103666666D01*
X88692914Y-103666666D02*
X88740533Y-103761904D01*
X88454819Y-112666666D02*
X87978628Y-112999999D01*
X88454819Y-113238094D02*
X87454819Y-113238094D01*
X87454819Y-113238094D02*
X87454819Y-112857142D01*
X87454819Y-112857142D02*
X87502438Y-112761904D01*
X87502438Y-112761904D02*
X87550057Y-112714285D01*
X87550057Y-112714285D02*
X87645295Y-112666666D01*
X87645295Y-112666666D02*
X87788152Y-112666666D01*
X87788152Y-112666666D02*
X87883390Y-112714285D01*
X87883390Y-112714285D02*
X87931009Y-112761904D01*
X87931009Y-112761904D02*
X87978628Y-112857142D01*
X87978628Y-112857142D02*
X87978628Y-113238094D01*
X87454819Y-111809523D02*
X87454819Y-111999999D01*
X87454819Y-111999999D02*
X87502438Y-112095237D01*
X87502438Y-112095237D02*
X87550057Y-112142856D01*
X87550057Y-112142856D02*
X87692914Y-112238094D01*
X87692914Y-112238094D02*
X87883390Y-112285713D01*
X87883390Y-112285713D02*
X88264342Y-112285713D01*
X88264342Y-112285713D02*
X88359580Y-112238094D01*
X88359580Y-112238094D02*
X88407200Y-112190475D01*
X88407200Y-112190475D02*
X88454819Y-112095237D01*
X88454819Y-112095237D02*
X88454819Y-111904761D01*
X88454819Y-111904761D02*
X88407200Y-111809523D01*
X88407200Y-111809523D02*
X88359580Y-111761904D01*
X88359580Y-111761904D02*
X88264342Y-111714285D01*
X88264342Y-111714285D02*
X88026247Y-111714285D01*
X88026247Y-111714285D02*
X87931009Y-111761904D01*
X87931009Y-111761904D02*
X87883390Y-111809523D01*
X87883390Y-111809523D02*
X87835771Y-111904761D01*
X87835771Y-111904761D02*
X87835771Y-112095237D01*
X87835771Y-112095237D02*
X87883390Y-112190475D01*
X87883390Y-112190475D02*
X87931009Y-112238094D01*
X87931009Y-112238094D02*
X88026247Y-112285713D01*
X94333333Y-116454819D02*
X94000000Y-115978628D01*
X93761905Y-116454819D02*
X93761905Y-115454819D01*
X93761905Y-115454819D02*
X94142857Y-115454819D01*
X94142857Y-115454819D02*
X94238095Y-115502438D01*
X94238095Y-115502438D02*
X94285714Y-115550057D01*
X94285714Y-115550057D02*
X94333333Y-115645295D01*
X94333333Y-115645295D02*
X94333333Y-115788152D01*
X94333333Y-115788152D02*
X94285714Y-115883390D01*
X94285714Y-115883390D02*
X94238095Y-115931009D01*
X94238095Y-115931009D02*
X94142857Y-115978628D01*
X94142857Y-115978628D02*
X93761905Y-115978628D01*
X95238095Y-115454819D02*
X94761905Y-115454819D01*
X94761905Y-115454819D02*
X94714286Y-115931009D01*
X94714286Y-115931009D02*
X94761905Y-115883390D01*
X94761905Y-115883390D02*
X94857143Y-115835771D01*
X94857143Y-115835771D02*
X95095238Y-115835771D01*
X95095238Y-115835771D02*
X95190476Y-115883390D01*
X95190476Y-115883390D02*
X95238095Y-115931009D01*
X95238095Y-115931009D02*
X95285714Y-116026247D01*
X95285714Y-116026247D02*
X95285714Y-116264342D01*
X95285714Y-116264342D02*
X95238095Y-116359580D01*
X95238095Y-116359580D02*
X95190476Y-116407200D01*
X95190476Y-116407200D02*
X95095238Y-116454819D01*
X95095238Y-116454819D02*
X94857143Y-116454819D01*
X94857143Y-116454819D02*
X94761905Y-116407200D01*
X94761905Y-116407200D02*
X94714286Y-116359580D01*
X84293333Y-118534819D02*
X83960000Y-118058628D01*
X83721905Y-118534819D02*
X83721905Y-117534819D01*
X83721905Y-117534819D02*
X84102857Y-117534819D01*
X84102857Y-117534819D02*
X84198095Y-117582438D01*
X84198095Y-117582438D02*
X84245714Y-117630057D01*
X84245714Y-117630057D02*
X84293333Y-117725295D01*
X84293333Y-117725295D02*
X84293333Y-117868152D01*
X84293333Y-117868152D02*
X84245714Y-117963390D01*
X84245714Y-117963390D02*
X84198095Y-118011009D01*
X84198095Y-118011009D02*
X84102857Y-118058628D01*
X84102857Y-118058628D02*
X83721905Y-118058628D01*
X85150476Y-117868152D02*
X85150476Y-118534819D01*
X84912381Y-117487200D02*
X84674286Y-118201485D01*
X84674286Y-118201485D02*
X85293333Y-118201485D01*
X83034819Y-113206666D02*
X82558628Y-113539999D01*
X83034819Y-113778094D02*
X82034819Y-113778094D01*
X82034819Y-113778094D02*
X82034819Y-113397142D01*
X82034819Y-113397142D02*
X82082438Y-113301904D01*
X82082438Y-113301904D02*
X82130057Y-113254285D01*
X82130057Y-113254285D02*
X82225295Y-113206666D01*
X82225295Y-113206666D02*
X82368152Y-113206666D01*
X82368152Y-113206666D02*
X82463390Y-113254285D01*
X82463390Y-113254285D02*
X82511009Y-113301904D01*
X82511009Y-113301904D02*
X82558628Y-113397142D01*
X82558628Y-113397142D02*
X82558628Y-113778094D01*
X82034819Y-112873332D02*
X82034819Y-112254285D01*
X82034819Y-112254285D02*
X82415771Y-112587618D01*
X82415771Y-112587618D02*
X82415771Y-112444761D01*
X82415771Y-112444761D02*
X82463390Y-112349523D01*
X82463390Y-112349523D02*
X82511009Y-112301904D01*
X82511009Y-112301904D02*
X82606247Y-112254285D01*
X82606247Y-112254285D02*
X82844342Y-112254285D01*
X82844342Y-112254285D02*
X82939580Y-112301904D01*
X82939580Y-112301904D02*
X82987200Y-112349523D01*
X82987200Y-112349523D02*
X83034819Y-112444761D01*
X83034819Y-112444761D02*
X83034819Y-112730475D01*
X83034819Y-112730475D02*
X82987200Y-112825713D01*
X82987200Y-112825713D02*
X82939580Y-112873332D01*
X82954819Y-105166666D02*
X82478628Y-105499999D01*
X82954819Y-105738094D02*
X81954819Y-105738094D01*
X81954819Y-105738094D02*
X81954819Y-105357142D01*
X81954819Y-105357142D02*
X82002438Y-105261904D01*
X82002438Y-105261904D02*
X82050057Y-105214285D01*
X82050057Y-105214285D02*
X82145295Y-105166666D01*
X82145295Y-105166666D02*
X82288152Y-105166666D01*
X82288152Y-105166666D02*
X82383390Y-105214285D01*
X82383390Y-105214285D02*
X82431009Y-105261904D01*
X82431009Y-105261904D02*
X82478628Y-105357142D01*
X82478628Y-105357142D02*
X82478628Y-105738094D01*
X82050057Y-104785713D02*
X82002438Y-104738094D01*
X82002438Y-104738094D02*
X81954819Y-104642856D01*
X81954819Y-104642856D02*
X81954819Y-104404761D01*
X81954819Y-104404761D02*
X82002438Y-104309523D01*
X82002438Y-104309523D02*
X82050057Y-104261904D01*
X82050057Y-104261904D02*
X82145295Y-104214285D01*
X82145295Y-104214285D02*
X82240533Y-104214285D01*
X82240533Y-104214285D02*
X82383390Y-104261904D01*
X82383390Y-104261904D02*
X82954819Y-104833332D01*
X82954819Y-104833332D02*
X82954819Y-104214285D01*
X74333333Y-97454819D02*
X74000000Y-96978628D01*
X73761905Y-97454819D02*
X73761905Y-96454819D01*
X73761905Y-96454819D02*
X74142857Y-96454819D01*
X74142857Y-96454819D02*
X74238095Y-96502438D01*
X74238095Y-96502438D02*
X74285714Y-96550057D01*
X74285714Y-96550057D02*
X74333333Y-96645295D01*
X74333333Y-96645295D02*
X74333333Y-96788152D01*
X74333333Y-96788152D02*
X74285714Y-96883390D01*
X74285714Y-96883390D02*
X74238095Y-96931009D01*
X74238095Y-96931009D02*
X74142857Y-96978628D01*
X74142857Y-96978628D02*
X73761905Y-96978628D01*
X75285714Y-97454819D02*
X74714286Y-97454819D01*
X75000000Y-97454819D02*
X75000000Y-96454819D01*
X75000000Y-96454819D02*
X74904762Y-96597676D01*
X74904762Y-96597676D02*
X74809524Y-96692914D01*
X74809524Y-96692914D02*
X74714286Y-96740533D01*
X78050057Y-115595238D02*
X78002438Y-115690476D01*
X78002438Y-115690476D02*
X77907200Y-115785714D01*
X77907200Y-115785714D02*
X77764342Y-115928571D01*
X77764342Y-115928571D02*
X77716723Y-116023809D01*
X77716723Y-116023809D02*
X77716723Y-116119047D01*
X77954819Y-116071428D02*
X77907200Y-116166666D01*
X77907200Y-116166666D02*
X77811961Y-116261904D01*
X77811961Y-116261904D02*
X77621485Y-116309523D01*
X77621485Y-116309523D02*
X77288152Y-116309523D01*
X77288152Y-116309523D02*
X77097676Y-116261904D01*
X77097676Y-116261904D02*
X77002438Y-116166666D01*
X77002438Y-116166666D02*
X76954819Y-116071428D01*
X76954819Y-116071428D02*
X76954819Y-115880952D01*
X76954819Y-115880952D02*
X77002438Y-115785714D01*
X77002438Y-115785714D02*
X77097676Y-115690476D01*
X77097676Y-115690476D02*
X77288152Y-115642857D01*
X77288152Y-115642857D02*
X77621485Y-115642857D01*
X77621485Y-115642857D02*
X77811961Y-115690476D01*
X77811961Y-115690476D02*
X77907200Y-115785714D01*
X77907200Y-115785714D02*
X77954819Y-115880952D01*
X77954819Y-115880952D02*
X77954819Y-116071428D01*
X77050057Y-115261904D02*
X77002438Y-115214285D01*
X77002438Y-115214285D02*
X76954819Y-115119047D01*
X76954819Y-115119047D02*
X76954819Y-114880952D01*
X76954819Y-114880952D02*
X77002438Y-114785714D01*
X77002438Y-114785714D02*
X77050057Y-114738095D01*
X77050057Y-114738095D02*
X77145295Y-114690476D01*
X77145295Y-114690476D02*
X77240533Y-114690476D01*
X77240533Y-114690476D02*
X77383390Y-114738095D01*
X77383390Y-114738095D02*
X77954819Y-115309523D01*
X77954819Y-115309523D02*
X77954819Y-114690476D01*
X78050057Y-103095238D02*
X78002438Y-103190476D01*
X78002438Y-103190476D02*
X77907200Y-103285714D01*
X77907200Y-103285714D02*
X77764342Y-103428571D01*
X77764342Y-103428571D02*
X77716723Y-103523809D01*
X77716723Y-103523809D02*
X77716723Y-103619047D01*
X77954819Y-103571428D02*
X77907200Y-103666666D01*
X77907200Y-103666666D02*
X77811961Y-103761904D01*
X77811961Y-103761904D02*
X77621485Y-103809523D01*
X77621485Y-103809523D02*
X77288152Y-103809523D01*
X77288152Y-103809523D02*
X77097676Y-103761904D01*
X77097676Y-103761904D02*
X77002438Y-103666666D01*
X77002438Y-103666666D02*
X76954819Y-103571428D01*
X76954819Y-103571428D02*
X76954819Y-103380952D01*
X76954819Y-103380952D02*
X77002438Y-103285714D01*
X77002438Y-103285714D02*
X77097676Y-103190476D01*
X77097676Y-103190476D02*
X77288152Y-103142857D01*
X77288152Y-103142857D02*
X77621485Y-103142857D01*
X77621485Y-103142857D02*
X77811961Y-103190476D01*
X77811961Y-103190476D02*
X77907200Y-103285714D01*
X77907200Y-103285714D02*
X77954819Y-103380952D01*
X77954819Y-103380952D02*
X77954819Y-103571428D01*
X77954819Y-102190476D02*
X77954819Y-102761904D01*
X77954819Y-102476190D02*
X76954819Y-102476190D01*
X76954819Y-102476190D02*
X77097676Y-102571428D01*
X77097676Y-102571428D02*
X77192914Y-102666666D01*
X77192914Y-102666666D02*
X77240533Y-102761904D01*
X92909580Y-97416666D02*
X92957200Y-97464285D01*
X92957200Y-97464285D02*
X93004819Y-97607142D01*
X93004819Y-97607142D02*
X93004819Y-97702380D01*
X93004819Y-97702380D02*
X92957200Y-97845237D01*
X92957200Y-97845237D02*
X92861961Y-97940475D01*
X92861961Y-97940475D02*
X92766723Y-97988094D01*
X92766723Y-97988094D02*
X92576247Y-98035713D01*
X92576247Y-98035713D02*
X92433390Y-98035713D01*
X92433390Y-98035713D02*
X92242914Y-97988094D01*
X92242914Y-97988094D02*
X92147676Y-97940475D01*
X92147676Y-97940475D02*
X92052438Y-97845237D01*
X92052438Y-97845237D02*
X92004819Y-97702380D01*
X92004819Y-97702380D02*
X92004819Y-97607142D01*
X92004819Y-97607142D02*
X92052438Y-97464285D01*
X92052438Y-97464285D02*
X92100057Y-97416666D01*
X92004819Y-97083332D02*
X92004819Y-96464285D01*
X92004819Y-96464285D02*
X92385771Y-96797618D01*
X92385771Y-96797618D02*
X92385771Y-96654761D01*
X92385771Y-96654761D02*
X92433390Y-96559523D01*
X92433390Y-96559523D02*
X92481009Y-96511904D01*
X92481009Y-96511904D02*
X92576247Y-96464285D01*
X92576247Y-96464285D02*
X92814342Y-96464285D01*
X92814342Y-96464285D02*
X92909580Y-96511904D01*
X92909580Y-96511904D02*
X92957200Y-96559523D01*
X92957200Y-96559523D02*
X93004819Y-96654761D01*
X93004819Y-96654761D02*
X93004819Y-96940475D01*
X93004819Y-96940475D02*
X92957200Y-97035713D01*
X92957200Y-97035713D02*
X92909580Y-97083332D01*
X90333333Y-92859580D02*
X90285714Y-92907200D01*
X90285714Y-92907200D02*
X90142857Y-92954819D01*
X90142857Y-92954819D02*
X90047619Y-92954819D01*
X90047619Y-92954819D02*
X89904762Y-92907200D01*
X89904762Y-92907200D02*
X89809524Y-92811961D01*
X89809524Y-92811961D02*
X89761905Y-92716723D01*
X89761905Y-92716723D02*
X89714286Y-92526247D01*
X89714286Y-92526247D02*
X89714286Y-92383390D01*
X89714286Y-92383390D02*
X89761905Y-92192914D01*
X89761905Y-92192914D02*
X89809524Y-92097676D01*
X89809524Y-92097676D02*
X89904762Y-92002438D01*
X89904762Y-92002438D02*
X90047619Y-91954819D01*
X90047619Y-91954819D02*
X90142857Y-91954819D01*
X90142857Y-91954819D02*
X90285714Y-92002438D01*
X90285714Y-92002438D02*
X90333333Y-92050057D01*
X91285714Y-92954819D02*
X90714286Y-92954819D01*
X91000000Y-92954819D02*
X91000000Y-91954819D01*
X91000000Y-91954819D02*
X90904762Y-92097676D01*
X90904762Y-92097676D02*
X90809524Y-92192914D01*
X90809524Y-92192914D02*
X90714286Y-92240533D01*
%TO.C,D4*%
D11*
X100220000Y-119820000D02*
X100220000Y-125640000D01*
X98500000Y-119820000D02*
X98500000Y-125640000D01*
X95400000Y-119820000D02*
X95400000Y-125640000D01*
X94400000Y-119820000D02*
X94400000Y-125640000D01*
X93480000Y-119820000D02*
X100220000Y-119820000D01*
X93480000Y-121160000D02*
X93480000Y-119820000D01*
X100220000Y-125640000D02*
X93480000Y-125640000D01*
X93480000Y-125640000D02*
X93480000Y-121760000D01*
X93480000Y-121460000D02*
X92870000Y-121900000D01*
X92870000Y-121020000D01*
X93480000Y-121460000D01*
G36*
X93480000Y-121460000D02*
G01*
X92870000Y-121900000D01*
X92870000Y-121020000D01*
X93480000Y-121460000D01*
G37*
%TO.C,D2*%
X80740000Y-89500000D02*
X79720000Y-89500000D01*
X78940000Y-90970000D02*
X78940000Y-88030000D01*
X78820000Y-90970000D02*
X78820000Y-88030000D01*
X78700000Y-90970000D02*
X78700000Y-88030000D01*
X73260000Y-89500000D02*
X74280000Y-89500000D01*
X74280000Y-88030000D02*
X79720000Y-88030000D01*
X79720000Y-90970000D01*
X74280000Y-90970000D01*
X74280000Y-88030000D01*
%TO.C,T1*%
X75240000Y-124280000D02*
X88680000Y-124280000D01*
X75240000Y-126000000D02*
X88680000Y-126000000D01*
X75240000Y-129100000D02*
X88680000Y-129100000D01*
X75240000Y-130100000D02*
X88680000Y-130100000D01*
X75240000Y-131020000D02*
X75240000Y-124280000D01*
X76580000Y-131020000D02*
X75240000Y-131020000D01*
X88680000Y-124280000D02*
X88680000Y-131020000D01*
X88680000Y-131020000D02*
X77180000Y-131020000D01*
X76880000Y-131020000D02*
X77320000Y-131630000D01*
X76440000Y-131630000D01*
X76880000Y-131020000D01*
G36*
X77320000Y-131630000D02*
G01*
X76440000Y-131630000D01*
X76880000Y-131020000D01*
X77320000Y-131630000D01*
G37*
%TO.C,D3*%
X78000000Y-82730000D02*
G75*
G02*
X73000000Y-82730000I-2500000J0D01*
G01*
X73000000Y-82730000D02*
G75*
G02*
X78000000Y-82730000I2500000J0D01*
G01*
X75500000Y-79740000D02*
G75*
G02*
X77044830Y-85290000I0J-2990000D01*
G01*
X73955170Y-85290000D02*
G75*
G02*
X75500000Y-79740000I1544830J2560000D01*
G01*
X73955000Y-85290000D02*
X77045000Y-85290000D01*
%TO.C,RV1*%
X94480000Y-99915000D02*
X94480000Y-90165000D01*
X99530000Y-99915000D02*
X94480000Y-99915000D01*
X94480000Y-90165000D02*
X99530000Y-90165000D01*
X99530000Y-90165000D02*
X99530000Y-99915000D01*
%TO.C,BT2*%
X98040000Y-80480000D02*
X97600000Y-79870000D01*
X98480000Y-79870000D01*
X98040000Y-80480000D01*
G36*
X98040000Y-80480000D02*
G01*
X97600000Y-79870000D01*
X98480000Y-79870000D01*
X98040000Y-80480000D01*
G37*
X93860000Y-80480000D02*
X97740000Y-80480000D01*
X93860000Y-87220000D02*
X93860000Y-80480000D01*
X98340000Y-80480000D02*
X99680000Y-80480000D01*
X99680000Y-80480000D02*
X99680000Y-87220000D01*
X99680000Y-81400000D02*
X93860000Y-81400000D01*
X99680000Y-82400000D02*
X93860000Y-82400000D01*
X99680000Y-85500000D02*
X93860000Y-85500000D01*
X99680000Y-87220000D02*
X93860000Y-87220000D01*
%TO.C,C2*%
X86339000Y-80749759D02*
X86339000Y-81379759D01*
X86654000Y-81064759D02*
X86024000Y-81064759D01*
X87730000Y-84250000D02*
X81270000Y-84250000D01*
X87730000Y-84290000D02*
X81270000Y-84290000D01*
X87729000Y-84330000D02*
X81271000Y-84330000D01*
X87728000Y-84370000D02*
X81272000Y-84370000D01*
X87726000Y-84410000D02*
X81274000Y-84410000D01*
X87724000Y-84450000D02*
X81276000Y-84450000D01*
X87721000Y-84490000D02*
X85540000Y-84490000D01*
X83460000Y-84490000D02*
X81279000Y-84490000D01*
X87718000Y-84530000D02*
X85540000Y-84530000D01*
X83460000Y-84530000D02*
X81282000Y-84530000D01*
X87714000Y-84570000D02*
X85540000Y-84570000D01*
X83460000Y-84570000D02*
X81286000Y-84570000D01*
X87710000Y-84610000D02*
X85540000Y-84610000D01*
X83460000Y-84610000D02*
X81290000Y-84610000D01*
X87705000Y-84650000D02*
X85540000Y-84650000D01*
X83460000Y-84650000D02*
X81295000Y-84650000D01*
X87700000Y-84690000D02*
X85540000Y-84690000D01*
X83460000Y-84690000D02*
X81300000Y-84690000D01*
X87695000Y-84730000D02*
X85540000Y-84730000D01*
X83460000Y-84730000D02*
X81305000Y-84730000D01*
X87688000Y-84770000D02*
X85540000Y-84770000D01*
X83460000Y-84770000D02*
X81312000Y-84770000D01*
X87682000Y-84810000D02*
X85540000Y-84810000D01*
X83460000Y-84810000D02*
X81318000Y-84810000D01*
X87674000Y-84850000D02*
X85540000Y-84850000D01*
X83460000Y-84850000D02*
X81326000Y-84850000D01*
X87667000Y-84890000D02*
X85540000Y-84890000D01*
X83460000Y-84890000D02*
X81333000Y-84890000D01*
X87659000Y-84930000D02*
X85540000Y-84930000D01*
X83460000Y-84930000D02*
X81341000Y-84930000D01*
X87650000Y-84970000D02*
X85540000Y-84970000D01*
X83460000Y-84970000D02*
X81350000Y-84970000D01*
X87640000Y-85010000D02*
X85540000Y-85010000D01*
X83460000Y-85010000D02*
X81360000Y-85010000D01*
X87631000Y-85050000D02*
X85540000Y-85050000D01*
X83460000Y-85050000D02*
X81369000Y-85050000D01*
X87620000Y-85090000D02*
X85540000Y-85090000D01*
X83460000Y-85090000D02*
X81380000Y-85090000D01*
X87609000Y-85130000D02*
X85540000Y-85130000D01*
X83460000Y-85130000D02*
X81391000Y-85130000D01*
X87598000Y-85170000D02*
X85540000Y-85170000D01*
X83460000Y-85170000D02*
X81402000Y-85170000D01*
X87586000Y-85210000D02*
X85540000Y-85210000D01*
X83460000Y-85210000D02*
X81414000Y-85210000D01*
X87573000Y-85250000D02*
X85540000Y-85250000D01*
X83460000Y-85250000D02*
X81427000Y-85250000D01*
X87560000Y-85290000D02*
X85540000Y-85290000D01*
X83460000Y-85290000D02*
X81440000Y-85290000D01*
X87547000Y-85330000D02*
X85540000Y-85330000D01*
X83460000Y-85330000D02*
X81453000Y-85330000D01*
X87532000Y-85370000D02*
X85540000Y-85370000D01*
X83460000Y-85370000D02*
X81468000Y-85370000D01*
X87517000Y-85410000D02*
X85540000Y-85410000D01*
X83460000Y-85410000D02*
X81483000Y-85410000D01*
X87502000Y-85450000D02*
X85540000Y-85450000D01*
X83460000Y-85450000D02*
X81498000Y-85450000D01*
X87486000Y-85490000D02*
X85540000Y-85490000D01*
X83460000Y-85490000D02*
X81514000Y-85490000D01*
X87469000Y-85530000D02*
X85540000Y-85530000D01*
X83460000Y-85530000D02*
X81531000Y-85530000D01*
X87452000Y-85570000D02*
X85540000Y-85570000D01*
X83460000Y-85570000D02*
X81548000Y-85570000D01*
X87434000Y-85610000D02*
X85540000Y-85610000D01*
X83460000Y-85610000D02*
X81566000Y-85610000D01*
X87415000Y-85650000D02*
X85540000Y-85650000D01*
X83460000Y-85650000D02*
X81585000Y-85650000D01*
X87396000Y-85690000D02*
X85540000Y-85690000D01*
X83460000Y-85690000D02*
X81604000Y-85690000D01*
X87376000Y-85730000D02*
X85540000Y-85730000D01*
X83460000Y-85730000D02*
X81624000Y-85730000D01*
X87355000Y-85770000D02*
X85540000Y-85770000D01*
X83460000Y-85770000D02*
X81645000Y-85770000D01*
X87334000Y-85810000D02*
X85540000Y-85810000D01*
X83460000Y-85810000D02*
X81666000Y-85810000D01*
X87312000Y-85850000D02*
X85540000Y-85850000D01*
X83460000Y-85850000D02*
X81688000Y-85850000D01*
X87289000Y-85890000D02*
X85540000Y-85890000D01*
X83460000Y-85890000D02*
X81711000Y-85890000D01*
X87265000Y-85930000D02*
X85540000Y-85930000D01*
X83460000Y-85930000D02*
X81735000Y-85930000D01*
X87241000Y-85970000D02*
X85540000Y-85970000D01*
X83460000Y-85970000D02*
X81759000Y-85970000D01*
X87216000Y-86010000D02*
X85540000Y-86010000D01*
X83460000Y-86010000D02*
X81784000Y-86010000D01*
X87190000Y-86050000D02*
X85540000Y-86050000D01*
X83460000Y-86050000D02*
X81810000Y-86050000D01*
X87163000Y-86090000D02*
X85540000Y-86090000D01*
X83460000Y-86090000D02*
X81837000Y-86090000D01*
X87136000Y-86130000D02*
X85540000Y-86130000D01*
X83460000Y-86130000D02*
X81864000Y-86130000D01*
X87107000Y-86170000D02*
X85540000Y-86170000D01*
X83460000Y-86170000D02*
X81893000Y-86170000D01*
X87077000Y-86210000D02*
X85540000Y-86210000D01*
X83460000Y-86210000D02*
X81923000Y-86210000D01*
X87047000Y-86250000D02*
X85540000Y-86250000D01*
X83460000Y-86250000D02*
X81953000Y-86250000D01*
X87016000Y-86290000D02*
X85540000Y-86290000D01*
X83460000Y-86290000D02*
X81984000Y-86290000D01*
X86983000Y-86330000D02*
X85540000Y-86330000D01*
X83460000Y-86330000D02*
X82017000Y-86330000D01*
X86950000Y-86370000D02*
X85540000Y-86370000D01*
X83460000Y-86370000D02*
X82050000Y-86370000D01*
X86915000Y-86410000D02*
X85540000Y-86410000D01*
X83460000Y-86410000D02*
X82085000Y-86410000D01*
X86879000Y-86450000D02*
X85540000Y-86450000D01*
X83460000Y-86450000D02*
X82121000Y-86450000D01*
X86842000Y-86490000D02*
X85540000Y-86490000D01*
X83460000Y-86490000D02*
X82158000Y-86490000D01*
X86804000Y-86530000D02*
X85540000Y-86530000D01*
X83460000Y-86530000D02*
X82196000Y-86530000D01*
X86764000Y-86570000D02*
X82236000Y-86570000D01*
X86723000Y-86610000D02*
X82277000Y-86610000D01*
X86681000Y-86650000D02*
X82319000Y-86650000D01*
X86637000Y-86690000D02*
X82363000Y-86690000D01*
X86591000Y-86730000D02*
X82409000Y-86730000D01*
X86544000Y-86770000D02*
X82456000Y-86770000D01*
X86495000Y-86810000D02*
X82505000Y-86810000D01*
X86443000Y-86850000D02*
X82557000Y-86850000D01*
X86390000Y-86890000D02*
X82610000Y-86890000D01*
X86334000Y-86930000D02*
X82666000Y-86930000D01*
X86275000Y-86970000D02*
X82725000Y-86970000D01*
X86214000Y-87010000D02*
X82786000Y-87010000D01*
X86149000Y-87050000D02*
X82851000Y-87050000D01*
X86081000Y-87090000D02*
X82919000Y-87090000D01*
X86009000Y-87130000D02*
X82991000Y-87130000D01*
X85932000Y-87170000D02*
X83068000Y-87170000D01*
X85850000Y-87210000D02*
X83150000Y-87210000D01*
X85761000Y-87250000D02*
X83239000Y-87250000D01*
X85665000Y-87290000D02*
X83335000Y-87290000D01*
X85558000Y-87330000D02*
X83442000Y-87330000D01*
X85439000Y-87370000D02*
X83561000Y-87370000D01*
X85301000Y-87410000D02*
X83699000Y-87410000D01*
X85133000Y-87450000D02*
X83867000Y-87450000D01*
X84902000Y-87490000D02*
X84098000Y-87490000D01*
X87770000Y-84250000D02*
G75*
G02*
X81230000Y-84250000I-3270000J0D01*
G01*
X81230000Y-84250000D02*
G75*
G02*
X87770000Y-84250000I3270000J0D01*
G01*
%TO.C,C4*%
X80945225Y-95525000D02*
X81445225Y-95525000D01*
X81195225Y-95275000D02*
X81195225Y-95775000D01*
X83750000Y-94420000D02*
X83750000Y-99580000D01*
X83790000Y-94420000D02*
X83790000Y-99580000D01*
X83830000Y-94421000D02*
X83830000Y-99579000D01*
X83870000Y-94423000D02*
X83870000Y-99577000D01*
X83910000Y-94425000D02*
X83910000Y-99575000D01*
X83950000Y-94428000D02*
X83950000Y-99572000D01*
X83990000Y-94431000D02*
X83990000Y-95960000D01*
X83990000Y-98040000D02*
X83990000Y-99569000D01*
X84030000Y-94435000D02*
X84030000Y-95960000D01*
X84030000Y-98040000D02*
X84030000Y-99565000D01*
X84070000Y-94440000D02*
X84070000Y-95960000D01*
X84070000Y-98040000D02*
X84070000Y-99560000D01*
X84110000Y-94445000D02*
X84110000Y-95960000D01*
X84110000Y-98040000D02*
X84110000Y-99555000D01*
X84150000Y-94451000D02*
X84150000Y-95960000D01*
X84150000Y-98040000D02*
X84150000Y-99549000D01*
X84190000Y-94457000D02*
X84190000Y-95960000D01*
X84190000Y-98040000D02*
X84190000Y-99543000D01*
X84230000Y-94464000D02*
X84230000Y-95960000D01*
X84230000Y-98040000D02*
X84230000Y-99536000D01*
X84270000Y-94472000D02*
X84270000Y-95960000D01*
X84270000Y-98040000D02*
X84270000Y-99528000D01*
X84310000Y-94481000D02*
X84310000Y-95960000D01*
X84310000Y-98040000D02*
X84310000Y-99519000D01*
X84350000Y-94490000D02*
X84350000Y-95960000D01*
X84350000Y-98040000D02*
X84350000Y-99510000D01*
X84390000Y-94499000D02*
X84390000Y-95960000D01*
X84390000Y-98040000D02*
X84390000Y-99501000D01*
X84430000Y-94510000D02*
X84430000Y-95960000D01*
X84430000Y-98040000D02*
X84430000Y-99490000D01*
X84470000Y-94521000D02*
X84470000Y-95960000D01*
X84470000Y-98040000D02*
X84470000Y-99479000D01*
X84510000Y-94533000D02*
X84510000Y-95960000D01*
X84510000Y-98040000D02*
X84510000Y-99467000D01*
X84550000Y-94545000D02*
X84550000Y-95960000D01*
X84550000Y-98040000D02*
X84550000Y-99455000D01*
X84590000Y-94558000D02*
X84590000Y-95960000D01*
X84590000Y-98040000D02*
X84590000Y-99442000D01*
X84630000Y-94572000D02*
X84630000Y-95960000D01*
X84630000Y-98040000D02*
X84630000Y-99428000D01*
X84670000Y-94587000D02*
X84670000Y-95960000D01*
X84670000Y-98040000D02*
X84670000Y-99413000D01*
X84710000Y-94602000D02*
X84710000Y-95960000D01*
X84710000Y-98040000D02*
X84710000Y-99398000D01*
X84750000Y-94618000D02*
X84750000Y-95960000D01*
X84750000Y-98040000D02*
X84750000Y-99382000D01*
X84790000Y-94635000D02*
X84790000Y-95960000D01*
X84790000Y-98040000D02*
X84790000Y-99365000D01*
X84830000Y-94653000D02*
X84830000Y-95960000D01*
X84830000Y-98040000D02*
X84830000Y-99347000D01*
X84870000Y-94671000D02*
X84870000Y-95960000D01*
X84870000Y-98040000D02*
X84870000Y-99329000D01*
X84910000Y-94691000D02*
X84910000Y-95960000D01*
X84910000Y-98040000D02*
X84910000Y-99309000D01*
X84950000Y-94711000D02*
X84950000Y-95960000D01*
X84950000Y-98040000D02*
X84950000Y-99289000D01*
X84990000Y-94732000D02*
X84990000Y-95960000D01*
X84990000Y-98040000D02*
X84990000Y-99268000D01*
X85030000Y-94754000D02*
X85030000Y-95960000D01*
X85030000Y-98040000D02*
X85030000Y-99246000D01*
X85070000Y-94777000D02*
X85070000Y-95960000D01*
X85070000Y-98040000D02*
X85070000Y-99223000D01*
X85110000Y-94801000D02*
X85110000Y-95960000D01*
X85110000Y-98040000D02*
X85110000Y-99199000D01*
X85150000Y-94825000D02*
X85150000Y-95960000D01*
X85150000Y-98040000D02*
X85150000Y-99175000D01*
X85190000Y-94851000D02*
X85190000Y-95960000D01*
X85190000Y-98040000D02*
X85190000Y-99149000D01*
X85230000Y-94878000D02*
X85230000Y-95960000D01*
X85230000Y-98040000D02*
X85230000Y-99122000D01*
X85270000Y-94906000D02*
X85270000Y-95960000D01*
X85270000Y-98040000D02*
X85270000Y-99094000D01*
X85310000Y-94935000D02*
X85310000Y-95960000D01*
X85310000Y-98040000D02*
X85310000Y-99065000D01*
X85350000Y-94965000D02*
X85350000Y-95960000D01*
X85350000Y-98040000D02*
X85350000Y-99035000D01*
X85390000Y-94997000D02*
X85390000Y-95960000D01*
X85390000Y-98040000D02*
X85390000Y-99003000D01*
X85430000Y-95030000D02*
X85430000Y-95960000D01*
X85430000Y-98040000D02*
X85430000Y-98970000D01*
X85470000Y-95064000D02*
X85470000Y-95960000D01*
X85470000Y-98040000D02*
X85470000Y-98936000D01*
X85510000Y-95099000D02*
X85510000Y-95960000D01*
X85510000Y-98040000D02*
X85510000Y-98901000D01*
X85550000Y-95136000D02*
X85550000Y-95960000D01*
X85550000Y-98040000D02*
X85550000Y-98864000D01*
X85590000Y-95175000D02*
X85590000Y-95960000D01*
X85590000Y-98040000D02*
X85590000Y-98825000D01*
X85630000Y-95215000D02*
X85630000Y-95960000D01*
X85630000Y-98040000D02*
X85630000Y-98785000D01*
X85670000Y-95257000D02*
X85670000Y-95960000D01*
X85670000Y-98040000D02*
X85670000Y-98743000D01*
X85710000Y-95301000D02*
X85710000Y-95960000D01*
X85710000Y-98040000D02*
X85710000Y-98699000D01*
X85750000Y-95348000D02*
X85750000Y-95960000D01*
X85750000Y-98040000D02*
X85750000Y-98652000D01*
X85790000Y-95396000D02*
X85790000Y-95960000D01*
X85790000Y-98040000D02*
X85790000Y-98604000D01*
X85830000Y-95447000D02*
X85830000Y-95960000D01*
X85830000Y-98040000D02*
X85830000Y-98553000D01*
X85870000Y-95501000D02*
X85870000Y-95960000D01*
X85870000Y-98040000D02*
X85870000Y-98499000D01*
X85910000Y-95557000D02*
X85910000Y-95960000D01*
X85910000Y-98040000D02*
X85910000Y-98443000D01*
X85950000Y-95617000D02*
X85950000Y-95960000D01*
X85950000Y-98040000D02*
X85950000Y-98383000D01*
X85990000Y-95681000D02*
X85990000Y-95960000D01*
X85990000Y-98040000D02*
X85990000Y-98319000D01*
X86030000Y-95749000D02*
X86030000Y-95960000D01*
X86030000Y-98040000D02*
X86030000Y-98251000D01*
X86070000Y-95823000D02*
X86070000Y-98177000D01*
X86110000Y-95902000D02*
X86110000Y-98098000D01*
X86150000Y-95989000D02*
X86150000Y-98011000D01*
X86190000Y-96086000D02*
X86190000Y-97914000D01*
X86230000Y-96195000D02*
X86230000Y-97805000D01*
X86270000Y-96323000D02*
X86270000Y-97677000D01*
X86310000Y-96483000D02*
X86310000Y-97517000D01*
X86350000Y-96717000D02*
X86350000Y-97283000D01*
X86370000Y-97000000D02*
G75*
G02*
X81130000Y-97000000I-2620000J0D01*
G01*
X81130000Y-97000000D02*
G75*
G02*
X86370000Y-97000000I2620000J0D01*
G01*
%TO.C,U1*%
X100140000Y-107000000D02*
G75*
G02*
X100140000Y-105000000I0J1000000D01*
G01*
X89860000Y-108650000D02*
X100140000Y-108650000D01*
X100140000Y-108650000D02*
X100140000Y-107000000D01*
X100140000Y-105000000D02*
X100140000Y-103350000D01*
X89860000Y-103350000D02*
X89860000Y-108650000D01*
X100140000Y-103350000D02*
X89860000Y-103350000D01*
%TO.C,R6*%
X90920000Y-116960000D02*
X90920000Y-113120000D01*
X89080000Y-116960000D02*
X89080000Y-113120000D01*
%TO.C,R5*%
X95040000Y-114920000D02*
X98880000Y-114920000D01*
X95040000Y-113080000D02*
X98880000Y-113080000D01*
%TO.C,R4*%
X82540000Y-120920000D02*
X86380000Y-120920000D01*
X82540000Y-119080000D02*
X86380000Y-119080000D01*
%TO.C,R3*%
X85420000Y-114960000D02*
X85420000Y-111120000D01*
X83580000Y-114960000D02*
X83580000Y-111120000D01*
%TO.C,R2*%
X83580000Y-103580000D02*
X83580000Y-107420000D01*
X85420000Y-103580000D02*
X85420000Y-107420000D01*
%TO.C,R1*%
X72580000Y-95920000D02*
X76420000Y-95920000D01*
X72580000Y-94080000D02*
X76420000Y-94080000D01*
%TO.C,Q2*%
X76860000Y-111930000D02*
X76860000Y-122150000D01*
X72240000Y-111930000D02*
X76860000Y-111930000D01*
X72240000Y-115190000D02*
X73620000Y-115190000D01*
X72240000Y-118890000D02*
X73620000Y-118890000D01*
X76860000Y-122150000D02*
X72240000Y-122150000D01*
X73620000Y-122150000D02*
X73620000Y-111930000D01*
X72240000Y-122150000D02*
X72240000Y-111930000D01*
%TO.C,Q1*%
X76860000Y-98390000D02*
X76860000Y-108610000D01*
X72240000Y-98390000D02*
X76860000Y-98390000D01*
X72240000Y-101650000D02*
X73620000Y-101650000D01*
X72240000Y-105350000D02*
X73620000Y-105350000D01*
X76860000Y-108610000D02*
X72240000Y-108610000D01*
X73620000Y-108610000D02*
X73620000Y-98390000D01*
X72240000Y-108610000D02*
X72240000Y-98390000D01*
%TO.C,C3*%
X89580000Y-98015000D02*
X89580000Y-96485000D01*
X91420000Y-96485000D02*
X91420000Y-98015000D01*
%TO.C,C1*%
X89015000Y-91920000D02*
X87485000Y-91920000D01*
X87485000Y-90080000D02*
X89015000Y-90080000D01*
%TD*%
M02*
