%TF.GenerationSoftware,KiCad,Pcbnew,10.0.3*%
%TF.CreationDate,2026-05-22T04:08:24-07:00*%
%TF.ProjectId,PCBProject,50434250-726f-46a6-9563-742e6b696361,rev?*%
%TF.SameCoordinates,Original*%
%TF.FileFunction,Soldermask,Top*%
%TF.FilePolarity,Negative*%
%FSLAX46Y46*%
G04 Gerber Fmt 4.6, Leading zero omitted, Abs format (unit mm)*
G04 Created by KiCad (PCBNEW 10.0.3) date 2026-05-22 04:08:24*
%MOMM*%
%LPD*%
G01*
G04 APERTURE LIST*
G04 Aperture macros list*
%AMRoundRect*
0 Rectangle with rounded corners*
0 $1 Rounding radius*
0 $2 $3 $4 $5 $6 $7 $8 $9 X,Y pos of 4 corners*
0 Add a 4 corners polygon primitive as box body*
4,1,4,$2,$3,$4,$5,$6,$7,$8,$9,$2,$3,0*
0 Add four circle primitives for the rounded corners*
1,1,$1+$1,$2,$3*
1,1,$1+$1,$4,$5*
1,1,$1+$1,$6,$7*
1,1,$1+$1,$8,$9*
0 Add four rect primitives between the rounded corners*
20,1,$1+$1,$2,$3,$4,$5,0*
20,1,$1+$1,$4,$5,$6,$7,0*
20,1,$1+$1,$6,$7,$8,$9,0*
20,1,$1+$1,$8,$9,$2,$3,0*%
G04 Aperture macros list end*
%ADD10RoundRect,0.250000X-0.750000X0.750000X-0.750000X-0.750000X0.750000X-0.750000X0.750000X0.750000X0*%
%ADD11C,2.000000*%
%ADD12RoundRect,0.249999X0.850001X0.850001X-0.850001X0.850001X-0.850001X-0.850001X0.850001X-0.850001X0*%
%ADD13C,2.200000*%
%ADD14RoundRect,0.250000X-0.750000X-0.750000X0.750000X-0.750000X0.750000X0.750000X-0.750000X0.750000X0*%
%ADD15C,1.800000*%
%ADD16R,1.800000X1.800000*%
%ADD17C,1.440000*%
%ADD18RoundRect,0.250000X0.750000X0.750000X-0.750000X0.750000X-0.750000X-0.750000X0.750000X-0.750000X0*%
%ADD19RoundRect,0.250000X-0.550000X0.550000X-0.550000X-0.550000X0.550000X-0.550000X0.550000X0.550000X0*%
%ADD20C,1.600000*%
%ADD21RoundRect,0.250000X-0.550000X-0.550000X0.550000X-0.550000X0.550000X0.550000X-0.550000X0.550000X0*%
%ADD22C,1.400000*%
%ADD23O,2.000000X1.905000*%
%ADD24R,2.000000X1.905000*%
G04 APERTURE END LIST*
D10*
%TO.C,D4*%
X97000000Y-121460000D03*
D11*
X97000000Y-124000000D03*
%TD*%
D12*
%TO.C,D2*%
X82080000Y-89500000D03*
D13*
X71920000Y-89500000D03*
%TD*%
D14*
%TO.C,T1*%
X76880000Y-127500000D03*
D11*
X79420000Y-127500000D03*
X81960000Y-127500000D03*
X84500000Y-127500000D03*
X87040000Y-127500000D03*
%TD*%
D15*
%TO.C,D3*%
X75500000Y-81460000D03*
D16*
X75500000Y-84000000D03*
%TD*%
D17*
%TO.C,RV1*%
X97000000Y-92500000D03*
X97000000Y-95040000D03*
X97000000Y-97580000D03*
%TD*%
D11*
%TO.C,BT2*%
X95500000Y-84000000D03*
D18*
X98040000Y-84000000D03*
%TD*%
D19*
%TO.C,C2*%
X84500000Y-83000000D03*
D20*
X84500000Y-85500000D03*
%TD*%
D21*
%TO.C,C4*%
X82500000Y-97000000D03*
D20*
X85000000Y-97000000D03*
%TD*%
%TO.C,U1*%
X98810000Y-109810000D03*
X96270000Y-109810000D03*
X93730000Y-109810000D03*
X91190000Y-109810000D03*
X91190000Y-102190000D03*
X93730000Y-102190000D03*
X96270000Y-102190000D03*
D19*
X98810000Y-102190000D03*
%TD*%
D22*
%TO.C,R6*%
X90000000Y-112500000D03*
X90000000Y-117580000D03*
%TD*%
%TO.C,R5*%
X99500000Y-114000000D03*
X94420000Y-114000000D03*
%TD*%
%TO.C,R4*%
X87000000Y-120000000D03*
X81920000Y-120000000D03*
%TD*%
%TO.C,R3*%
X84500000Y-110500000D03*
X84500000Y-115580000D03*
%TD*%
%TO.C,R2*%
X84500000Y-108040000D03*
X84500000Y-102960000D03*
%TD*%
%TO.C,R1*%
X77040000Y-95000000D03*
X71960000Y-95000000D03*
%TD*%
D23*
%TO.C,Q2*%
X75500000Y-114500000D03*
X75500000Y-117040000D03*
D24*
X75500000Y-119580000D03*
%TD*%
D23*
%TO.C,Q1*%
X75500000Y-100960000D03*
X75500000Y-103500000D03*
D24*
X75500000Y-106040000D03*
%TD*%
D20*
%TO.C,C3*%
X90500000Y-98500000D03*
X90500000Y-96000000D03*
%TD*%
%TO.C,C1*%
X89500000Y-91000000D03*
X87000000Y-91000000D03*
%TD*%
M02*
